<?xml version="1.0" encoding="UTF-8" standalone="no"?>
<!-- Created with Inkscape (http://www.inkscape.org/) -->

<svg
   xmlns:dc="http://purl.org/dc/elements/1.1/"
   xmlns:cc="http://creativecommons.org/ns#"
   xmlns:rdf="http://www.w3.org/1999/02/22-rdf-syntax-ns#"
   xmlns:svg="http://www.w3.org/2000/svg"
   xmlns="http://www.w3.org/2000/svg"
   xmlns:sodipodi="http://sodipodi.sourceforge.net/DTD/sodipodi-0.dtd"
   xmlns:inkscape="http://www.inkscape.org/namespaces/inkscape"
   width="1052.3622"
   height="744.09448"
   id="svg2"
   version="1.1"
   inkscape:version="0.48.2 r9819"
   sodipodi:docname="politicalrdfgraph.svg"

   inkscape:export-xdpi="100"
   inkscape:export-ydpi="100">
  <defs
     id="defs4" />
  <sodipodi:namedview
     id="base"
     pagecolor="#ffffff"
     bordercolor="#666666"
     borderopacity="1.0"
     inkscape:pageopacity="0.0"
     inkscape:pageshadow="2"
     inkscape:zoom="0.98994949"
     inkscape:cx="571.36559"
     inkscape:cy="350.98778"
     inkscape:document-units="px"
     inkscape:current-layer="g3061"
     showgrid="false"
     inkscape:window-width="1862"
     inkscape:window-height="1056"
     inkscape:window-x="58"
     inkscape:window-y="24"
     inkscape:window-maximized="1" />
  <metadata
     id="metadata7">
    <rdf:RDF>
      <cc:Work
         rdf:about="">
        <dc:format>image/svg+xml</dc:format>
        <dc:type
           rdf:resource="http://purl.org/dc/dcmitype/StillImage" />
        <dc:title />
      </cc:Work>
    </rdf:RDF>
  </metadata>
  <g
     inkscape:label="Ebene 1"
     inkscape:groupmode="layer"
     id="layer1"
     transform="translate(0,-308.2677)">
    <g
       id="g3061"
       transform="translate(-19.192895,58.415533)">
      <path
         style="fill:none;stroke:#000000;stroke-width:1.49545884px;stroke-linecap:butt;stroke-linejoin:miter;stroke-opacity:1"
         d="m 463.93327,688.54198 114.61089,-0.33294"
         id="path3079-2-0-9"
         inkscape:connector-curvature="0"
         sodipodi:nodetypes="cc" />
      <path
         sodipodi:nodetypes="cc"
         inkscape:connector-curvature="0"
         id="path3658"
         d="m 492.70447,516.59717 -205.4119,248.7499"
         style="fill:none;stroke:#000000;stroke-width:1.49545884px;stroke-linecap:butt;stroke-linejoin:miter;stroke-opacity:1" />
      <path
         style="fill:none;stroke:#000000;stroke-width:1.49545884px;stroke-linecap:butt;stroke-linejoin:miter;stroke-opacity:1"
         d="M 282.92435,589.61081 188.4295,704.5263"
         id="path3079"
         inkscape:connector-curvature="0"
         sodipodi:nodetypes="cc" />
      <path
         sodipodi:type="arc"
         style="fill:#ffff00;fill-opacity:1;stroke:#000000;stroke-opacity:1;stroke-width:2.31969381999999991;stroke-miterlimit:4;stroke-dasharray:none"
         id="path3071"
         sodipodi:cx="405.07117"
         sodipodi:cy="362.25681"
         sodipodi:rx="18.182745"
         sodipodi:ry="18.182745"
         d="m 423.25391,362.25681 c 0,10.04205 -8.14069,18.18274 -18.18274,18.18274 -10.04206,0 -18.18275,-8.14069 -18.18275,-18.18274 0,-10.04206 8.14069,-18.18275 18.18275,-18.18275 10.04205,0 18.18274,8.14069 18.18274,18.18275 z"
         transform="matrix(0.86218275,0,0,0.86218275,-61.97416,275.62276)" />
      <path
         style="fill:none;stroke:#000000;stroke-width:1.49545884px;stroke-linecap:butt;stroke-linejoin:miter;stroke-opacity:1"
         d="M 147.78112,807.30715 211.9448,723.14256"
         id="path3073"
         inkscape:connector-curvature="0"
         sodipodi:nodetypes="cc" />
      <path
         sodipodi:type="arc"
         style="fill:#ffff00;fill-opacity:1;stroke:#000000;stroke-opacity:1;stroke-width:2.31969381999999991;stroke-miterlimit:4;stroke-dasharray:none"
         id="path3075"
         sodipodi:cx="405.07117"
         sodipodi:cy="362.25681"
         sodipodi:rx="18.182745"
         sodipodi:ry="18.182745"
         d="m 423.25391,362.25681 c 0,10.04205 -8.14069,18.18274 -18.18274,18.18274 -10.04206,0 -18.18275,-8.14069 -18.18275,-18.18274 0,-10.04206 8.14069,-18.18275 18.18275,-18.18275 10.04205,0 18.18274,8.14069 18.18274,18.18275 z"
         transform="matrix(0.86218275,0,0,0.86218275,-207.09545,501.31574)" />
      <path
         sodipodi:nodetypes="cc"
         inkscape:connector-curvature="0"
         id="path3077"
         d="m 68.335482,713.31567 140.669908,2.96826"
         style="fill:none;stroke:#000000;stroke-width:1.49545884px;stroke-linecap:butt;stroke-linejoin:miter;stroke-opacity:1" />
      <path
         transform="matrix(0.86218275,0,0,0.86218275,-286.07753,402.93454)"
         d="m 423.25391,362.25681 c 0,10.04205 -8.14069,18.18274 -18.18274,18.18274 -10.04206,0 -18.18275,-8.14069 -18.18275,-18.18274 0,-10.04206 8.14069,-18.18275 18.18275,-18.18275 10.04205,0 18.18274,8.14069 18.18274,18.18275 z"
         sodipodi:ry="18.182745"
         sodipodi:rx="18.182745"
         sodipodi:cy="362.25681"
         sodipodi:cx="405.07117"
         id="path3069"
         style="fill:#ffff00;fill-opacity:1;stroke:#000000;stroke-opacity:1;stroke-width:2.31969381999999991;stroke-miterlimit:4;stroke-dasharray:none"
         sodipodi:type="arc" />
      <path
         sodipodi:nodetypes="cc"
         inkscape:connector-curvature="0"
         id="path3688"
         d="M 202.5805,475.95363 188.4295,704.5263"
         style="fill:none;stroke:#000000;stroke-width:1.49545884px;stroke-linecap:butt;stroke-linejoin:miter;stroke-opacity:1" />
      <path
         style="fill:none;stroke:#000000;stroke-width:1.49545884px;stroke-linecap:butt;stroke-linejoin:miter;stroke-opacity:1"
         d="M 280.54691,761.69108 215.864,713.9185"
         id="path3083"
         inkscape:connector-curvature="0"
         sodipodi:nodetypes="cc" />
      <path
         sodipodi:nodetypes="cc"
         inkscape:connector-curvature="0"
         id="path3658-4"
         d="M 434.03598,839.26712 285.19262,768.80882"
         style="fill:none;stroke:#000000;stroke-width:1.49545884px;stroke-linecap:butt;stroke-linejoin:miter;stroke-opacity:1" />
      <path
         sodipodi:type="arc"
         style="fill:#ffff00;fill-opacity:1;stroke:#000000;stroke-opacity:1;stroke-width:2.31969381999999991;stroke-miterlimit:4;stroke-dasharray:none"
         id="path3065"
         sodipodi:cx="405.07117"
         sodipodi:cy="362.25681"
         sodipodi:rx="18.182745"
         sodipodi:ry="18.182745"
         d="m 423.25391,362.25681 c 0,10.04205 -8.14069,18.18274 -18.18274,18.18274 -10.04206,0 -18.18275,-8.14069 -18.18275,-18.18274 0,-10.04206 8.14069,-18.18275 18.18275,-18.18275 10.04205,0 18.18274,8.14069 18.18274,18.18275 z"
         transform="matrix(0.86218275,0,0,0.86218275,-61.602104,454.20362)" />
      <path
         sodipodi:nodetypes="cc"
         inkscape:connector-curvature="0"
         id="path3085"
         d="M 255.9653,824.0911 215.864,715.30414"
         style="fill:none;stroke:#000000;stroke-width:1.49545884px;stroke-linecap:butt;stroke-linejoin:miter;stroke-opacity:1" />
      <path
         transform="matrix(0.86218275,0,0,0.86218275,-89.315115,513.7866)"
         d="m 423.25391,362.25681 c 0,10.04205 -8.14069,18.18274 -18.18274,18.18274 -10.04206,0 -18.18275,-8.14069 -18.18275,-18.18274 0,-10.04206 8.14069,-18.18275 18.18275,-18.18275 10.04205,0 18.18274,8.14069 18.18274,18.18275 z"
         sodipodi:ry="18.182745"
         sodipodi:rx="18.182745"
         sodipodi:cy="362.25681"
         sodipodi:cx="405.07117"
         id="path3067"
         style="fill:#ffff00;fill-opacity:1;stroke:#000000;stroke-opacity:1;stroke-width:2.31969381999999991;stroke-miterlimit:4;stroke-dasharray:none"
         sodipodi:type="arc" />
      <path
         sodipodi:type="arc"
         style="fill:#ffff00;fill-opacity:1;stroke:#000000;stroke-opacity:1;stroke-width:0.66755154;stroke-miterlimit:4;stroke-dasharray:none"
         id="path3087"
         sodipodi:cx="405.07117"
         sodipodi:cy="362.25681"
         sodipodi:rx="18.182745"
         sodipodi:ry="18.182745"
         d="m 423.25391,362.25681 c 0,10.04205 -8.14069,18.18274 -18.18274,18.18274 -10.04206,0 -18.18275,-8.14069 -18.18275,-18.18274 0,-10.04206 8.14069,-18.18275 18.18275,-18.18275 10.04205,0 18.18274,8.14069 18.18274,18.18275 z"
         transform="matrix(4.494035,0,0,4.494035,-1617.3983,-934.15097)" />
      <path
         sodipodi:nodetypes="cc"
         inkscape:connector-curvature="0"
         id="path3773-9"
         d="M 602.53046,383.82613 394.4901,414.10748"
         style="fill:none;stroke:#000000;stroke-width:1.49545884px;stroke-linecap:butt;stroke-linejoin:miter;stroke-opacity:1" />
      <path
         style="fill:none;stroke:#000000;stroke-width:1.49545884px;stroke-linecap:butt;stroke-linejoin:miter;stroke-opacity:1"
         d="m 608.63183,397.84514 35.81899,117.85491"
         id="path3079-2"
         inkscape:connector-curvature="0"
         sodipodi:nodetypes="cc" />
      <path
         sodipodi:type="arc"
         style="fill:#ffff00;fill-opacity:1;stroke:#000000;stroke-opacity:1;stroke-width:2.31969381999999991;stroke-miterlimit:4;stroke-dasharray:none"
         id="path3071-1"
         sodipodi:cx="405.07117"
         sodipodi:cy="362.25681"
         sodipodi:rx="18.182745"
         sodipodi:ry="18.182745"
         d="m 423.25391,362.25681 c 0,10.04205 -8.14069,18.18274 -18.18274,18.18274 -10.04206,0 -18.18275,-8.14069 -18.18275,-18.18274 0,-10.04206 8.14069,-18.18275 18.18275,-18.18275 10.04205,0 18.18274,8.14069 18.18274,18.18275 z"
         transform="matrix(0.86218275,0,0,0.86218275,257.85453,74.059066)" />
      <path
         sodipodi:nodetypes="cc"
         inkscape:connector-curvature="0"
         id="path3077-7"
         d="m 502.80113,514.69139 140.6699,2.96826"
         style="fill:none;stroke:#000000;stroke-width:1.49545884px;stroke-linecap:butt;stroke-linejoin:miter;stroke-opacity:1" />
      <path
         sodipodi:nodetypes="cc"
         inkscape:connector-curvature="0"
         id="path3658-1"
         d="M 494.64513,519.04877 432.67489,812.24538"
         style="fill:none;stroke:#000000;stroke-width:1.49545884px;stroke-linecap:butt;stroke-linejoin:miter;stroke-opacity:1" />
      <path
         transform="matrix(0.86218275,0,0,0.86218275,148.38809,204.31026)"
         d="m 423.25391,362.25681 c 0,10.04205 -8.14069,18.18274 -18.18274,18.18274 -10.04206,0 -18.18275,-8.14069 -18.18275,-18.18274 0,-10.04206 8.14069,-18.18275 18.18275,-18.18275 10.04205,0 18.18274,8.14069 18.18274,18.18275 z"
         sodipodi:ry="18.182745"
         sodipodi:rx="18.182745"
         sodipodi:cy="362.25681"
         sodipodi:cx="405.07117"
         id="path3069-8"
         style="fill:#ffff00;fill-opacity:1;stroke:#000000;stroke-opacity:1;stroke-width:2.31969381999999991;stroke-miterlimit:4;stroke-dasharray:none"
         sodipodi:type="arc" />
      <path
         sodipodi:nodetypes="cc"
         inkscape:connector-curvature="0"
         id="path3081-5"
         d="M 746.77212,377.06037 651.7153,520.83682"
         style="fill:none;stroke:#000000;stroke-width:1.49545884px;stroke-linecap:butt;stroke-linejoin:miter;stroke-opacity:1" />
      <path
         transform="matrix(0.86218275,0,0,0.86218275,400.46613,59.829739)"
         d="m 423.25391,362.25681 c 0,10.04205 -8.14069,18.18274 -18.18274,18.18274 -10.04206,0 -18.18275,-8.14069 -18.18275,-18.18274 0,-10.04206 8.14069,-18.18275 18.18275,-18.18275 10.04205,0 18.18274,8.14069 18.18274,18.18275 z"
         sodipodi:ry="18.182745"
         sodipodi:rx="18.182745"
         sodipodi:cy="362.25681"
         sodipodi:cx="405.07117"
         id="path3063-3"
         style="fill:#ffff00;fill-opacity:1;stroke:#000000;stroke-opacity:1;stroke-width:2.31969381999999991;stroke-miterlimit:4;stroke-dasharray:none"
         sodipodi:type="arc" />
      <path
         style="fill:none;stroke:#000000;stroke-width:1.49545884px;stroke-linecap:butt;stroke-linejoin:miter;stroke-opacity:1"
         d="M 715.01255,563.0668 650.32964,515.29422"
         id="path3083-4"
         inkscape:connector-curvature="0"
         sodipodi:nodetypes="cc" />
      <path
         sodipodi:nodetypes="cc"
         inkscape:connector-curvature="0"
         id="path3085-0"
         d="M 809.96694,625.46681 662.08729,545.09415"
         style="fill:none;stroke:#000000;stroke-width:1.49545884px;stroke-linecap:butt;stroke-linejoin:miter;stroke-opacity:1" />
      <path
         style="fill:none;stroke:#000000;stroke-width:1.49545884px;stroke-linecap:butt;stroke-linejoin:miter;stroke-opacity:1"
         d="M 1017.7335,635.57162 953.62463,736.5202"
         id="path3747-9"
         inkscape:connector-curvature="0"
         sodipodi:nodetypes="cc" />
      <path
         sodipodi:nodetypes="cc"
         inkscape:connector-curvature="0"
         id="path3745-4"
         d="m 906.03602,637.53122 2.13175,103.02959"
         style="fill:none;stroke:#000000;stroke-width:1.49545884px;stroke-linecap:butt;stroke-linejoin:miter;stroke-opacity:1" />
      <path
         transform="matrix(0.86218275,0,0,0.86218275,665.04088,331.68631)"
         d="m 423.25391,362.25681 c 0,10.04205 -8.14069,18.18274 -18.18274,18.18274 -10.04206,0 -18.18275,-8.14069 -18.18275,-18.18274 0,-10.04206 8.14069,-18.18275 18.18275,-18.18275 10.04205,0 18.18274,8.14069 18.18274,18.18275 z"
         sodipodi:ry="18.182745"
         sodipodi:rx="18.182745"
         sodipodi:cy="362.25681"
         sodipodi:cx="405.07117"
         id="path3069-8-3-1"
         style="fill:#ffff00;fill-opacity:1;stroke:#000000;stroke-opacity:1;stroke-width:2.31969381999999991;stroke-miterlimit:4;stroke-dasharray:none"
         sodipodi:type="arc" />
      <path
         sodipodi:nodetypes="cc"
         inkscape:connector-curvature="0"
         id="path3085-0-0"
         d="M 920.44766,719.97553 804.89289,627.48104"
         style="fill:none;stroke:#000000;stroke-width:1.49545884px;stroke-linecap:butt;stroke-linejoin:miter;stroke-opacity:1" />
      <path
         sodipodi:nodetypes="cc"
         inkscape:connector-curvature="0"
         id="path3081-5-1-9"
         d="m 814.35675,631.97134 -95.54703,45.12813"
         style="fill:none;stroke:#000000;stroke-width:1.49545884px;stroke-linecap:butt;stroke-linejoin:miter;stroke-opacity:1" />
      <path
         transform="matrix(0.86218275,0,0,0.86218275,461.7471,320.06133)"
         d="m 423.25391,362.25681 c 0,10.04205 -8.14069,18.18274 -18.18274,18.18274 -10.04206,0 -18.18275,-8.14069 -18.18275,-18.18274 0,-10.04206 8.14069,-18.18275 18.18275,-18.18275 10.04205,0 18.18274,8.14069 18.18274,18.18275 z"
         sodipodi:ry="18.182745"
         sodipodi:rx="18.182745"
         sodipodi:cy="362.25681"
         sodipodi:cx="405.07117"
         id="path3067-2"
         style="fill:#ffff00;fill-opacity:1;stroke:#000000;stroke-opacity:1;stroke-width:2.31969381999999991;stroke-miterlimit:4;stroke-dasharray:none"
         sodipodi:type="arc" />
      <path
         sodipodi:type="arc"
         style="fill:#ffff00;fill-opacity:1;stroke:#000000;stroke-opacity:1;stroke-width:0.82131156;stroke-miterlimit:4;stroke-dasharray:none"
         id="path3087-0"
         sodipodi:cx="405.07117"
         sodipodi:cy="362.25681"
         sodipodi:rx="18.182745"
         sodipodi:ry="18.182745"
         d="m 423.25391,362.25681 c 0,10.04205 -8.14069,18.18274 -18.18274,18.18274 -10.04206,0 -18.18275,-8.14069 -18.18275,-18.18274 0,-10.04206 8.14069,-18.18275 18.18275,-18.18275 10.04205,0 18.18274,8.14069 18.18274,18.18275 z"
         transform="matrix(3.7942227,0,0,3.5164449,-856.31283,-752.338)" />
      <text
         xml:space="preserve"
         style="font-size:23.89825629999999990px;font-style:normal;font-variant:normal;font-weight:bold;font-stretch:normal;text-align:start;line-height:125%;letter-spacing:0px;word-spacing:0px;writing-mode:lr-tb;text-anchor:start;fill:#ffffff;fill-opacity:1;stroke:#000000;font-family:DejaVu Sans;-inkscape-font-specification:Sans Bold;stroke-opacity:1;stroke-width:2.00000001;stroke-miterlimit:4;stroke-dasharray:none"
         x="198.73906"
         y="709.72852"
         id="text3633"
         sodipodi:linespacing="125%"
         transform="scale(1.0266043,0.97408514)"><tspan
           sodipodi:role="line"
           id="tspan3635"
           x="198.73906"
           y="709.72852"
           style="font-style:normal;font-variant:normal;font-weight:bold;font-stretch:normal;text-align:center;text-anchor:middle;fill:#ffffff;font-family:Blacksmith;-inkscape-font-specification:Blacksmith Bold;stroke:#000000;stroke-opacity:1;stroke-width:2.00000001;stroke-miterlimit:4;stroke-dasharray:none">Haushalts-</tspan><tspan
           sodipodi:role="line"
           x="198.73906"
           y="739.60132"
           style="font-style:normal;font-variant:normal;font-weight:bold;font-stretch:normal;text-align:center;text-anchor:middle;fill:#ffffff;font-family:Blacksmith;-inkscape-font-specification:Blacksmith Bold;stroke:#000000;stroke-opacity:1;stroke-width:2.00000001;stroke-miterlimit:4;stroke-dasharray:none"
           id="tspan3156">daten</tspan></text>
      <text
         xml:space="preserve"
         style="font-size:23.27893638999999837px;font-style:normal;font-variant:normal;font-weight:bold;font-stretch:normal;text-align:start;line-height:125%;letter-spacing:0px;word-spacing:0px;writing-mode:lr-tb;text-anchor:start;fill:#ffffff;fill-opacity:1;stroke:#000000;font-family:DejaVu Sans;-inkscape-font-specification:Sans Bold;stroke-opacity:1;stroke-width:2;stroke-miterlimit:4;stroke-dasharray:none"
         x="632.31537"
         y="531.58337"
         id="text3633-7"
         sodipodi:linespacing="125%"><tspan
           sodipodi:role="line"
           id="tspan3635-2"
           x="632.31537"
           y="531.58337"
           style="font-style:normal;font-variant:normal;font-weight:bold;font-stretch:normal;fill:#ffffff;font-family:Blacksmith;-inkscape-font-specification:Blacksmith Bold;stroke:#000000;stroke-opacity:1;stroke-width:2;stroke-miterlimit:4;stroke-dasharray:none">Politiker</tspan></text>
      <path
         style="fill:none;stroke:#000000;stroke-width:1.49545884px;stroke-linecap:butt;stroke-linejoin:miter;stroke-opacity:1"
         d="M 274.09416,350.7885 209.9852,451.73708"
         id="path3747"
         inkscape:connector-curvature="0"
         sodipodi:nodetypes="cc" />
      <path
         style="fill:none;stroke:#000000;stroke-width:1.49545884px;stroke-linecap:butt;stroke-linejoin:miter;stroke-opacity:1"
         d="m 94.790169,439.95059 140.669901,2.96825"
         id="path3743"
         inkscape:connector-curvature="0"
         sodipodi:nodetypes="cc" />
      <path
         sodipodi:nodetypes="cc"
         inkscape:connector-curvature="0"
         id="path3745"
         d="m 162.39659,352.7481 47.58861,98.98898"
         style="fill:none;stroke:#000000;stroke-width:1.49545884px;stroke-linecap:butt;stroke-linejoin:miter;stroke-opacity:1" />
      <path
         sodipodi:nodetypes="cc"
         inkscape:connector-curvature="0"
         id="path3773"
         d="M 388.73113,417.41512 209.9852,451.73708"
         style="fill:none;stroke:#000000;stroke-width:1.49545884px;stroke-linecap:butt;stroke-linejoin:miter;stroke-opacity:1" />
      <path
         sodipodi:type="arc"
         style="fill:#ffff00;fill-opacity:1;stroke:#000000;stroke-opacity:1;stroke-width:1.04061027;stroke-miterlimit:4;stroke-dasharray:none"
         id="path3087-1"
         sodipodi:cx="405.07117"
         sodipodi:cy="362.25681"
         sodipodi:rx="18.182745"
         sodipodi:ry="18.182745"
         d="m 423.25391,362.25681 c 0,10.04205 -8.14069,18.18274 -18.18274,18.18274 -10.04206,0 -18.18275,-8.14069 -18.18275,-18.18274 0,-10.04206 8.14069,-18.18275 18.18275,-18.18275 10.04205,0 18.18274,8.14069 18.18274,18.18275 z"
         transform="matrix(2.8829237,0,0,2.8829237,-958.65757,-592.28545)" />
      <text
         xml:space="preserve"
         style="font-size:23.27893638999999837px;font-style:normal;font-variant:normal;font-weight:bold;font-stretch:normal;text-align:start;line-height:125%;letter-spacing:0px;word-spacing:0px;writing-mode:lr-tb;text-anchor:start;fill:#ffffff;fill-opacity:1;stroke:#000000;font-family:DejaVu Sans;-inkscape-font-specification:Sans Bold;stroke-opacity:1;stroke-width:2;stroke-miterlimit:4;stroke-dasharray:none"
         x="170.42947"
         y="457.79843"
         id="text3633-3"
         sodipodi:linespacing="125%"><tspan
           sodipodi:role="line"
           id="tspan3635-4"
           x="170.42947"
           y="457.79843"
           style="font-style:normal;font-variant:normal;font-weight:bold;font-stretch:normal;fill:#ffffff;font-family:Blacksmith;-inkscape-font-specification:Blacksmith Bold;stroke:#000000;stroke-opacity:1;stroke-width:2;stroke-miterlimit:4;stroke-dasharray:none">Städte</tspan></text>
      <path
         transform="matrix(0.86218275,0,0,0.86218275,-71.527467,38.821973)"
         d="m 423.25391,362.25681 c 0,10.04205 -8.14069,18.18274 -18.18274,18.18274 -10.04206,0 -18.18275,-8.14069 -18.18275,-18.18274 0,-10.04206 8.14069,-18.18275 18.18275,-18.18275 10.04205,0 18.18274,8.14069 18.18274,18.18275 z"
         sodipodi:ry="18.182745"
         sodipodi:rx="18.182745"
         sodipodi:cy="362.25681"
         sodipodi:cx="405.07117"
         id="path3069-8-3"
         style="fill:#ffff00;fill-opacity:1;stroke:#000000;stroke-opacity:1;stroke-width:2.31969381999999991;stroke-miterlimit:4;stroke-dasharray:none"
         sodipodi:type="arc" />
      <path
         transform="matrix(0.86218275,0,0,0.86218275,-190.91169,34.811725)"
         d="m 423.25391,362.25681 c 0,10.04205 -8.14069,18.18274 -18.18274,18.18274 -10.04206,0 -18.18275,-8.14069 -18.18275,-18.18274 0,-10.04206 8.14069,-18.18275 18.18275,-18.18275 10.04205,0 18.18274,8.14069 18.18274,18.18275 z"
         sodipodi:ry="18.182745"
         sodipodi:rx="18.182745"
         sodipodi:cy="362.25681"
         sodipodi:cx="405.07117"
         id="path3069-8-5"
         style="fill:#ffff00;fill-opacity:1;stroke:#000000;stroke-opacity:1;stroke-width:2.31969381999999991;stroke-miterlimit:4;stroke-dasharray:none"
         sodipodi:type="arc"
         inkscape:transform-center-x="15.676849"
         inkscape:transform-center-y="10.101525" />
      <path
         transform="matrix(0.86218275,0,0,0.86218275,-255.73044,125.04467)"
         d="m 423.25391,362.25681 c 0,10.04205 -8.14069,18.18274 -18.18274,18.18274 -10.04206,0 -18.18275,-8.14069 -18.18275,-18.18274 0,-10.04206 8.14069,-18.18275 18.18275,-18.18275 10.04205,0 18.18274,8.14069 18.18274,18.18275 z"
         sodipodi:ry="18.182745"
         sodipodi:rx="18.182745"
         sodipodi:cy="362.25681"
         sodipodi:cx="405.07117"
         id="path3069-8-1"
         style="fill:#ffff00;fill-opacity:1;stroke:#000000;stroke-opacity:1;stroke-width:2.31969381999999991;stroke-miterlimit:4;stroke-dasharray:none"
         sodipodi:type="arc" />
      <path
         sodipodi:type="arc"
         style="fill:#ffff00;fill-opacity:1;stroke:#000000;stroke-opacity:1;stroke-width:2.31969381999999991;stroke-miterlimit:4;stroke-dasharray:none"
         id="path3798"
         sodipodi:cx="405.07117"
         sodipodi:cy="362.25681"
         sodipodi:rx="18.182745"
         sodipodi:ry="18.182745"
         d="m 423.25391,362.25681 c 0,10.04205 -8.14069,18.18274 -18.18274,18.18274 -10.04206,0 -18.18275,-8.14069 -18.18275,-18.18274 0,-10.04206 8.14069,-18.18275 18.18275,-18.18275 10.04205,0 18.18274,8.14069 18.18274,18.18275 z"
         transform="matrix(0.86218275,0,0,0.86218275,42.168676,102.81716)" />
      <path
         sodipodi:type="arc"
         style="fill:#ffff00;fill-opacity:1;stroke:#000000;stroke-opacity:1;stroke-width:0.94915638;stroke-miterlimit:4;stroke-dasharray:none"
         id="path3087-1-4"
         sodipodi:cx="405.07117"
         sodipodi:cy="362.25681"
         sodipodi:rx="18.182745"
         sodipodi:ry="18.182745"
         d="m 423.25391,362.25681 c 0,10.04205 -8.14069,18.18274 -18.18274,18.18274 -10.04206,0 -18.18275,-8.14069 -18.18275,-18.18274 0,-10.04206 8.14069,-18.18275 18.18275,-18.18275 10.04205,0 18.18274,8.14069 18.18274,18.18275 z"
         transform="matrix(3.1607015,0,0,3.1607015,-855.87207,-291.64762)" />
      <text
         xml:space="preserve"
         style="font-size:23.27893638999999837px;font-style:normal;font-variant:normal;font-weight:bold;font-stretch:normal;text-align:start;line-height:125%;letter-spacing:0px;word-spacing:0px;writing-mode:lr-tb;text-anchor:start;fill:#ffffff;fill-opacity:1;stroke:#000000;font-family:DejaVu Sans;-inkscape-font-specification:Sans Bold;stroke-opacity:1;stroke-width:2;stroke-miterlimit:4;stroke-dasharray:none"
         x="376.55231"
         y="864.05316"
         id="text3633-3-9"
         sodipodi:linespacing="125%"><tspan
           sodipodi:role="line"
           id="tspan3635-4-0"
           x="376.55231"
           y="864.05316"
           style="font-style:normal;font-variant:normal;font-weight:bold;font-stretch:normal;fill:#ffffff;font-family:Blacksmith;-inkscape-font-specification:Blacksmith Bold;stroke:#000000;stroke-opacity:1;stroke-width:2;stroke-miterlimit:4;stroke-dasharray:none">Gesetze</tspan></text>
      <path
         style="fill:none;stroke:#000000;stroke-width:1.49545884px;stroke-linecap:butt;stroke-linejoin:miter;stroke-opacity:1"
         d="m 580.66657,699.606 35.81899,117.85491"
         id="path3079-2-0"
         inkscape:connector-curvature="0"
         sodipodi:nodetypes="cc" />
      <path
         sodipodi:type="arc"
         style="fill:#ffff00;fill-opacity:1;stroke:#000000;stroke-opacity:1;stroke-width:2.31969381999999991;stroke-miterlimit:4;stroke-dasharray:none"
         id="path3071-1-5"
         sodipodi:cx="405.07117"
         sodipodi:cy="362.25681"
         sodipodi:rx="18.182745"
         sodipodi:ry="18.182745"
         d="m 423.25391,362.25681 c 0,10.04205 -8.14069,18.18274 -18.18274,18.18274 -10.04206,0 -18.18275,-8.14069 -18.18275,-18.18274 0,-10.04206 8.14069,-18.18275 18.18275,-18.18275 10.04205,0 18.18274,8.14069 18.18274,18.18275 z"
         transform="matrix(0.86218275,0,0,0.86218275,229.88927,375.81993)" />
      <path
         sodipodi:nodetypes="cc"
         inkscape:connector-curvature="0"
         id="path3081-5-1"
         d="M 718.80686,678.82123 623.75004,822.59768"
         style="fill:none;stroke:#000000;stroke-width:1.49545884px;stroke-linecap:butt;stroke-linejoin:miter;stroke-opacity:1" />
      <path
         transform="matrix(0.86218275,0,0,0.86218275,372.50087,361.59061)"
         d="m 423.25391,362.25681 c 0,10.04205 -8.14069,18.18274 -18.18274,18.18274 -10.04206,0 -18.18275,-8.14069 -18.18275,-18.18274 0,-10.04206 8.14069,-18.18275 18.18275,-18.18275 10.04205,0 18.18274,8.14069 18.18274,18.18275 z"
         sodipodi:ry="18.182745"
         sodipodi:rx="18.182745"
         sodipodi:cy="362.25681"
         sodipodi:cx="405.07117"
         id="path3063-3-5"
         style="fill:#ffff00;fill-opacity:1;stroke:#000000;stroke-opacity:1;stroke-width:2.31969381999999991;stroke-miterlimit:4;stroke-dasharray:none"
         sodipodi:type="arc" />
      <path
         style="fill:none;stroke:#000000;stroke-width:1.49545884px;stroke-linecap:butt;stroke-linejoin:miter;stroke-opacity:1"
         d="M 687.04729,864.82766 622.36438,817.05508"
         id="path3083-4-4"
         inkscape:connector-curvature="0"
         sodipodi:nodetypes="cc" />
      <path
         sodipodi:nodetypes="cc"
         inkscape:connector-curvature="0"
         id="path3085-0-8"
         d="M 782.00168,927.22767 634.12203,846.85501"
         style="fill:none;stroke:#000000;stroke-width:1.49545884px;stroke-linecap:butt;stroke-linejoin:miter;stroke-opacity:1" />
      <path
         sodipodi:nodetypes="cc"
         inkscape:connector-curvature="0"
         id="path3085-0-8-6"
         d="M 876.00094,818.97049 785.69999,932.54712"
         style="fill:none;stroke:#000000;stroke-width:1.49545884px;stroke-linecap:butt;stroke-linejoin:miter;stroke-opacity:1" />
      <path
         transform="matrix(0.86218275,0,0,0.86218275,433.78184,621.82219)"
         d="m 423.25391,362.25681 c 0,10.04205 -8.14069,18.18274 -18.18274,18.18274 -10.04206,0 -18.18275,-8.14069 -18.18275,-18.18274 0,-10.04206 8.14069,-18.18275 18.18275,-18.18275 10.04205,0 18.18274,8.14069 18.18274,18.18275 z"
         sodipodi:ry="18.182745"
         sodipodi:rx="18.182745"
         sodipodi:cy="362.25681"
         sodipodi:cx="405.07117"
         id="path3067-2-0"
         style="fill:#ffff00;fill-opacity:1;stroke:#000000;stroke-opacity:1;stroke-width:2.31969381999999991;stroke-miterlimit:4;stroke-dasharray:none"
         sodipodi:type="arc" />
      <path
         sodipodi:type="arc"
         style="fill:#ffff00;fill-opacity:1;stroke:#000000;stroke-opacity:1;stroke-width:0.61858498;stroke-miterlimit:4;stroke-dasharray:none"
         id="path3087-0-9"
         sodipodi:cx="405.07117"
         sodipodi:cy="362.25681"
         sodipodi:rx="18.182745"
         sodipodi:ry="18.182745"
         d="m 423.25391,362.25681 c 0,10.04205 -8.14069,18.18274 -18.18274,18.18274 -10.04206,0 -18.18275,-8.14069 -18.18275,-18.18274 0,-10.04206 8.14069,-18.18275 18.18275,-18.18275 10.04205,0 18.18274,8.14069 18.18274,18.18275 z"
         transform="matrix(4.8497783,0,0,4.8497783,-1304.7822,-931.56589)" />
      <text
         xml:space="preserve"
         style="font-size:23.27893638999999837px;font-style:normal;font-variant:normal;font-weight:bold;font-stretch:normal;text-align:start;line-height:125%;letter-spacing:0px;word-spacing:0px;writing-mode:lr-tb;text-anchor:start;fill:#ffffff;fill-opacity:1;stroke:#000000;font-family:DejaVu Sans;-inkscape-font-specification:Sans Bold;stroke-opacity:1;stroke-width:2;stroke-miterlimit:4;stroke-dasharray:none"
         x="577.07599"
         y="835.36456"
         id="text3633-7-0"
         sodipodi:linespacing="125%"><tspan
           sodipodi:role="line"
           id="tspan3635-2-6"
           x="577.07599"
           y="835.36456"
           style="font-style:normal;font-variant:normal;font-weight:bold;font-stretch:normal;fill:#ffffff;font-family:Blacksmith;-inkscape-font-specification:Blacksmith Bold;stroke:#000000;stroke-opacity:1;stroke-width:2;stroke-miterlimit:4;stroke-dasharray:none">Unternehmen</tspan></text>
      <path
         transform="matrix(0.86218275,0,0,0.86218275,552.72775,319.59484)"
         d="m 423.25391,362.25681 c 0,10.04205 -8.14069,18.18274 -18.18274,18.18274 -10.04206,0 -18.18275,-8.14069 -18.18275,-18.18274 0,-10.04206 8.14069,-18.18275 18.18275,-18.18275 10.04205,0 18.18274,8.14069 18.18274,18.18275 z"
         sodipodi:ry="18.182745"
         sodipodi:rx="18.182745"
         sodipodi:cy="362.25681"
         sodipodi:cx="405.07117"
         id="path3069-8-5-6"
         style="fill:#ffff00;fill-opacity:1;stroke:#000000;stroke-opacity:1;stroke-width:2.31969381999999991;stroke-miterlimit:4;stroke-dasharray:none"
         sodipodi:type="arc"
         inkscape:transform-center-x="15.676849"
         inkscape:transform-center-y="10.101525" />
      <path
         sodipodi:type="arc"
         style="fill:#ffff00;fill-opacity:1;stroke:#000000;stroke-opacity:1;stroke-width:0.61858498;stroke-miterlimit:4;stroke-dasharray:none"
         id="path3087-0-7"
         sodipodi:cx="405.07117"
         sodipodi:cy="362.25681"
         sodipodi:rx="18.182745"
         sodipodi:ry="18.182745"
         d="m 423.25391,362.25681 c 0,10.04205 -8.14069,18.18274 -18.18274,18.18274 -10.04206,0 -18.18275,-8.14069 -18.18275,-18.18274 0,-10.04206 8.14069,-18.18275 18.18275,-18.18275 10.04205,0 18.18274,8.14069 18.18274,18.18275 z"
         transform="matrix(4.8497783,0,0,4.8497783,-1050.3173,-994.24347)" />
      <text
         xml:space="preserve"
         style="font-size:23.27893638999999837px;font-style:normal;font-variant:normal;font-weight:bold;font-stretch:normal;text-align:start;line-height:125%;letter-spacing:0px;word-spacing:0px;writing-mode:lr-tb;text-anchor:start;fill:#ffffff;fill-opacity:1;stroke:#000000;font-family:DejaVu Sans;-inkscape-font-specification:Sans Bold;stroke-opacity:1;stroke-width:2;stroke-miterlimit:4;stroke-dasharray:none"
         x="860.14252"
         y="774.52533"
         id="text3633-7-4"
         sodipodi:linespacing="125%"><tspan
           sodipodi:role="line"
           id="tspan3635-2-0"
           x="860.14252"
           y="774.52533"
           style="font-style:normal;font-variant:normal;font-weight:bold;font-stretch:normal;fill:#ffffff;font-family:Blacksmith;-inkscape-font-specification:Blacksmith Bold;stroke:#000000;stroke-opacity:1;stroke-width:2;stroke-miterlimit:4;stroke-dasharray:none">Parteien</tspan></text>
      <path
         transform="matrix(0.86218275,0,0,0.86218275,110.37403,378.56931)"
         d="m 423.25391,362.25681 c 0,10.04205 -8.14069,18.18274 -18.18274,18.18274 -10.04206,0 -18.18275,-8.14069 -18.18275,-18.18274 0,-10.04206 8.14069,-18.18275 18.18275,-18.18275 10.04205,0 18.18274,8.14069 18.18274,18.18275 z"
         sodipodi:ry="18.182745"
         sodipodi:rx="18.182745"
         sodipodi:cy="362.25681"
         sodipodi:cx="405.07117"
         id="path3069-8-2"
         style="fill:#ffff00;fill-opacity:1;stroke:#000000;stroke-opacity:1;stroke-width:2.31969381999999991;stroke-miterlimit:4;stroke-dasharray:none"
         sodipodi:type="arc" />
    </g>
  </g>
</svg>
