<?xml version="1.0" encoding="UTF-8" standalone="no"?>
<!-- Created with Inkscape (http://www.inkscape.org/) -->

<svg
   xmlns:dc="http://purl.org/dc/elements/1.1/"
   xmlns:cc="http://creativecommons.org/ns#"
   xmlns:rdf="http://www.w3.org/1999/02/22-rdf-syntax-ns#"
   xmlns:svg="http://www.w3.org/2000/svg"
   xmlns="http://www.w3.org/2000/svg"
   xmlns:sodipodi="http://sodipodi.sourceforge.net/DTD/sodipodi-0.dtd"
   xmlns:inkscape="http://www.inkscape.org/namespaces/inkscape"
   width="1052.3622"
   height="744.09448"
   id="svg2"
   version="1.1"
   inkscape:version="0.48.2 r9819"
   sodipodi:docname="rdfgraph.svg"

   inkscape:export-xdpi="100"
   inkscape:export-ydpi="100">
  <defs
     id="defs4" />
  <sodipodi:namedview
     id="base"
     pagecolor="#ffffff"
     bordercolor="#666666"
     borderopacity="1.0"
     inkscape:pageopacity="0.0"
     inkscape:pageshadow="2"
     inkscape:zoom="0.98994949"
     inkscape:cx="270.12986"
     inkscape:cy="370.08166"
     inkscape:document-units="px"
     inkscape:current-layer="g3061"
     showgrid="false"
     inkscape:window-width="1862"
     inkscape:window-height="1056"
     inkscape:window-x="58"
     inkscape:window-y="24"
     inkscape:window-maximized="1" />
  <metadata
     id="metadata7">
    <rdf:RDF>
      <cc:Work
         rdf:about="">
        <dc:format>image/svg+xml</dc:format>
        <dc:type
           rdf:resource="http://purl.org/dc/dcmitype/StillImage" />
        <dc:title></dc:title>
      </cc:Work>
    </rdf:RDF>
  </metadata>
  <g
     inkscape:label="Ebene 1"
     inkscape:groupmode="layer"
     id="layer1"
     transform="translate(0,-308.2677)">
    <g
       id="g3061"
       transform="translate(-29.29442,59.425686)">
      <path
         style="fill:none;stroke:#000000;stroke-width:1.49545884px;stroke-linecap:butt;stroke-linejoin:miter;stroke-opacity:1"
         d="M 282.92435,589.61081 188.4295,704.5263"
         id="path3079"
         inkscape:connector-curvature="0"
         sodipodi:nodetypes="cc" />
      <path
         sodipodi:type="arc"
         style="fill:#ffff00;fill-opacity:1;stroke:#000000;stroke-opacity:1;stroke-width:2.31969381999999991;stroke-miterlimit:4;stroke-dasharray:none"
         id="path3071"
         sodipodi:cx="405.07117"
         sodipodi:cy="362.25681"
         sodipodi:rx="18.182745"
         sodipodi:ry="18.182745"
         d="m 423.25391,362.25681 c 0,10.04205 -8.14069,18.18274 -18.18274,18.18274 -10.04206,0 -18.18275,-8.14069 -18.18275,-18.18274 0,-10.04206 8.14069,-18.18275 18.18275,-18.18275 10.04205,0 18.18274,8.14069 18.18274,18.18275 z"
         transform="matrix(0.86218275,0,0,0.86218275,-61.97416,275.62276)" />
      <path
         style="fill:none;stroke:#000000;stroke-width:1.49545884px;stroke-linecap:butt;stroke-linejoin:miter;stroke-opacity:1"
         d="M 147.78112,807.30715 211.9448,723.14256"
         id="path3073"
         inkscape:connector-curvature="0"
         sodipodi:nodetypes="cc" />
      <path
         sodipodi:type="arc"
         style="fill:#ffff00;fill-opacity:1;stroke:#000000;stroke-opacity:1;stroke-width:2.31969381999999991;stroke-miterlimit:4;stroke-dasharray:none"
         id="path3075"
         sodipodi:cx="405.07117"
         sodipodi:cy="362.25681"
         sodipodi:rx="18.182745"
         sodipodi:ry="18.182745"
         d="m 423.25391,362.25681 c 0,10.04205 -8.14069,18.18274 -18.18274,18.18274 -10.04206,0 -18.18275,-8.14069 -18.18275,-18.18274 0,-10.04206 8.14069,-18.18275 18.18275,-18.18275 10.04205,0 18.18274,8.14069 18.18274,18.18275 z"
         transform="matrix(0.86218275,0,0,0.86218275,-207.09545,501.31574)" />
      <path
         sodipodi:nodetypes="cc"
         inkscape:connector-curvature="0"
         id="path3077"
         d="m 68.335482,713.31567 140.669908,2.96826"
         style="fill:none;stroke:#000000;stroke-width:1.49545884px;stroke-linecap:butt;stroke-linejoin:miter;stroke-opacity:1" />
      <path
         transform="matrix(0.86218275,0,0,0.86218275,-286.07753,402.93454)"
         d="m 423.25391,362.25681 c 0,10.04205 -8.14069,18.18274 -18.18274,18.18274 -10.04206,0 -18.18275,-8.14069 -18.18275,-18.18274 0,-10.04206 8.14069,-18.18275 18.18275,-18.18275 10.04205,0 18.18274,8.14069 18.18274,18.18275 z"
         sodipodi:ry="18.182745"
         sodipodi:rx="18.182745"
         sodipodi:cy="362.25681"
         sodipodi:cx="405.07117"
         id="path3069"
         style="fill:#ffff00;fill-opacity:1;stroke:#000000;stroke-opacity:1;stroke-width:2.31969381999999991;stroke-miterlimit:4;stroke-dasharray:none"
         sodipodi:type="arc" />
      <path
         sodipodi:nodetypes="cc"
         inkscape:connector-curvature="0"
         id="path3688"
         d="M 202.5805,475.95363 188.4295,704.5263"
         style="fill:none;stroke:#000000;stroke-width:1.49545884px;stroke-linecap:butt;stroke-linejoin:miter;stroke-opacity:1" />
      <path
         sodipodi:nodetypes="cc"
         inkscape:connector-curvature="0"
         id="path3658"
         d="M 605.84156,553.97281 215.864,713.9185"
         style="fill:none;stroke:#000000;stroke-width:1.49545884px;stroke-linecap:butt;stroke-linejoin:miter;stroke-opacity:1" />
      <path
         style="fill:none;stroke:#000000;stroke-width:1.49545884px;stroke-linecap:butt;stroke-linejoin:miter;stroke-opacity:1"
         d="M 280.54691,761.69108 215.864,713.9185"
         id="path3083"
         inkscape:connector-curvature="0"
         sodipodi:nodetypes="cc" />
      <path
         sodipodi:type="arc"
         style="fill:#ffff00;fill-opacity:1;stroke:#000000;stroke-opacity:1;stroke-width:2.31969381999999991;stroke-miterlimit:4;stroke-dasharray:none"
         id="path3065"
         sodipodi:cx="405.07117"
         sodipodi:cy="362.25681"
         sodipodi:rx="18.182745"
         sodipodi:ry="18.182745"
         d="m 423.25391,362.25681 c 0,10.04205 -8.14069,18.18274 -18.18274,18.18274 -10.04206,0 -18.18275,-8.14069 -18.18275,-18.18274 0,-10.04206 8.14069,-18.18275 18.18275,-18.18275 10.04205,0 18.18274,8.14069 18.18274,18.18275 z"
         transform="matrix(0.86218275,0,0,0.86218275,-61.602104,454.20362)" />
      <path
         sodipodi:nodetypes="cc"
         inkscape:connector-curvature="0"
         id="path3085"
         d="M 255.9653,824.0911 215.864,715.30414"
         style="fill:none;stroke:#000000;stroke-width:1.49545884px;stroke-linecap:butt;stroke-linejoin:miter;stroke-opacity:1" />
      <path
         transform="matrix(0.86218275,0,0,0.86218275,-89.315115,513.7866)"
         d="m 423.25391,362.25681 c 0,10.04205 -8.14069,18.18274 -18.18274,18.18274 -10.04206,0 -18.18275,-8.14069 -18.18275,-18.18274 0,-10.04206 8.14069,-18.18275 18.18275,-18.18275 10.04205,0 18.18274,8.14069 18.18274,18.18275 z"
         sodipodi:ry="18.182745"
         sodipodi:rx="18.182745"
         sodipodi:cy="362.25681"
         sodipodi:cx="405.07117"
         id="path3067"
         style="fill:#ffff00;fill-opacity:1;stroke:#000000;stroke-opacity:1;stroke-width:2.31969381999999991;stroke-miterlimit:4;stroke-dasharray:none"
         sodipodi:type="arc" />
      <path
         sodipodi:type="arc"
         style="fill:#ffff00;fill-opacity:1;stroke:#000000;stroke-opacity:1;stroke-width:1.04061026999999995;stroke-miterlimit:4;stroke-dasharray:none"
         id="path3087"
         sodipodi:cx="405.07117"
         sodipodi:cy="362.25681"
         sodipodi:rx="18.182745"
         sodipodi:ry="18.182745"
         d="m 423.25391,362.25681 c 0,10.04205 -8.14069,18.18274 -18.18274,18.18274 -10.04206,0 -18.18275,-8.14069 -18.18275,-18.18274 0,-10.04206 8.14069,-18.18275 18.18275,-18.18275 10.04205,0 18.18274,8.14069 18.18274,18.18275 z"
         transform="matrix(2.8829237,0,0,2.8829237,-972.86474,-337.383)" />
      <path
         style="fill:none;stroke:#000000;stroke-width:1.49545884px;stroke-linecap:butt;stroke-linejoin:miter;stroke-opacity:1"
         d="m 608.63183,397.84514 35.81899,117.85491"
         id="path3079-2"
         inkscape:connector-curvature="0"
         sodipodi:nodetypes="cc" />
      <path
         sodipodi:type="arc"
         style="fill:#ffff00;fill-opacity:1;stroke:#000000;stroke-opacity:1;stroke-width:2.31969381999999991;stroke-miterlimit:4;stroke-dasharray:none"
         id="path3071-1"
         sodipodi:cx="405.07117"
         sodipodi:cy="362.25681"
         sodipodi:rx="18.182745"
         sodipodi:ry="18.182745"
         d="m 423.25391,362.25681 c 0,10.04205 -8.14069,18.18274 -18.18274,18.18274 -10.04206,0 -18.18275,-8.14069 -18.18275,-18.18274 0,-10.04206 8.14069,-18.18275 18.18275,-18.18275 10.04205,0 18.18274,8.14069 18.18274,18.18275 z"
         transform="matrix(0.86218275,0,0,0.86218275,257.85453,74.059066)" />
      <path
         sodipodi:nodetypes="cc"
         inkscape:connector-curvature="0"
         id="path3077-7"
         d="m 502.80113,514.69139 140.6699,2.96826"
         style="fill:none;stroke:#000000;stroke-width:1.49545884px;stroke-linecap:butt;stroke-linejoin:miter;stroke-opacity:1" />
      <path
         transform="matrix(0.86218275,0,0,0.86218275,148.38809,204.31026)"
         d="m 423.25391,362.25681 c 0,10.04205 -8.14069,18.18274 -18.18274,18.18274 -10.04206,0 -18.18275,-8.14069 -18.18275,-18.18274 0,-10.04206 8.14069,-18.18275 18.18275,-18.18275 10.04205,0 18.18274,8.14069 18.18274,18.18275 z"
         sodipodi:ry="18.182745"
         sodipodi:rx="18.182745"
         sodipodi:cy="362.25681"
         sodipodi:cx="405.07117"
         id="path3069-8"
         style="fill:#ffff00;fill-opacity:1;stroke:#000000;stroke-opacity:1;stroke-width:2.31969381999999991;stroke-miterlimit:4;stroke-dasharray:none"
         sodipodi:type="arc" />
      <path
         sodipodi:nodetypes="cc"
         inkscape:connector-curvature="0"
         id="path3081-5"
         d="M 746.77212,377.06037 651.7153,520.83682"
         style="fill:none;stroke:#000000;stroke-width:1.49545884px;stroke-linecap:butt;stroke-linejoin:miter;stroke-opacity:1" />
      <path
         transform="matrix(0.86218275,0,0,0.86218275,400.46613,59.829739)"
         d="m 423.25391,362.25681 c 0,10.04205 -8.14069,18.18274 -18.18274,18.18274 -10.04206,0 -18.18275,-8.14069 -18.18275,-18.18274 0,-10.04206 8.14069,-18.18275 18.18275,-18.18275 10.04205,0 18.18274,8.14069 18.18274,18.18275 z"
         sodipodi:ry="18.182745"
         sodipodi:rx="18.182745"
         sodipodi:cy="362.25681"
         sodipodi:cx="405.07117"
         id="path3063-3"
         style="fill:#ffff00;fill-opacity:1;stroke:#000000;stroke-opacity:1;stroke-width:2.31969381999999991;stroke-miterlimit:4;stroke-dasharray:none"
         sodipodi:type="arc" />
      <path
         style="fill:none;stroke:#000000;stroke-width:1.49545884px;stroke-linecap:butt;stroke-linejoin:miter;stroke-opacity:1"
         d="M 715.01255,563.0668 650.32964,515.29422"
         id="path3083-4"
         inkscape:connector-curvature="0"
         sodipodi:nodetypes="cc" />
      <path
         sodipodi:nodetypes="cc"
         inkscape:connector-curvature="0"
         id="path3085-0"
         d="M 809.96694,625.46681 662.08729,545.09415"
         style="fill:none;stroke:#000000;stroke-width:1.49545884px;stroke-linecap:butt;stroke-linejoin:miter;stroke-opacity:1" />
      <path
         transform="matrix(0.86218275,0,0,0.86218275,461.7471,320.06133)"
         d="m 423.25391,362.25681 c 0,10.04205 -8.14069,18.18274 -18.18274,18.18274 -10.04206,0 -18.18275,-8.14069 -18.18275,-18.18274 0,-10.04206 8.14069,-18.18275 18.18275,-18.18275 10.04205,0 18.18274,8.14069 18.18274,18.18275 z"
         sodipodi:ry="18.182745"
         sodipodi:rx="18.182745"
         sodipodi:cy="362.25681"
         sodipodi:cx="405.07117"
         id="path3067-2"
         style="fill:#ffff00;fill-opacity:1;stroke:#000000;stroke-opacity:1;stroke-width:2.31969381999999991;stroke-miterlimit:4;stroke-dasharray:none"
         sodipodi:type="arc" />
      <path
         sodipodi:type="arc"
         style="fill:#ffff00;fill-opacity:1;stroke:#000000;stroke-opacity:1;stroke-width:0.61858497999999995;stroke-miterlimit:4;stroke-dasharray:none"
         id="path3087-0"
         sodipodi:cx="405.07117"
         sodipodi:cy="362.25681"
         sodipodi:rx="18.182745"
         sodipodi:ry="18.182745"
         d="m 423.25391,362.25681 c 0,10.04205 -8.14069,18.18274 -18.18274,18.18274 -10.04206,0 -18.18275,-8.14069 -18.18275,-18.18274 0,-10.04206 8.14069,-18.18275 18.18275,-18.18275 10.04205,0 18.18274,8.14069 18.18274,18.18275 z"
         transform="matrix(4.8497783,0,0,4.8497783,-1276.8169,-1233.3268)" />
      <text
         xml:space="preserve"
         style="font-size:23.27893638999999837px;font-style:normal;font-variant:normal;font-weight:bold;font-stretch:normal;text-align:start;line-height:125%;letter-spacing:0px;word-spacing:0px;writing-mode:lr-tb;text-anchor:start;fill:#ffffff;fill-opacity:1;stroke:#000000;font-family:DejaVu Sans;-inkscape-font-specification:Sans Bold;stroke-opacity:1;stroke-width:2;stroke-miterlimit:4;stroke-dasharray:none"
         x="158.18193"
         y="717.59991"
         id="text3633"
         sodipodi:linespacing="125%"><tspan
           sodipodi:role="line"
           id="tspan3635"
           x="158.18193"
           y="717.59991"
           style="font-style:normal;font-variant:normal;font-weight:bold;font-stretch:normal;fill:#ffffff;font-family:Blacksmith;-inkscape-font-specification:Blacksmith Bold;stroke:#000000;stroke-opacity:1;stroke-width:2;stroke-miterlimit:4;stroke-dasharray:none">Berlin</tspan></text>
      <text
         xml:space="preserve"
         style="font-size:23.27893638999999837px;font-style:normal;font-variant:normal;font-weight:bold;font-stretch:normal;text-align:start;line-height:125%;letter-spacing:0px;word-spacing:0px;writing-mode:lr-tb;text-anchor:start;fill:#ffffff;fill-opacity:1;stroke:#000000;font-family:DejaVu Sans;-inkscape-font-specification:Sans Bold;stroke-opacity:1;stroke-width:2;stroke-miterlimit:4;stroke-dasharray:none"
         x="608.07172"
         y="529.56305"
         id="text3633-7"
         sodipodi:linespacing="125%"><tspan
           sodipodi:role="line"
           id="tspan3635-2"
           x="608.07172"
           y="529.56305"
           style="font-style:normal;font-variant:normal;font-weight:bold;font-stretch:normal;fill:#ffffff;font-family:Blacksmith;-inkscape-font-specification:Blacksmith Bold;stroke:#000000;stroke-opacity:1;stroke-width:2;stroke-miterlimit:4;stroke-dasharray:none">Deutschland</tspan></text>
      <path
         style="fill:none;stroke:#000000;stroke-width:1.49545884px;stroke-linecap:butt;stroke-linejoin:miter;stroke-opacity:1"
         d="M 274.09416,350.7885 209.9852,451.73708"
         id="path3747"
         inkscape:connector-curvature="0"
         sodipodi:nodetypes="cc" />
      <path
         style="fill:none;stroke:#000000;stroke-width:1.49545884px;stroke-linecap:butt;stroke-linejoin:miter;stroke-opacity:1"
         d="m 94.790169,439.95059 140.669901,2.96825"
         id="path3743"
         inkscape:connector-curvature="0"
         sodipodi:nodetypes="cc" />
      <path
         sodipodi:nodetypes="cc"
         inkscape:connector-curvature="0"
         id="path3745"
         d="m 162.39659,352.7481 47.58861,98.98898"
         style="fill:none;stroke:#000000;stroke-width:1.49545884px;stroke-linecap:butt;stroke-linejoin:miter;stroke-opacity:1" />
      <path
         sodipodi:nodetypes="cc"
         inkscape:connector-curvature="0"
         id="path3773"
         d="M 388.73113,417.41512 209.9852,451.73708"
         style="fill:none;stroke:#000000;stroke-width:1.49545884px;stroke-linecap:butt;stroke-linejoin:miter;stroke-opacity:1" />
      <path
         sodipodi:type="arc"
         style="fill:#ffff00;fill-opacity:1;stroke:#000000;stroke-opacity:1;stroke-width:1.04061026999999995;stroke-miterlimit:4;stroke-dasharray:none"
         id="path3087-1"
         sodipodi:cx="405.07117"
         sodipodi:cy="362.25681"
         sodipodi:rx="18.182745"
         sodipodi:ry="18.182745"
         d="m 423.25391,362.25681 c 0,10.04205 -8.14069,18.18274 -18.18274,18.18274 -10.04206,0 -18.18275,-8.14069 -18.18275,-18.18274 0,-10.04206 8.14069,-18.18275 18.18275,-18.18275 10.04205,0 18.18274,8.14069 18.18274,18.18275 z"
         transform="matrix(2.8829237,0,0,2.8829237,-958.65757,-592.28545)" />
      <text
         xml:space="preserve"
         style="font-size:23.27893638999999837px;font-style:normal;font-variant:normal;font-weight:bold;font-stretch:normal;text-align:start;line-height:125%;letter-spacing:0px;word-spacing:0px;writing-mode:lr-tb;text-anchor:start;fill:#ffffff;fill-opacity:1;stroke:#000000;font-family:DejaVu Sans;-inkscape-font-specification:Sans Bold;stroke-opacity:1;stroke-width:2;stroke-miterlimit:4;stroke-dasharray:none"
         x="170.42947"
         y="457.79843"
         id="text3633-3"
         sodipodi:linespacing="125%"><tspan
           sodipodi:role="line"
           id="tspan3635-4"
           x="170.42947"
           y="457.79843"
           style="font-style:normal;font-variant:normal;font-weight:bold;font-stretch:normal;fill:#ffffff;font-family:Blacksmith;-inkscape-font-specification:Blacksmith Bold;stroke:#000000;stroke-opacity:1;stroke-width:2;stroke-miterlimit:4;stroke-dasharray:none">Spree</tspan></text>
      <text
         xml:space="preserve"
         style="font-size:23.27893639px;font-style:normal;font-variant:normal;font-weight:bold;font-stretch:normal;text-align:start;line-height:125%;letter-spacing:0px;word-spacing:0px;writing-mode:lr-tb;text-anchor:start;fill:#000000;fill-opacity:1;stroke:none;font-family:DejaVu Sans;-inkscape-font-specification:Sans Bold"
         x="61.266823"
         y="763.42932"
         id="text3684"
         sodipodi:linespacing="125%"
         transform="matrix(0.92145253,-0.38849097,0.38849097,0.92145253,0,0)"><tspan
           sodipodi:role="line"
           id="tspan3686"
           x="61.266823"
           y="763.42932"
           style="font-size:19.3991127px;font-style:normal;font-variant:normal;font-weight:bold;font-stretch:normal;font-family:Blacksmith;-inkscape-font-specification:Blacksmith Bold">ist Hauptstadt von</tspan></text>
      <text
         xml:space="preserve"
         style="font-size:23.27893639px;font-style:normal;font-variant:normal;font-weight:bold;font-stretch:normal;text-align:start;line-height:125%;letter-spacing:0px;word-spacing:0px;writing-mode:lr-tb;text-anchor:start;fill:#000000;fill-opacity:1;stroke:none;font-family:DejaVu Sans;-inkscape-font-specification:Sans Bold"
         x="-594.58496"
         y="227.55399"
         id="text3684-4"
         sodipodi:linespacing="125%"
         transform="matrix(0.06360314,-0.99797527,0.99797527,0.06360314,0,0)"><tspan
           sodipodi:role="line"
           id="tspan3686-5"
           x="-594.58496"
           y="227.55399"
           style="font-size:19.3991127px;font-style:normal;font-variant:normal;font-weight:bold;font-stretch:normal;font-family:Blacksmith;-inkscape-font-specification:Blacksmith Bold">liegt an</tspan></text>
      <path
         transform="matrix(0.86218275,0,0,0.86218275,-71.527467,38.821973)"
         d="m 423.25391,362.25681 c 0,10.04205 -8.14069,18.18274 -18.18274,18.18274 -10.04206,0 -18.18275,-8.14069 -18.18275,-18.18274 0,-10.04206 8.14069,-18.18275 18.18275,-18.18275 10.04205,0 18.18274,8.14069 18.18274,18.18275 z"
         sodipodi:ry="18.182745"
         sodipodi:rx="18.182745"
         sodipodi:cy="362.25681"
         sodipodi:cx="405.07117"
         id="path3069-8-3"
         style="fill:#ffff00;fill-opacity:1;stroke:#000000;stroke-opacity:1;stroke-width:2.31969381999999991;stroke-miterlimit:4;stroke-dasharray:none"
         sodipodi:type="arc" />
      <path
         transform="matrix(0.86218275,0,0,0.86218275,-191.96246,35.842182)"
         d="m 423.25391,362.25681 a 18.182745,18.182745 0 1 1 -36.36549,0 18.182745,18.182745 0 1 1 36.36549,0 z"
         sodipodi:ry="18.182745"
         sodipodi:rx="18.182745"
         sodipodi:cy="362.25681"
         sodipodi:cx="405.07117"
         id="path3069-8-5"
         style="fill:#ffff00;fill-opacity:1;stroke:#000000;stroke-width:2.3196938;stroke-miterlimit:4;stroke-opacity:1;stroke-dasharray:none"
         sodipodi:type="arc" />
      <path
         transform="matrix(0.86218275,0,0,0.86218275,-255.73044,125.04467)"
         d="m 423.25391,362.25681 c 0,10.04205 -8.14069,18.18274 -18.18274,18.18274 -10.04206,0 -18.18275,-8.14069 -18.18275,-18.18274 0,-10.04206 8.14069,-18.18275 18.18275,-18.18275 10.04205,0 18.18274,8.14069 18.18274,18.18275 z"
         sodipodi:ry="18.182745"
         sodipodi:rx="18.182745"
         sodipodi:cy="362.25681"
         sodipodi:cx="405.07117"
         id="path3069-8-1"
         style="fill:#ffff00;fill-opacity:1;stroke:#000000;stroke-opacity:1;stroke-width:2.31969381999999991;stroke-miterlimit:4;stroke-dasharray:none"
         sodipodi:type="arc" />
      <path
         style="fill:none;stroke:#000000;stroke-width:1.49545884px;stroke-linecap:butt;stroke-linejoin:miter;stroke-opacity:1"
         d="m 472.9942,338.05104 -78.80601,79.39293"
         id="path3800"
         inkscape:connector-curvature="0"
         sodipodi:nodetypes="cc" />
      <path
         sodipodi:nodetypes="cc"
         inkscape:connector-curvature="0"
         id="path3796"
         d="M 425.96365,307.67715 394.18819,417.44397"
         style="fill:none;stroke:#000000;stroke-width:1.49545884px;stroke-linecap:butt;stroke-linejoin:miter;stroke-opacity:1" />
      <path
         sodipodi:type="arc"
         style="fill:#ffff00;fill-opacity:1;stroke:#000000;stroke-opacity:1;stroke-width:2.31969381999999991;stroke-miterlimit:4;stroke-dasharray:none"
         id="path3798"
         sodipodi:cx="405.07117"
         sodipodi:cy="362.25681"
         sodipodi:rx="18.182745"
         sodipodi:ry="18.182745"
         d="m 423.25391,362.25681 c 0,10.04205 -8.14069,18.18274 -18.18274,18.18274 -10.04206,0 -18.18275,-8.14069 -18.18275,-18.18274 0,-10.04206 8.14069,-18.18275 18.18275,-18.18275 10.04205,0 18.18274,8.14069 18.18274,18.18275 z"
         transform="matrix(0.86218275,0,0,0.86218275,73.483405,-5.2691648)" />
      <path
         sodipodi:type="arc"
         style="fill:#ffff00;fill-opacity:1;stroke:#000000;stroke-opacity:1;stroke-width:1.04061026999999995;stroke-miterlimit:4;stroke-dasharray:none"
         id="path3087-1-4"
         sodipodi:cx="405.07117"
         sodipodi:cy="362.25681"
         sodipodi:rx="18.182745"
         sodipodi:ry="18.182745"
         d="m 423.25391,362.25681 c 0,10.04205 -8.14069,18.18274 -18.18274,18.18274 -10.04206,0 -18.18275,-8.14069 -18.18275,-18.18274 0,-10.04206 8.14069,-18.18275 18.18275,-18.18275 10.04205,0 18.18274,8.14069 18.18274,18.18275 z"
         transform="matrix(2.8829237,0,0,2.8829237,-767.59596,-632.45739)" />
      <text
         xml:space="preserve"
         style="font-size:23.27893638999999837px;font-style:normal;font-variant:normal;font-weight:bold;font-stretch:normal;text-align:start;line-height:125%;letter-spacing:0px;word-spacing:0px;writing-mode:lr-tb;text-anchor:start;fill:#ffffff;fill-opacity:1;stroke:#000000;font-family:DejaVu Sans;-inkscape-font-specification:Sans Bold;stroke-opacity:1;stroke-width:2;stroke-miterlimit:4;stroke-dasharray:none"
         x="364.43048"
         y="419.58606"
         id="text3633-3-9"
         sodipodi:linespacing="125%"><tspan
           sodipodi:role="line"
           id="tspan3635-4-0"
           x="364.43048"
           y="419.58606"
           style="font-style:normal;font-variant:normal;font-weight:bold;font-stretch:normal;fill:#ffffff;font-family:Blacksmith;-inkscape-font-specification:Blacksmith Bold;stroke:#000000;stroke-opacity:1;stroke-width:2;stroke-miterlimit:4;stroke-dasharray:none">Fluss</tspan></text>
      <text
         xml:space="preserve"
         style="font-size:23.27893639px;font-style:normal;font-variant:normal;font-weight:bold;font-stretch:normal;text-align:start;line-height:125%;letter-spacing:0px;word-spacing:0px;writing-mode:lr-tb;text-anchor:start;fill:#000000;fill-opacity:1;stroke:none;font-family:DejaVu Sans;-inkscape-font-specification:Sans Bold"
         x="234.37607"
         y="480.04553"
         id="text3684-4-0"
         sodipodi:linespacing="125%"
         transform="matrix(0.996125,-0.08794878,0.08794878,0.996125,0,0)"><tspan
           sodipodi:role="line"
           id="tspan3686-5-3"
           x="234.37607"
           y="480.04553"
           style="font-size:19.3991127px;font-style:normal;font-variant:normal;font-weight:bold;font-stretch:normal;font-family:Blacksmith;-inkscape-font-specification:Blacksmith Bold">ist ein</tspan></text>
      <path
         transform="matrix(0.86218275,0,0,0.86218275,127.37257,27.064346)"
         d="m 423.25391,362.25681 c 0,10.04205 -8.14069,18.18274 -18.18274,18.18274 -10.04206,0 -18.18275,-8.14069 -18.18275,-18.18274 0,-10.04206 8.14069,-18.18275 18.18275,-18.18275 10.04205,0 18.18274,8.14069 18.18274,18.18275 z"
         sodipodi:ry="18.182745"
         sodipodi:rx="18.182745"
         sodipodi:cy="362.25681"
         sodipodi:cx="405.07117"
         id="path3802"
         style="fill:#ffff00;fill-opacity:1;stroke:#000000;stroke-opacity:1;stroke-width:2.31969381999999991;stroke-miterlimit:4;stroke-dasharray:none"
         sodipodi:type="arc" />
    </g>
  </g>
</svg>
