<?xml version="1.0" encoding="UTF-8" standalone="no"?>
<!-- Created with Inkscape (http://www.inkscape.org/) -->

<svg
   xmlns:dc="http://purl.org/dc/elements/1.1/"
   xmlns:cc="http://creativecommons.org/ns#"
   xmlns:rdf="http://www.w3.org/1999/02/22-rdf-syntax-ns#"
   xmlns:svg="http://www.w3.org/2000/svg"
   xmlns="http://www.w3.org/2000/svg"
   xmlns:sodipodi="http://sodipodi.sourceforge.net/DTD/sodipodi-0.dtd"
   xmlns:inkscape="http://www.inkscape.org/namespaces/inkscape"
   width="1052.3622"
   height="744.09448"
   id="svg2"
   version="1.1"
   inkscape:version="0.48.2 r9819"
   sodipodi:docname="www_internal_links.svg"

   inkscape:export-xdpi="100"
   inkscape:export-ydpi="100">
  <defs
     id="defs4" />
  <sodipodi:namedview
     id="base"
     pagecolor="#ffffff"
     bordercolor="#666666"
     borderopacity="1.0"
     inkscape:pageopacity="0.0"
     inkscape:pageshadow="2"
     inkscape:zoom="0.98994949"
     inkscape:cx="315.75043"
     inkscape:cy="363.55557"
     inkscape:document-units="px"
     inkscape:current-layer="layer1"
     showgrid="false"
     inkscape:window-width="1862"
     inkscape:window-height="1056"
     inkscape:window-x="58"
     inkscape:window-y="24"
     inkscape:window-maximized="1" />
  <metadata
     id="metadata7">
    <rdf:RDF>
      <cc:Work
         rdf:about="">
        <dc:format>image/svg+xml</dc:format>
        <dc:type
           rdf:resource="http://purl.org/dc/dcmitype/StillImage" />
        <dc:title></dc:title>
      </cc:Work>
    </rdf:RDF>
  </metadata>
  <g
     inkscape:label="Ebene 1"
     inkscape:groupmode="layer"
     id="layer1"
     transform="translate(0,-308.2677)">
    <path
       style="fill:#ffff00;stroke:#000000;stroke-width:1;stroke-linecap:butt;stroke-linejoin:miter;stroke-opacity:1;stroke-miterlimit:4;stroke-dasharray:none;fill-opacity:1"
       d="m 594.97986,725.57784 24.17853,46.46702"
       id="path3107"
       inkscape:connector-curvature="0"
       sodipodi:nodetypes="cc" />
    <path
       style="fill:#ffff00;stroke:#000000;stroke-width:1;stroke-linecap:butt;stroke-linejoin:miter;stroke-opacity:1;stroke-miterlimit:4;stroke-dasharray:none;fill-opacity:1"
       d="m 358.81337,825.0717 44.65643,22.24439"
       id="path3133"
       inkscape:connector-curvature="0"
       sodipodi:nodetypes="cc" />
    <path
       style="fill:none;stroke:#000000;stroke-width:0.7708903px;stroke-linecap:butt;stroke-linejoin:miter;stroke-opacity:1"
       d="m 377.23506,570.19382 58.07557,-56.24293"
       id="path3157"
       inkscape:connector-curvature="0"
       sodipodi:nodetypes="cc" />
    <path
       sodipodi:type="arc"
       style="fill:#ffff00;fill-opacity:1;stroke:#000000;stroke-opacity:1;stroke-width:4.50000025000000026;stroke-miterlimit:4;stroke-dasharray:none"
       id="path3159"
       sodipodi:cx="405.07117"
       sodipodi:cy="362.25681"
       sodipodi:rx="18.182745"
       sodipodi:ry="18.182745"
       d="m 423.25391,362.25681 a 18.182745,18.182745 0 1 1 -36.36549,0 18.182745,18.182745 0 1 1 36.36549,0 z"
       transform="matrix(0.44444442,0,0,0.44444442,195.01492,414.60194)" />
    <path
       sodipodi:nodetypes="cc"
       inkscape:connector-curvature="0"
       id="path3161"
       d="m 361.28183,518.17097 79.65643,-5.61276"
       style="fill:none;stroke:#000000;stroke-width:0.7708903px;stroke-linecap:butt;stroke-linejoin:miter;stroke-opacity:1" />
    <path
       transform="matrix(0.44444442,0,0,0.44444442,179.30063,356.03051)"
       d="m 423.25391,362.25681 a 18.182745,18.182745 0 1 1 -36.36549,0 18.182745,18.182745 0 1 1 36.36549,0 z"
       sodipodi:ry="18.182745"
       sodipodi:rx="18.182745"
       sodipodi:cy="362.25681"
       sodipodi:cx="405.07117"
       id="path3153"
       style="fill:#ffff00;fill-opacity:1;stroke:#000000;stroke-opacity:1;stroke-width:4.50000025000000026;stroke-miterlimit:4;stroke-dasharray:none"
       sodipodi:type="arc" />
    <path
       style="fill:none;stroke:#000000;stroke-width:0.7708903px;stroke-linecap:butt;stroke-linejoin:miter;stroke-opacity:1"
       d="m 432.97908,472.93818 1.32139,36.46702"
       id="path3163"
       inkscape:connector-curvature="0"
       sodipodi:nodetypes="cc" />
    <path
       sodipodi:type="arc"
       style="fill:#ffff00;fill-opacity:1;stroke:#000000;stroke-opacity:1;stroke-width:4.50000025000000026;stroke-miterlimit:4;stroke-dasharray:none"
       id="path3155"
       sodipodi:cx="405.07117"
       sodipodi:cy="362.25681"
       sodipodi:rx="18.182745"
       sodipodi:ry="18.182745"
       d="m 423.25391,362.25681 a 18.182745,18.182745 0 1 1 -36.36549,0 18.182745,18.182745 0 1 1 36.36549,0 z"
       transform="matrix(0.44444442,0,0,0.44444442,252.87206,311.03051)" />
    <path
       sodipodi:nodetypes="cc"
       inkscape:connector-curvature="0"
       id="path3165"
       d="M 482.99034,478.74783 423.7595,513.48171"
       style="fill:none;stroke:#000000;stroke-width:0.7708903px;stroke-linecap:butt;stroke-linejoin:miter;stroke-opacity:1" />
    <path
       transform="matrix(0.44444442,0,0,0.44444442,304.30063,314.17337)"
       d="m 423.25391,362.25681 a 18.182745,18.182745 0 1 1 -36.36549,0 18.182745,18.182745 0 1 1 36.36549,0 z"
       sodipodi:ry="18.182745"
       sodipodi:rx="18.182745"
       sodipodi:cy="362.25681"
       sodipodi:cx="405.07117"
       id="path3147"
       style="fill:#ffff00;fill-opacity:1;stroke:#000000;stroke-opacity:1;stroke-width:4.50000025000000026;stroke-miterlimit:4;stroke-dasharray:none"
       sodipodi:type="arc" />
    <path
       style="fill:none;stroke:#000000;stroke-width:0.7708903px;stroke-linecap:butt;stroke-linejoin:miter;stroke-opacity:1"
       d="M 512.81702,527.39359 429.47379,502.76742"
       id="path3167"
       inkscape:connector-curvature="0"
       sodipodi:nodetypes="cc" />
    <path
       sodipodi:type="arc"
       style="fill:#ffff00;fill-opacity:1;stroke:#000000;stroke-opacity:1;stroke-width:4.50000025000000026;stroke-miterlimit:4;stroke-dasharray:none"
       id="path3149"
       sodipodi:cx="405.07117"
       sodipodi:cy="362.25681"
       sodipodi:rx="18.182745"
       sodipodi:ry="18.182745"
       d="m 423.25391,362.25681 a 18.182745,18.182745 0 1 1 -36.36549,0 18.182745,18.182745 0 1 1 36.36549,0 z"
       transform="matrix(0.44444442,0,0,0.44444442,335.7292,367.45909)" />
    <path
       sodipodi:nodetypes="cc"
       inkscape:connector-curvature="0"
       id="path3169"
       d="M 468.00265,582.41717 437.33093,509.91028"
       style="fill:none;stroke:#000000;stroke-width:0.7708903px;stroke-linecap:butt;stroke-linejoin:miter;stroke-opacity:1" />
    <path
       transform="matrix(0.44444442,0,0,0.44444442,290.7292,423.88766)"
       d="m 423.25391,362.25681 a 18.182745,18.182745 0 1 1 -36.36549,0 18.182745,18.182745 0 1 1 36.36549,0 z"
       sodipodi:ry="18.182745"
       sodipodi:rx="18.182745"
       sodipodi:cy="362.25681"
       sodipodi:cx="405.07117"
       id="path3151"
       style="fill:#ffff00;fill-opacity:1;stroke:#000000;stroke-opacity:1;stroke-width:4.50000025000000026;stroke-miterlimit:4;stroke-dasharray:none"
       sodipodi:type="arc" />
    <path
       sodipodi:type="arc"
       style="fill:#ffff00;fill-opacity:1;stroke:#000000;stroke-opacity:1;stroke-width:2;stroke-miterlimit:4;stroke-dasharray:none"
       id="path3171"
       sodipodi:cx="405.07117"
       sodipodi:cy="362.25681"
       sodipodi:rx="18.182745"
       sodipodi:ry="18.182745"
       d="m 423.25391,362.25681 a 18.182745,18.182745 0 1 1 -36.36549,0 18.182745,18.182745 0 1 1 36.36549,0 z"
       transform="translate(31.314734,147.65345)" />
    <path
       sodipodi:nodetypes="cc"
       inkscape:connector-curvature="0"
       id="path3079"
       d="m 577.46064,524.24059 18.46424,60.75273"
       style="fill:#ffff00;fill-opacity:1;stroke:#000000;stroke-width:1;stroke-linecap:butt;stroke-linejoin:miter;stroke-opacity:1;stroke-miterlimit:4;stroke-dasharray:none" />
    <path
       transform="matrix(0.44444442,0,0,0.44444442,396.63933,357.33292)"
       d="m 423.25391,362.25681 a 18.182745,18.182745 0 1 1 -36.36549,0 18.182745,18.182745 0 1 1 36.36549,0 z"
       sodipodi:ry="18.182745"
       sodipodi:rx="18.182745"
       sodipodi:cy="362.25681"
       sodipodi:cx="405.07117"
       id="path3071"
       style="fill:#ffff00;fill-opacity:1;stroke:#000000;stroke-opacity:1;stroke-width:4.50000025000000026;stroke-miterlimit:4;stroke-dasharray:none"
       sodipodi:type="arc" />
    <path
       sodipodi:nodetypes="cc"
       inkscape:connector-curvature="0"
       id="path3073"
       d="m 563.85947,632.9248 33.07557,-43.38579"
       style="fill:none;stroke:#000000;stroke-width:0.7708903px;stroke-linecap:butt;stroke-linejoin:miter;stroke-opacity:1" />
    <path
       transform="matrix(0.44444442,0,0,0.44444442,380.92504,475.19006)"
       d="m 423.25391,362.25681 a 18.182745,18.182745 0 1 1 -36.36549,0 18.182745,18.182745 0 1 1 36.36549,0 z"
       sodipodi:ry="18.182745"
       sodipodi:rx="18.182745"
       sodipodi:cy="362.25681"
       sodipodi:cx="405.07117"
       id="path3075"
       style="fill:#ffff00;fill-opacity:1;stroke:#000000;stroke-opacity:1;stroke-width:4.50000025000000026;stroke-miterlimit:4;stroke-dasharray:none"
       sodipodi:type="arc" />
    <path
       style="fill:none;stroke:#000000;stroke-width:0.7708903px;stroke-linecap:butt;stroke-linejoin:miter;stroke-opacity:1"
       d="m 522.90624,584.47337 72.51357,1.5301"
       id="path3077"
       inkscape:connector-curvature="0"
       sodipodi:nodetypes="cc" />
    <path
       sodipodi:type="arc"
       style="fill:#ffff00;fill-opacity:1;stroke:#000000;stroke-opacity:1;stroke-width:4.50000025000000026;stroke-miterlimit:4;stroke-dasharray:none"
       id="path3069"
       sodipodi:cx="405.07117"
       sodipodi:cy="362.25681"
       sodipodi:rx="18.182745"
       sodipodi:ry="18.182745"
       d="m 423.25391,362.25681 a 18.182745,18.182745 0 1 1 -36.36549,0 18.182745,18.182745 0 1 1 36.36549,0 z"
       transform="matrix(0.44444442,0,0,0.44444442,340.21076,424.47578)" />
    <path
       style="fill:none;stroke:#000000;stroke-width:0.7708903px;stroke-linecap:butt;stroke-linejoin:miter;stroke-opacity:1"
       d="m 636.04332,544.33595 -36.37369,43.30531"
       id="path3081"
       inkscape:connector-curvature="0"
       sodipodi:nodetypes="cc" />
    <path
       sodipodi:type="arc"
       style="fill:#ffff00;fill-opacity:1;stroke:#000000;stroke-opacity:1;stroke-width:4.50000025000000026;stroke-miterlimit:4;stroke-dasharray:none"
       id="path3063"
       sodipodi:cx="405.07117"
       sodipodi:cy="362.25681"
       sodipodi:rx="18.182745"
       sodipodi:ry="18.182745"
       d="m 423.25391,362.25681 a 18.182745,18.182745 0 1 1 -36.36549,0 18.182745,18.182745 0 1 1 36.36549,0 z"
       transform="matrix(0.44444442,0,0,0.44444442,454.49647,383.33292)" />
    <path
       sodipodi:nodetypes="cc"
       inkscape:connector-curvature="0"
       id="path3083"
       d="M 632.29857,609.41029 598.95534,584.78412"
       style="fill:none;stroke:#000000;stroke-width:0.7708903px;stroke-linecap:butt;stroke-linejoin:miter;stroke-opacity:1" />
    <path
       transform="matrix(0.44444442,0,0,0.44444442,455.92504,450.90435)"
       d="m 423.25391,362.25681 a 18.182745,18.182745 0 1 1 -36.36549,0 18.182745,18.182745 0 1 1 36.36549,0 z"
       sodipodi:ry="18.182745"
       sodipodi:rx="18.182745"
       sodipodi:cy="362.25681"
       sodipodi:cx="405.07117"
       id="path3065"
       style="fill:#ffff00;fill-opacity:1;stroke:#000000;stroke-opacity:1;stroke-width:4.50000025000000026;stroke-miterlimit:4;stroke-dasharray:none"
       sodipodi:type="arc" />
    <path
       style="fill:none;stroke:#000000;stroke-width:0.7708903px;stroke-linecap:butt;stroke-linejoin:miter;stroke-opacity:1"
       d="M 619.62706,641.57672 598.95534,585.4984"
       id="path3085"
       inkscape:connector-curvature="0"
       sodipodi:nodetypes="cc" />
    <path
       sodipodi:type="arc"
       style="fill:#ffff00;fill-opacity:1;stroke:#000000;stroke-opacity:1;stroke-width:4.50000025000000026;stroke-miterlimit:4;stroke-dasharray:none"
       id="path3067"
       sodipodi:cx="405.07117"
       sodipodi:cy="362.25681"
       sodipodi:rx="18.182745"
       sodipodi:ry="18.182745"
       d="m 423.25391,362.25681 a 18.182745,18.182745 0 1 1 -36.36549,0 18.182745,18.182745 0 1 1 36.36549,0 z"
       transform="matrix(0.44444442,0,0,0.44444442,441.63933,481.61863)" />
    <path
       transform="translate(192.93914,223.24157)"
       d="m 423.25391,362.25681 a 18.182745,18.182745 0 1 1 -36.36549,0 18.182745,18.182745 0 1 1 36.36549,0 z"
       sodipodi:ry="18.182745"
       sodipodi:rx="18.182745"
       sodipodi:cy="362.25681"
       sodipodi:cx="405.07117"
       id="path3087"
       style="fill:#ffff00;fill-opacity:1;stroke:#000000;stroke-opacity:1;stroke-width:2;stroke-miterlimit:4;stroke-dasharray:none"
       sodipodi:type="arc" />
    <path
       transform="matrix(0.44444442,0,0,0.44444442,372.72998,599.38446)"
       d="m 423.25391,362.25681 a 18.182745,18.182745 0 1 1 -36.36549,0 18.182745,18.182745 0 1 1 36.36549,0 z"
       sodipodi:ry="18.182745"
       sodipodi:rx="18.182745"
       sodipodi:cy="362.25681"
       sodipodi:cx="405.07117"
       id="path3097"
       style="fill:#ffff00;fill-opacity:1;stroke:#000000;stroke-width:4.50000025000000026;stroke-miterlimit:4;stroke-dasharray:none;stroke-opacity:1"
       sodipodi:type="arc" />
    <path
       sodipodi:type="arc"
       style="fill:#ffff00;fill-opacity:1;stroke:#000000;stroke-width:4.50000025000000026;stroke-miterlimit:4;stroke-dasharray:none;stroke-opacity:1"
       id="path3099"
       sodipodi:cx="405.07117"
       sodipodi:cy="362.25681"
       sodipodi:rx="18.182745"
       sodipodi:ry="18.182745"
       d="m 423.25391,362.25681 a 18.182745,18.182745 0 1 1 -36.36549,0 18.182745,18.182745 0 1 1 36.36549,0 z"
       transform="matrix(0.44444442,0,0,0.44444442,412.72998,559.38446)" />
    <path
       style="fill:none;stroke:#000000;stroke-width:0.7708903px;stroke-linecap:butt;stroke-linejoin:miter;stroke-opacity:1"
       d="m 598.52156,807.1192 21.64699,-30.52865"
       id="path3101"
       inkscape:connector-curvature="0"
       sodipodi:nodetypes="cc" />
    <path
       sodipodi:type="arc"
       style="fill:#ffff00;fill-opacity:1;stroke:#000000;stroke-width:4.50000025000000026;stroke-miterlimit:4;stroke-dasharray:none;stroke-opacity:1"
       id="path3103"
       sodipodi:cx="405.07117"
       sodipodi:cy="362.25681"
       sodipodi:rx="18.182745"
       sodipodi:ry="18.182745"
       d="m 423.25391,362.25681 a 18.182745,18.182745 0 1 1 -36.36549,0 18.182745,18.182745 0 1 1 36.36549,0 z"
       transform="matrix(0.44444442,0,0,0.44444442,414.87284,650.81303)" />
    <path
       sodipodi:nodetypes="cc"
       inkscape:connector-curvature="0"
       id="path3105"
       d="m 561.13975,762.95348 57.51357,10.10153"
       style="fill:none;stroke:#000000;stroke-width:0.7708903px;stroke-linecap:butt;stroke-linejoin:miter;stroke-opacity:1" />
    <path
       sodipodi:nodetypes="cc"
       inkscape:connector-curvature="0"
       id="path3109"
       d="m 674.27683,756.38749 -52.08798,16.16245"
       style="fill:none;stroke:#000000;stroke-width:0.7708903px;stroke-linecap:butt;stroke-linejoin:miter;stroke-opacity:1" />
    <path
       transform="matrix(0.44444442,0,0,0.44444442,492.72998,595.38446)"
       d="m 423.25391,362.25681 a 18.182745,18.182745 0 1 1 -36.36549,0 18.182745,18.182745 0 1 1 36.36549,0 z"
       sodipodi:ry="18.182745"
       sodipodi:rx="18.182745"
       sodipodi:cy="362.25681"
       sodipodi:cx="405.07117"
       id="path3091"
       style="fill:#ffff00;fill-opacity:1;stroke:#000000;stroke-width:4.50000025000000026;stroke-miterlimit:4;stroke-dasharray:none;stroke-opacity:1"
       sodipodi:type="arc" />
    <path
       style="fill:none;stroke:#000000;stroke-width:0.7708903px;stroke-linecap:butt;stroke-linejoin:miter;stroke-opacity:1"
       d="M 671.24637,799.31897 622.18885,772.54994"
       id="path3111"
       inkscape:connector-curvature="0"
       sodipodi:nodetypes="cc" />
    <path
       sodipodi:type="arc"
       style="fill:#ffff00;fill-opacity:1;stroke:#000000;stroke-width:4.50000025000000026;stroke-miterlimit:4;stroke-dasharray:none;stroke-opacity:1"
       id="path3093"
       sodipodi:cx="405.07117"
       sodipodi:cy="362.25681"
       sodipodi:rx="18.182745"
       sodipodi:ry="18.182745"
       d="m 423.25391,362.25681 a 18.182745,18.182745 0 1 1 -36.36549,0 18.182745,18.182745 0 1 1 36.36549,0 z"
       transform="matrix(0.44444442,0,0,0.44444442,492.72998,639.38446)" />
    <path
       sodipodi:nodetypes="cc"
       inkscape:connector-curvature="0"
       id="path3113"
       d="M 632.86057,837.19969 622.18885,772.54994"
       style="fill:none;stroke:#000000;stroke-width:0.7708903px;stroke-linecap:butt;stroke-linejoin:miter;stroke-opacity:1" />
    <path
       transform="matrix(0.44444442,0,0,0.44444442,452.72998,679.38446)"
       d="m 423.25391,362.25681 a 18.182745,18.182745 0 1 1 -36.36549,0 18.182745,18.182745 0 1 1 36.36549,0 z"
       sodipodi:ry="18.182745"
       sodipodi:rx="18.182745"
       sodipodi:cy="362.25681"
       sodipodi:cx="405.07117"
       id="path3095"
       style="fill:#ffff00;fill-opacity:1;stroke:#000000;stroke-width:4.50000025000000026;stroke-miterlimit:4;stroke-dasharray:none;stroke-opacity:1"
       sodipodi:type="arc" />
    <path
       sodipodi:type="arc"
       style="fill:#ffff00;fill-opacity:1;stroke:#000000;stroke-width:2;stroke-miterlimit:4;stroke-dasharray:none;stroke-opacity:1"
       id="path3115"
       sodipodi:cx="405.07117"
       sodipodi:cy="362.25681"
       sodipodi:rx="18.182745"
       sodipodi:ry="18.182745"
       d="m 423.25391,362.25681 a 18.182745,18.182745 0 1 1 -36.36549,0 18.182745,18.182745 0 1 1 36.36549,0 z"
       transform="translate(216.17265,410.29311)" />
    <path
       style="fill:none;stroke:#000000;stroke-width:0.7708903px;stroke-linecap:butt;stroke-linejoin:miter;stroke-opacity:1"
       d="M 206.07113,577.59049 248.43241,539.2047"
       id="path3213"
       inkscape:connector-curvature="0"
       sodipodi:nodetypes="cc" />
    <path
       sodipodi:type="arc"
       style="fill:#ffff00;fill-opacity:1;stroke:#000000;stroke-opacity:1;stroke-width:4.50000025000000026;stroke-miterlimit:4;stroke-dasharray:none"
       id="path3215"
       sodipodi:cx="405.07117"
       sodipodi:cy="362.25681"
       sodipodi:rx="18.182745"
       sodipodi:ry="18.182745"
       d="m 423.25391,362.25681 a 18.182745,18.182745 0 1 1 -36.36549,0 18.182745,18.182745 0 1 1 36.36549,0 z"
       transform="matrix(0.44444442,0,0,0.44444442,20.99384,421.99861)" />
    <path
       sodipodi:nodetypes="cc"
       inkscape:connector-curvature="0"
       id="path3217"
       d="m 189.40361,525.56763 57.51357,10.10153"
       style="fill:none;stroke:#000000;stroke-width:0.7708903px;stroke-linecap:butt;stroke-linejoin:miter;stroke-opacity:1" />
    <path
       transform="matrix(0.44444442,0,0,0.44444442,4.02955,363.07004)"
       d="m 423.25391,362.25681 a 18.182745,18.182745 0 1 1 -36.36549,0 18.182745,18.182745 0 1 1 36.36549,0 z"
       sodipodi:ry="18.182745"
       sodipodi:rx="18.182745"
       sodipodi:cy="362.25681"
       sodipodi:cx="405.07117"
       id="path3209"
       style="fill:#ffff00;fill-opacity:1;stroke:#000000;stroke-opacity:1;stroke-width:4.50000025000000026;stroke-miterlimit:4;stroke-dasharray:none"
       sodipodi:type="arc" />
    <path
       style="fill:none;stroke:#000000;stroke-width:0.7708903px;stroke-linecap:butt;stroke-linejoin:miter;stroke-opacity:1"
       d="m 223.24372,488.19199 24.17853,46.46702"
       id="path3219"
       inkscape:connector-curvature="0"
       sodipodi:nodetypes="cc" />
    <path
       sodipodi:type="arc"
       style="fill:#ffff00;fill-opacity:1;stroke:#000000;stroke-opacity:1;stroke-width:4.50000025000000026;stroke-miterlimit:4;stroke-dasharray:none"
       id="path3211"
       sodipodi:cx="405.07117"
       sodipodi:cy="362.25681"
       sodipodi:rx="18.182745"
       sodipodi:ry="18.182745"
       d="m 423.25391,362.25681 a 18.182745,18.182745 0 1 1 -36.36549,0 18.182745,18.182745 0 1 1 36.36549,0 z"
       transform="matrix(0.44444442,0,0,0.44444442,40.99384,321.99861)" />
    <path
       sodipodi:nodetypes="cc"
       inkscape:connector-curvature="0"
       id="path3221"
       d="m 302.54069,519.00164 -52.08798,16.16245"
       style="fill:none;stroke:#000000;stroke-width:0.7708903px;stroke-linecap:butt;stroke-linejoin:miter;stroke-opacity:1" />
    <path
       transform="matrix(0.44444442,0,0,0.44444442,120.99384,357.99861)"
       d="m 423.25391,362.25681 a 18.182745,18.182745 0 1 1 -36.36549,0 18.182745,18.182745 0 1 1 36.36549,0 z"
       sodipodi:ry="18.182745"
       sodipodi:rx="18.182745"
       sodipodi:cy="362.25681"
       sodipodi:cx="405.07117"
       id="path3203"
       style="fill:#ffff00;fill-opacity:1;stroke:#000000;stroke-opacity:1;stroke-width:4.50000025000000026;stroke-miterlimit:4;stroke-dasharray:none"
       sodipodi:type="arc" />
    <path
       style="fill:none;stroke:#000000;stroke-width:0.7708903px;stroke-linecap:butt;stroke-linejoin:miter;stroke-opacity:1"
       d="M 299.51023,561.93312 250.45271,535.16409"
       id="path3223"
       inkscape:connector-curvature="0"
       sodipodi:nodetypes="cc" />
    <path
       sodipodi:type="arc"
       style="fill:#ffff00;fill-opacity:1;stroke:#000000;stroke-opacity:1;stroke-width:4.50000025000000026;stroke-miterlimit:4;stroke-dasharray:none"
       id="path3205"
       sodipodi:cx="405.07117"
       sodipodi:cy="362.25681"
       sodipodi:rx="18.182745"
       sodipodi:ry="18.182745"
       d="m 423.25391,362.25681 a 18.182745,18.182745 0 1 1 -36.36549,0 18.182745,18.182745 0 1 1 36.36549,0 z"
       transform="matrix(0.44444442,0,0,0.44444442,120.99384,401.99861)" />
    <path
       sodipodi:nodetypes="cc"
       inkscape:connector-curvature="0"
       id="path3225"
       d="M 261.12443,599.81384 250.45271,535.16409"
       style="fill:none;stroke:#000000;stroke-width:0.7708903px;stroke-linecap:butt;stroke-linejoin:miter;stroke-opacity:1" />
    <path
       transform="matrix(0.44444442,0,0,0.44444442,80.99384,441.99861)"
       d="m 423.25391,362.25681 a 18.182745,18.182745 0 1 1 -36.36549,0 18.182745,18.182745 0 1 1 36.36549,0 z"
       sodipodi:ry="18.182745"
       sodipodi:rx="18.182745"
       sodipodi:cy="362.25681"
       sodipodi:cx="405.07117"
       id="path3207"
       style="fill:#ffff00;fill-opacity:1;stroke:#000000;stroke-opacity:1;stroke-width:4.50000025000000026;stroke-miterlimit:4;stroke-dasharray:none"
       sodipodi:type="arc" />
    <path
       sodipodi:type="arc"
       style="fill:#ffff00;fill-opacity:1;stroke:#000000;stroke-opacity:1;stroke-width:2;stroke-miterlimit:4;stroke-dasharray:none"
       id="path3227"
       sodipodi:cx="405.07117"
       sodipodi:cy="362.25681"
       sodipodi:rx="18.182745"
       sodipodi:ry="18.182745"
       d="m 423.25391,362.25681 a 18.182745,18.182745 0 1 1 -36.36549,0 18.182745,18.182745 0 1 1 36.36549,0 z"
       transform="translate(-155.56349,172.90726)" />
    <path
       sodipodi:nodetypes="cc"
       inkscape:connector-curvature="0"
       id="path3185"
       d="m 183.01095,760.26966 43.37143,-31.8198"
       style="fill:none;stroke:#000000;stroke-width:0.7708903px;stroke-linecap:butt;stroke-linejoin:miter;stroke-opacity:1" />
    <path
       transform="matrix(0.44444442,0,0,0.44444442,1.46919,595.58641)"
       d="m 423.25391,362.25681 a 18.182745,18.182745 0 1 1 -36.36549,0 18.182745,18.182745 0 1 1 36.36549,0 z"
       sodipodi:ry="18.182745"
       sodipodi:rx="18.182745"
       sodipodi:cy="362.25681"
       sodipodi:cx="405.07117"
       id="path3187"
       style="fill:#ffff00;fill-opacity:1;stroke:#000000;stroke-width:4.50000025000000026;stroke-miterlimit:4;stroke-dasharray:none;stroke-opacity:1"
       sodipodi:type="arc" />
    <path
       style="fill:none;stroke:#000000;stroke-width:0.7708903px;stroke-linecap:butt;stroke-linejoin:miter;stroke-opacity:1"
       d="m 167.35358,706.73157 57.51357,18.18275"
       id="path3189"
       inkscape:connector-curvature="0"
       sodipodi:nodetypes="cc" />
    <path
       sodipodi:type="arc"
       style="fill:#ffff00;fill-opacity:1;stroke:#000000;stroke-width:4.50000025000000026;stroke-miterlimit:4;stroke-dasharray:none;stroke-opacity:1"
       id="path3181"
       sodipodi:cx="405.07117"
       sodipodi:cy="362.25681"
       sodipodi:rx="18.182745"
       sodipodi:ry="18.182745"
       d="m 423.25391,362.25681 a 18.182745,18.182745 0 1 1 -36.36549,0 18.182745,18.182745 0 1 1 36.36549,0 z"
       transform="matrix(0.44444442,0,0,0.44444442,-16.00543,543.16255)" />
    <path
       sodipodi:nodetypes="cc"
       inkscape:connector-curvature="0"
       id="path3191"
       d="m 223.33655,668.15144 2.03567,55.75273"
       style="fill:none;stroke:#000000;stroke-width:0.7708903px;stroke-linecap:butt;stroke-linejoin:miter;stroke-opacity:1" />
    <path
       transform="matrix(0.44444442,0,0,0.44444442,43.22952,504.8152)"
       d="m 423.25391,362.25681 a 18.182745,18.182745 0 1 1 -36.36549,0 18.182745,18.182745 0 1 1 36.36549,0 z"
       sodipodi:ry="18.182745"
       sodipodi:rx="18.182745"
       sodipodi:cy="362.25681"
       sodipodi:cx="405.07117"
       id="path3183"
       style="fill:#ffff00;fill-opacity:1;stroke:#000000;stroke-width:4.50000025000000026;stroke-miterlimit:4;stroke-dasharray:none;stroke-opacity:1"
       sodipodi:type="arc" />
    <path
       style="fill:none;stroke:#000000;stroke-width:0.7708903px;stroke-linecap:butt;stroke-linejoin:miter;stroke-opacity:1"
       d="m 280.49066,708.2468 -52.08798,16.16245"
       id="path3193"
       inkscape:connector-curvature="0"
       sodipodi:nodetypes="cc" />
    <path
       sodipodi:type="arc"
       style="fill:#ffff00;fill-opacity:1;stroke:#000000;stroke-width:4.50000025000000026;stroke-miterlimit:4;stroke-dasharray:none;stroke-opacity:1"
       id="path3175"
       sodipodi:cx="405.07117"
       sodipodi:cy="362.25681"
       sodipodi:rx="18.182745"
       sodipodi:ry="18.182745"
       d="m 423.25391,362.25681 a 18.182745,18.182745 0 1 1 -36.36549,0 18.182745,18.182745 0 1 1 36.36549,0 z"
       transform="matrix(0.44444442,0,0,0.44444442,98.94381,547.24377)" />
    <path
       sodipodi:nodetypes="cc"
       inkscape:connector-curvature="0"
       id="path3195"
       d="M 279.98559,746.12752 224.86715,726.93463"
       style="fill:none;stroke:#000000;stroke-width:0.7708903px;stroke-linecap:butt;stroke-linejoin:miter;stroke-opacity:1" />
    <path
       transform="matrix(0.44444442,0,0,0.44444442,100.90284,583.85146)"
       d="m 423.25391,362.25681 a 18.182745,18.182745 0 1 1 -36.36549,0 18.182745,18.182745 0 1 1 36.36549,0 z"
       sodipodi:ry="18.182745"
       sodipodi:rx="18.182745"
       sodipodi:cy="362.25681"
       sodipodi:cx="405.07117"
       id="path3177"
       style="fill:#ffff00;fill-opacity:1;stroke:#000000;stroke-width:4.50000025000000026;stroke-miterlimit:4;stroke-dasharray:none;stroke-opacity:1"
       sodipodi:type="arc" />
    <path
       style="fill:none;stroke:#000000;stroke-width:0.7708903px;stroke-linecap:butt;stroke-linejoin:miter;stroke-opacity:1"
       d="m 243.11501,770.87625 -14.71233,-46.467"
       id="path3197"
       inkscape:connector-curvature="0"
       sodipodi:nodetypes="cc" />
    <path
       sodipodi:type="arc"
       style="fill:#ffff00;fill-opacity:1;stroke:#000000;stroke-width:4.50000025000000026;stroke-miterlimit:4;stroke-dasharray:none;stroke-opacity:1"
       id="path3179"
       sodipodi:cx="405.07117"
       sodipodi:cy="362.25681"
       sodipodi:rx="18.182745"
       sodipodi:ry="18.182745"
       d="m 423.25391,362.25681 a 18.182745,18.182745 0 1 1 -36.36549,0 18.182745,18.182745 0 1 1 36.36549,0 z"
       transform="matrix(0.44444442,0,0,0.44444442,64.49965,615.08133)" />
    <path
       transform="translate(-177.61352,362.15242)"
       d="m 423.25391,362.25681 a 18.182745,18.182745 0 1 1 -36.36549,0 18.182745,18.182745 0 1 1 36.36549,0 z"
       sodipodi:ry="18.182745"
       sodipodi:rx="18.182745"
       sodipodi:cy="362.25681"
       sodipodi:cx="405.07117"
       id="path3199"
       style="fill:#ffff00;fill-opacity:1;stroke:#000000;stroke-width:2;stroke-miterlimit:4;stroke-dasharray:none;stroke-opacity:1"
       sodipodi:type="arc" />
    <path
       sodipodi:type="arc"
       style="fill:#ffff00;fill-opacity:1;stroke:#000000;stroke-width:4.50000025000000026;stroke-miterlimit:4;stroke-dasharray:none;stroke-opacity:1"
       id="path3125"
       sodipodi:cx="405.07117"
       sodipodi:cy="362.25681"
       sodipodi:rx="18.182745"
       sodipodi:ry="18.182745"
       d="m 423.25391,362.25681 a 18.182745,18.182745 0 1 1 -36.36549,0 18.182745,18.182745 0 1 1 36.36549,0 z"
       transform="matrix(0.44444442,0,0,0.44444442,173.26075,662.93125)" />
    <path
       sodipodi:nodetypes="cc"
       inkscape:connector-curvature="0"
       id="path3129"
       d="m 362.62375,874.95171 42.36128,-24.10008"
       style="fill:none;stroke:#000000;stroke-width:0.7708903px;stroke-linecap:butt;stroke-linejoin:miter;stroke-opacity:1" />
    <path
       transform="matrix(0.44444442,0,0,0.44444442,177.54646,716.50268)"
       d="m 423.25391,362.25681 a 18.182745,18.182745 0 1 1 -36.36549,0 18.182745,18.182745 0 1 1 36.36549,0 z"
       sodipodi:ry="18.182745"
       sodipodi:rx="18.182745"
       sodipodi:cy="362.25681"
       sodipodi:cx="405.07117"
       id="path3131"
       style="fill:#ffff00;fill-opacity:1;stroke:#000000;stroke-width:4.50000025000000026;stroke-miterlimit:4;stroke-dasharray:none;stroke-opacity:1"
       sodipodi:type="arc" />
    <path
       sodipodi:nodetypes="cc"
       inkscape:connector-curvature="0"
       id="path3135"
       d="m 413.36777,795.55321 -9.3929,50.75273"
       style="fill:none;stroke:#000000;stroke-width:0.7708903px;stroke-linecap:butt;stroke-linejoin:miter;stroke-opacity:1" />
    <path
       transform="matrix(0.44444442,0,0,0.44444442,236.83217,630.7884)"
       d="m 423.25391,362.25681 a 18.182745,18.182745 0 1 1 -36.36549,0 18.182745,18.182745 0 1 1 36.36549,0 z"
       sodipodi:ry="18.182745"
       sodipodi:rx="18.182745"
       sodipodi:cy="362.25681"
       sodipodi:cx="405.07117"
       id="path3127"
       style="fill:#ffff00;fill-opacity:1;stroke:#000000;stroke-width:4.50000025000000026;stroke-miterlimit:4;stroke-dasharray:none;stroke-opacity:1"
       sodipodi:type="arc" />
    <path
       style="fill:none;stroke:#000000;stroke-width:0.7708903px;stroke-linecap:butt;stroke-linejoin:miter;stroke-opacity:1"
       d="m 443.37902,814.93428 -36.37369,31.87674"
       id="path3137"
       inkscape:connector-curvature="0"
       sodipodi:nodetypes="cc" />
    <path
       sodipodi:type="arc"
       style="fill:#ffff00;fill-opacity:1;stroke:#000000;stroke-width:4.50000025000000026;stroke-miterlimit:4;stroke-dasharray:none;stroke-opacity:1"
       id="path3119"
       sodipodi:cx="405.07117"
       sodipodi:cy="362.25681"
       sodipodi:rx="18.182745"
       sodipodi:ry="18.182745"
       d="m 423.25391,362.25681 a 18.182745,18.182745 0 1 1 -36.36549,0 18.182745,18.182745 0 1 1 36.36549,0 z"
       transform="matrix(0.44444442,0,0,0.44444442,266.83217,651.7884)" />
    <path
       sodipodi:nodetypes="cc"
       inkscape:connector-curvature="0"
       id="path3139"
       d="M 438.20571,891.43719 407.00533,846.81102"
       style="fill:none;stroke:#000000;stroke-width:0.7708903px;stroke-linecap:butt;stroke-linejoin:miter;stroke-opacity:1" />
    <path
       transform="matrix(0.44444442,0,0,0.44444442,258.97503,730.7884)"
       d="m 423.25391,362.25681 a 18.182745,18.182745 0 1 1 -36.36549,0 18.182745,18.182745 0 1 1 36.36549,0 z"
       sodipodi:ry="18.182745"
       sodipodi:rx="18.182745"
       sodipodi:cy="362.25681"
       sodipodi:cx="405.07117"
       id="path3121"
       style="fill:#ffff00;fill-opacity:1;stroke:#000000;stroke-width:4.50000025000000026;stroke-miterlimit:4;stroke-dasharray:none;stroke-opacity:1"
       sodipodi:type="arc" />
    <path
       style="fill:none;stroke:#000000;stroke-width:0.7708903px;stroke-linecap:butt;stroke-linejoin:miter;stroke-opacity:1"
       d="m 405.53419,890.74648 1.47114,-43.93546"
       id="path3141"
       inkscape:connector-curvature="0"
       sodipodi:nodetypes="cc" />
    <path
       sodipodi:type="arc"
       style="fill:#ffff00;fill-opacity:1;stroke:#000000;stroke-width:4.50000025000000026;stroke-miterlimit:4;stroke-dasharray:none;stroke-opacity:1"
       id="path3123"
       sodipodi:cx="405.07117"
       sodipodi:cy="362.25681"
       sodipodi:rx="18.182745"
       sodipodi:ry="18.182745"
       d="m 423.25391,362.25681 a 18.182745,18.182745 0 1 1 -36.36549,0 18.182745,18.182745 0 1 1 36.36549,0 z"
       transform="matrix(0.44444442,0,0,0.44444442,226.11789,732.93125)" />
    <path
       transform="translate(0.98913084,484.55419)"
       d="m 423.25391,362.25681 a 18.182745,18.182745 0 1 1 -36.36549,0 18.182745,18.182745 0 1 1 36.36549,0 z"
       sodipodi:ry="18.182745"
       sodipodi:rx="18.182745"
       sodipodi:cy="362.25681"
       sodipodi:cx="405.07117"
       id="path3143"
       style="fill:#ffff00;fill-opacity:1;stroke:#000000;stroke-width:2;stroke-miterlimit:4;stroke-dasharray:none;stroke-opacity:1"
       sodipodi:type="arc" />
    <path
       style="fill:none;stroke:#000000;stroke-width:0.7708903px;stroke-linecap:butt;stroke-linejoin:miter;stroke-opacity:1"
       d="m 357.34891,697.95093 47.36128,-21.95722"
       id="path3034"
       inkscape:connector-curvature="0"
       sodipodi:nodetypes="cc" />
    <path
       sodipodi:type="arc"
       style="fill:#ffff00;fill-opacity:1;stroke:#000000;stroke-opacity:1;stroke-width:4.50000025000000026;stroke-miterlimit:4;stroke-dasharray:none"
       id="path3028"
       sodipodi:cx="405.07117"
       sodipodi:cy="362.25681"
       sodipodi:rx="18.182745"
       sodipodi:ry="18.182745"
       d="m 423.25391,362.25681 a 18.182745,18.182745 0 1 1 -36.36549,0 18.182745,18.182745 0 1 1 36.36549,0 z"
       transform="matrix(0.44444442,0,0,0.44444442,175.12876,537.35905)" />
    <path
       sodipodi:nodetypes="cc"
       inkscape:connector-curvature="0"
       id="path3036"
       d="m 344.96711,650.92806 65.37071,20.81582"
       style="fill:none;stroke:#000000;stroke-width:0.7708903px;stroke-linecap:butt;stroke-linejoin:miter;stroke-opacity:1" />
    <path
       transform="matrix(0.44444442,0,0,0.44444442,162.98591,489.50191)"
       d="m 423.25391,362.25681 a 18.182745,18.182745 0 1 1 -36.36549,0 18.182745,18.182745 0 1 1 36.36549,0 z"
       sodipodi:ry="18.182745"
       sodipodi:rx="18.182745"
       sodipodi:cy="362.25681"
       sodipodi:cx="405.07117"
       id="path3030"
       style="fill:#ffff00;fill-opacity:1;stroke:#000000;stroke-opacity:1;stroke-width:4.50000025000000026;stroke-miterlimit:4;stroke-dasharray:none"
       sodipodi:type="arc" />
    <path
       style="fill:none;stroke:#000000;stroke-width:0.7708903px;stroke-linecap:butt;stroke-linejoin:miter;stroke-opacity:1"
       d="m 398.80721,619.26672 6.32139,50.75273"
       id="path3038"
       inkscape:connector-curvature="0"
       sodipodi:nodetypes="cc" />
    <path
       sodipodi:type="arc"
       style="fill:#ffff00;fill-opacity:1;stroke:#000000;stroke-opacity:1;stroke-width:4.50000025000000026;stroke-miterlimit:4;stroke-dasharray:none"
       id="path3032"
       sodipodi:cx="405.07117"
       sodipodi:cy="362.25681"
       sodipodi:rx="18.182745"
       sodipodi:ry="18.182745"
       d="m 423.25391,362.25681 a 18.182745,18.182745 0 1 1 -36.36549,0 18.182745,18.182745 0 1 1 36.36549,0 z"
       transform="matrix(0.44444442,0,0,0.44444442,217.27162,456.64476)" />
    <path
       sodipodi:nodetypes="cc"
       inkscape:connector-curvature="0"
       id="path3040"
       d="M 453.81847,642.21922 406.73049,671.9531"
       style="fill:none;stroke:#000000;stroke-width:0.7708903px;stroke-linecap:butt;stroke-linejoin:miter;stroke-opacity:1" />
    <path
       transform="matrix(0.44444442,0,0,0.44444442,276.55733,481.21619)"
       d="m 423.25391,362.25681 a 18.182745,18.182745 0 1 1 -36.36549,0 18.182745,18.182745 0 1 1 36.36549,0 z"
       sodipodi:ry="18.182745"
       sodipodi:rx="18.182745"
       sodipodi:cy="362.25681"
       sodipodi:cx="405.07117"
       id="path3022"
       style="fill:#ffff00;fill-opacity:1;stroke:#000000;stroke-opacity:1;stroke-width:4.50000025000000026;stroke-miterlimit:4;stroke-dasharray:none"
       sodipodi:type="arc" />
    <path
       style="fill:none;stroke:#000000;stroke-width:0.7708903px;stroke-linecap:butt;stroke-linejoin:miter;stroke-opacity:1"
       d="M 448.64516,704.43641 403.87335,673.38167"
       id="path3042"
       inkscape:connector-curvature="0"
       sodipodi:nodetypes="cc" />
    <path
       sodipodi:type="arc"
       style="fill:#ffff00;fill-opacity:1;stroke:#000000;stroke-opacity:1;stroke-width:4.50000025000000026;stroke-miterlimit:4;stroke-dasharray:none"
       id="path3024"
       sodipodi:cx="405.07117"
       sodipodi:cy="362.25681"
       sodipodi:rx="18.182745"
       sodipodi:ry="18.182745"
       d="m 423.25391,362.25681 a 18.182745,18.182745 0 1 1 -36.36549,0 18.182745,18.182745 0 1 1 36.36549,0 z"
       transform="matrix(0.44444442,0,0,0.44444442,270.12876,547.35905)" />
    <path
       sodipodi:nodetypes="cc"
       inkscape:connector-curvature="0"
       id="path3044"
       d="m 400.97364,730.17428 5.75685,-58.22118"
       style="fill:none;stroke:#000000;stroke-width:0.7708903px;stroke-linecap:butt;stroke-linejoin:miter;stroke-opacity:1" />
    <path
       transform="matrix(0.44444442,0,0,0.44444442,218.70019,571.64476)"
       d="m 423.25391,362.25681 a 18.182745,18.182745 0 1 1 -36.36549,0 18.182745,18.182745 0 1 1 36.36549,0 z"
       sodipodi:ry="18.182745"
       sodipodi:rx="18.182745"
       sodipodi:cy="362.25681"
       sodipodi:cx="405.07117"
       id="path3026"
       style="fill:#ffff00;fill-opacity:1;stroke:#000000;stroke-opacity:1;stroke-width:4.50000025000000026;stroke-miterlimit:4;stroke-dasharray:none"
       sodipodi:type="arc" />
    <path
       sodipodi:type="arc"
       style="fill:#ffff00;fill-opacity:1;stroke:#000000;stroke-opacity:1;stroke-width:2;stroke-miterlimit:4;stroke-dasharray:none"
       id="path3020"
       sodipodi:cx="405.07117"
       sodipodi:cy="362.25681"
       sodipodi:rx="18.182745"
       sodipodi:ry="18.182745"
       d="m 423.25391,362.25681 a 18.182745,18.182745 0 1 1 -36.36549,0 18.182745,18.182745 0 1 1 36.36549,0 z"
       transform="translate(0.71428572,309.69627)" />
    <path
       transform="matrix(0.72501402,0,0,0.72501402,167.10318,512.16895)"
       d="m 423.25391,362.25681 a 18.182745,18.182745 0 1 1 -36.36549,0 18.182745,18.182745 0 1 1 36.36549,0 z"
       sodipodi:ry="18.182745"
       sodipodi:rx="18.182745"
       sodipodi:cy="362.25681"
       sodipodi:cx="405.07117"
       id="path3252"
       style="fill:#ffff00;fill-opacity:1;stroke:#000000;stroke-width:2.75856733999999992;stroke-miterlimit:4;stroke-dasharray:none;stroke-opacity:1"
       sodipodi:type="arc" />
    <path
       sodipodi:type="arc"
       style="fill:#ffff00;fill-opacity:1;stroke:#000000;stroke-opacity:1;stroke-width:2.75856733999999992;stroke-miterlimit:4;stroke-dasharray:none"
       id="path3254"
       sodipodi:cx="405.07117"
       sodipodi:cy="362.25681"
       sodipodi:rx="18.182745"
       sodipodi:ry="18.182745"
       d="m 423.25391,362.25681 a 18.182745,18.182745 0 1 1 -36.36549,0 18.182745,18.182745 0 1 1 36.36549,0 z"
       transform="matrix(0.72501402,0,0,0.72501402,221.38889,438.59752)" />
    <path
       transform="matrix(0.72501402,0,0,0.72501402,-9.3254003,389.31181)"
       d="m 423.25391,362.25681 a 18.182745,18.182745 0 1 1 -36.36549,0 18.182745,18.182745 0 1 1 36.36549,0 z"
       sodipodi:ry="18.182745"
       sodipodi:rx="18.182745"
       sodipodi:cy="362.25681"
       sodipodi:cx="405.07117"
       id="path3256"
       style="fill:#ffff00;fill-opacity:1;stroke:#000000;stroke-width:2.75856733999999992;stroke-miterlimit:4;stroke-dasharray:none;stroke-opacity:1"
       sodipodi:type="arc" />
  </g>
</svg>
