<?xml version="1.0" encoding="UTF-8" standalone="no"?>
<!-- Created with Inkscape (http://www.inkscape.org/) -->

<svg
   xmlns:dc="http://purl.org/dc/elements/1.1/"
   xmlns:cc="http://creativecommons.org/ns#"
   xmlns:rdf="http://www.w3.org/1999/02/22-rdf-syntax-ns#"
   xmlns:svg="http://www.w3.org/2000/svg"
   xmlns="http://www.w3.org/2000/svg"
   xmlns:sodipodi="http://sodipodi.sourceforge.net/DTD/sodipodi-0.dtd"
   xmlns:inkscape="http://www.inkscape.org/namespaces/inkscape"
   width="1052.3622"
   height="744.09448"
   id="svg2"
   version="1.1"
   inkscape:version="0.48.2 r9819"
   sodipodi:docname="www_without_links.svg"

   inkscape:export-xdpi="100"
   inkscape:export-ydpi="100">
  <defs
     id="defs4" />
  <sodipodi:namedview
     id="base"
     pagecolor="#ffffff"
     bordercolor="#666666"
     borderopacity="1.0"
     inkscape:pageopacity="0.0"
     inkscape:pageshadow="2"
     inkscape:zoom="0.98994949"
     inkscape:cx="463.06649"
     inkscape:cy="476.36881"
     inkscape:document-units="px"
     inkscape:current-layer="layer1"
     showgrid="false"
     inkscape:window-width="1862"
     inkscape:window-height="1056"
     inkscape:window-x="58"
     inkscape:window-y="24"
     inkscape:window-maximized="1" />
  <metadata
     id="metadata7">
    <rdf:RDF>
      <cc:Work
         rdf:about="">
        <dc:format>image/svg+xml</dc:format>
        <dc:type
           rdf:resource="http://purl.org/dc/dcmitype/StillImage" />
        <dc:title></dc:title>
      </cc:Work>
    </rdf:RDF>
  </metadata>
  <g
     inkscape:label="Ebene 1"
     inkscape:groupmode="layer"
     id="layer1"
     transform="translate(0,-308.2677)">
    <path
       sodipodi:type="arc"
       style="fill:#ffff00;fill-opacity:1;stroke:#000000;stroke-opacity:1;stroke-width:4.50000025000000026;stroke-miterlimit:4;stroke-dasharray:none"
       id="path3159"
       sodipodi:cx="405.07117"
       sodipodi:cy="362.25681"
       sodipodi:rx="18.182745"
       sodipodi:ry="18.182745"
       d="m 423.25391,362.25681 a 18.182745,18.182745 0 1 1 -36.36549,0 18.182745,18.182745 0 1 1 36.36549,0 z"
       transform="matrix(0.44444442,0,0,0.44444442,195.01492,414.60194)" />
    <path
       transform="matrix(0.44444442,0,0,0.44444442,179.30063,356.03051)"
       d="m 423.25391,362.25681 a 18.182745,18.182745 0 1 1 -36.36549,0 18.182745,18.182745 0 1 1 36.36549,0 z"
       sodipodi:ry="18.182745"
       sodipodi:rx="18.182745"
       sodipodi:cy="362.25681"
       sodipodi:cx="405.07117"
       id="path3153"
       style="fill:#ffff00;fill-opacity:1;stroke:#000000;stroke-opacity:1;stroke-width:4.50000025000000026;stroke-miterlimit:4;stroke-dasharray:none"
       sodipodi:type="arc" />
    <path
       sodipodi:type="arc"
       style="fill:#ffff00;fill-opacity:1;stroke:#000000;stroke-opacity:1;stroke-width:4.50000025000000026;stroke-miterlimit:4;stroke-dasharray:none"
       id="path3155"
       sodipodi:cx="405.07117"
       sodipodi:cy="362.25681"
       sodipodi:rx="18.182745"
       sodipodi:ry="18.182745"
       d="m 423.25391,362.25681 a 18.182745,18.182745 0 1 1 -36.36549,0 18.182745,18.182745 0 1 1 36.36549,0 z"
       transform="matrix(0.44444442,0,0,0.44444442,252.87206,311.03051)" />
    <path
       transform="matrix(0.44444442,0,0,0.44444442,304.30063,314.17337)"
       d="m 423.25391,362.25681 a 18.182745,18.182745 0 1 1 -36.36549,0 18.182745,18.182745 0 1 1 36.36549,0 z"
       sodipodi:ry="18.182745"
       sodipodi:rx="18.182745"
       sodipodi:cy="362.25681"
       sodipodi:cx="405.07117"
       id="path3147"
       style="fill:#ffff00;fill-opacity:1;stroke:#000000;stroke-opacity:1;stroke-width:4.50000025000000026;stroke-miterlimit:4;stroke-dasharray:none"
       sodipodi:type="arc" />
    <path
       sodipodi:type="arc"
       style="fill:#ffff00;fill-opacity:1;stroke:#000000;stroke-opacity:1;stroke-width:4.50000025000000026;stroke-miterlimit:4;stroke-dasharray:none"
       id="path3149"
       sodipodi:cx="405.07117"
       sodipodi:cy="362.25681"
       sodipodi:rx="18.182745"
       sodipodi:ry="18.182745"
       d="m 423.25391,362.25681 a 18.182745,18.182745 0 1 1 -36.36549,0 18.182745,18.182745 0 1 1 36.36549,0 z"
       transform="matrix(0.44444442,0,0,0.44444442,335.7292,367.45909)" />
    <path
       transform="matrix(0.44444442,0,0,0.44444442,290.7292,423.88766)"
       d="m 423.25391,362.25681 a 18.182745,18.182745 0 1 1 -36.36549,0 18.182745,18.182745 0 1 1 36.36549,0 z"
       sodipodi:ry="18.182745"
       sodipodi:rx="18.182745"
       sodipodi:cy="362.25681"
       sodipodi:cx="405.07117"
       id="path3151"
       style="fill:#ffff00;fill-opacity:1;stroke:#000000;stroke-opacity:1;stroke-width:4.50000025000000026;stroke-miterlimit:4;stroke-dasharray:none"
       sodipodi:type="arc" />
    <path
       sodipodi:type="arc"
       style="fill:#ffff00;fill-opacity:1;stroke:#000000;stroke-opacity:1;stroke-width:2;stroke-miterlimit:4;stroke-dasharray:none"
       id="path3171"
       sodipodi:cx="405.07117"
       sodipodi:cy="362.25681"
       sodipodi:rx="18.182745"
       sodipodi:ry="18.182745"
       d="m 423.25391,362.25681 a 18.182745,18.182745 0 1 1 -36.36549,0 18.182745,18.182745 0 1 1 36.36549,0 z"
       transform="translate(31.314734,147.65345)" />
    <path
       transform="matrix(0.44444442,0,0,0.44444442,396.63933,357.33292)"
       d="m 423.25391,362.25681 a 18.182745,18.182745 0 1 1 -36.36549,0 18.182745,18.182745 0 1 1 36.36549,0 z"
       sodipodi:ry="18.182745"
       sodipodi:rx="18.182745"
       sodipodi:cy="362.25681"
       sodipodi:cx="405.07117"
       id="path3071"
       style="fill:#ffff00;fill-opacity:1;stroke:#000000;stroke-opacity:1;stroke-width:4.50000025000000026;stroke-miterlimit:4;stroke-dasharray:none"
       sodipodi:type="arc" />
    <path
       transform="matrix(0.44444442,0,0,0.44444442,380.92504,475.19006)"
       d="m 423.25391,362.25681 a 18.182745,18.182745 0 1 1 -36.36549,0 18.182745,18.182745 0 1 1 36.36549,0 z"
       sodipodi:ry="18.182745"
       sodipodi:rx="18.182745"
       sodipodi:cy="362.25681"
       sodipodi:cx="405.07117"
       id="path3075"
       style="fill:#ffff00;fill-opacity:1;stroke:#000000;stroke-opacity:1;stroke-width:4.50000025000000026;stroke-miterlimit:4;stroke-dasharray:none"
       sodipodi:type="arc" />
    <path
       sodipodi:type="arc"
       style="fill:#ffff00;fill-opacity:1;stroke:#000000;stroke-opacity:1;stroke-width:4.50000025000000026;stroke-miterlimit:4;stroke-dasharray:none"
       id="path3069"
       sodipodi:cx="405.07117"
       sodipodi:cy="362.25681"
       sodipodi:rx="18.182745"
       sodipodi:ry="18.182745"
       d="m 423.25391,362.25681 a 18.182745,18.182745 0 1 1 -36.36549,0 18.182745,18.182745 0 1 1 36.36549,0 z"
       transform="matrix(0.44444442,0,0,0.44444442,340.21076,424.47578)" />
    <path
       sodipodi:type="arc"
       style="fill:#ffff00;fill-opacity:1;stroke:#000000;stroke-opacity:1;stroke-width:4.50000025000000026;stroke-miterlimit:4;stroke-dasharray:none"
       id="path3063"
       sodipodi:cx="405.07117"
       sodipodi:cy="362.25681"
       sodipodi:rx="18.182745"
       sodipodi:ry="18.182745"
       d="m 423.25391,362.25681 a 18.182745,18.182745 0 1 1 -36.36549,0 18.182745,18.182745 0 1 1 36.36549,0 z"
       transform="matrix(0.44444442,0,0,0.44444442,454.49647,383.33292)" />
    <path
       transform="matrix(0.44444442,0,0,0.44444442,455.92504,450.90435)"
       d="m 423.25391,362.25681 a 18.182745,18.182745 0 1 1 -36.36549,0 18.182745,18.182745 0 1 1 36.36549,0 z"
       sodipodi:ry="18.182745"
       sodipodi:rx="18.182745"
       sodipodi:cy="362.25681"
       sodipodi:cx="405.07117"
       id="path3065"
       style="fill:#ffff00;fill-opacity:1;stroke:#000000;stroke-opacity:1;stroke-width:4.50000025000000026;stroke-miterlimit:4;stroke-dasharray:none"
       sodipodi:type="arc" />
    <path
       sodipodi:type="arc"
       style="fill:#ffff00;fill-opacity:1;stroke:#000000;stroke-opacity:1;stroke-width:4.50000025000000026;stroke-miterlimit:4;stroke-dasharray:none"
       id="path3067"
       sodipodi:cx="405.07117"
       sodipodi:cy="362.25681"
       sodipodi:rx="18.182745"
       sodipodi:ry="18.182745"
       d="m 423.25391,362.25681 a 18.182745,18.182745 0 1 1 -36.36549,0 18.182745,18.182745 0 1 1 36.36549,0 z"
       transform="matrix(0.44444442,0,0,0.44444442,441.63933,481.61863)" />
    <path
       transform="translate(192.93914,223.24157)"
       d="m 423.25391,362.25681 a 18.182745,18.182745 0 1 1 -36.36549,0 18.182745,18.182745 0 1 1 36.36549,0 z"
       sodipodi:ry="18.182745"
       sodipodi:rx="18.182745"
       sodipodi:cy="362.25681"
       sodipodi:cx="405.07117"
       id="path3087"
       style="fill:#ffff00;fill-opacity:1;stroke:#000000;stroke-opacity:1;stroke-width:2;stroke-miterlimit:4;stroke-dasharray:none"
       sodipodi:type="arc" />
    <path
       transform="matrix(0.44444442,0,0,0.44444442,372.72998,599.38446)"
       d="m 423.25391,362.25681 a 18.182745,18.182745 0 1 1 -36.36549,0 18.182745,18.182745 0 1 1 36.36549,0 z"
       sodipodi:ry="18.182745"
       sodipodi:rx="18.182745"
       sodipodi:cy="362.25681"
       sodipodi:cx="405.07117"
       id="path3097"
       style="fill:#ffff00;fill-opacity:1;stroke:#000000;stroke-width:4.50000025000000026;stroke-miterlimit:4;stroke-dasharray:none;stroke-opacity:1"
       sodipodi:type="arc" />
    <path
       sodipodi:type="arc"
       style="fill:#ffff00;fill-opacity:1;stroke:#000000;stroke-width:4.50000025000000026;stroke-miterlimit:4;stroke-dasharray:none;stroke-opacity:1"
       id="path3099"
       sodipodi:cx="405.07117"
       sodipodi:cy="362.25681"
       sodipodi:rx="18.182745"
       sodipodi:ry="18.182745"
       d="m 423.25391,362.25681 a 18.182745,18.182745 0 1 1 -36.36549,0 18.182745,18.182745 0 1 1 36.36549,0 z"
       transform="matrix(0.44444442,0,0,0.44444442,412.72998,559.38446)" />
    <path
       sodipodi:type="arc"
       style="fill:#ffff00;fill-opacity:1;stroke:#000000;stroke-width:4.50000025000000026;stroke-miterlimit:4;stroke-dasharray:none;stroke-opacity:1"
       id="path3103"
       sodipodi:cx="405.07117"
       sodipodi:cy="362.25681"
       sodipodi:rx="18.182745"
       sodipodi:ry="18.182745"
       d="m 423.25391,362.25681 a 18.182745,18.182745 0 1 1 -36.36549,0 18.182745,18.182745 0 1 1 36.36549,0 z"
       transform="matrix(0.44444442,0,0,0.44444442,414.87284,650.81303)" />
    <path
       transform="matrix(0.44444442,0,0,0.44444442,492.72998,595.38446)"
       d="m 423.25391,362.25681 a 18.182745,18.182745 0 1 1 -36.36549,0 18.182745,18.182745 0 1 1 36.36549,0 z"
       sodipodi:ry="18.182745"
       sodipodi:rx="18.182745"
       sodipodi:cy="362.25681"
       sodipodi:cx="405.07117"
       id="path3091"
       style="fill:#ffff00;fill-opacity:1;stroke:#000000;stroke-width:4.50000025000000026;stroke-miterlimit:4;stroke-dasharray:none;stroke-opacity:1"
       sodipodi:type="arc" />
    <path
       sodipodi:type="arc"
       style="fill:#ffff00;fill-opacity:1;stroke:#000000;stroke-width:4.50000025000000026;stroke-miterlimit:4;stroke-dasharray:none;stroke-opacity:1"
       id="path3093"
       sodipodi:cx="405.07117"
       sodipodi:cy="362.25681"
       sodipodi:rx="18.182745"
       sodipodi:ry="18.182745"
       d="m 423.25391,362.25681 a 18.182745,18.182745 0 1 1 -36.36549,0 18.182745,18.182745 0 1 1 36.36549,0 z"
       transform="matrix(0.44444442,0,0,0.44444442,492.72998,639.38446)" />
    <path
       transform="matrix(0.44444442,0,0,0.44444442,452.72998,679.38446)"
       d="m 423.25391,362.25681 a 18.182745,18.182745 0 1 1 -36.36549,0 18.182745,18.182745 0 1 1 36.36549,0 z"
       sodipodi:ry="18.182745"
       sodipodi:rx="18.182745"
       sodipodi:cy="362.25681"
       sodipodi:cx="405.07117"
       id="path3095"
       style="fill:#ffff00;fill-opacity:1;stroke:#000000;stroke-width:4.50000025000000026;stroke-miterlimit:4;stroke-dasharray:none;stroke-opacity:1"
       sodipodi:type="arc" />
    <path
       sodipodi:type="arc"
       style="fill:#ffff00;fill-opacity:1;stroke:#000000;stroke-width:2;stroke-miterlimit:4;stroke-dasharray:none;stroke-opacity:1"
       id="path3115"
       sodipodi:cx="405.07117"
       sodipodi:cy="362.25681"
       sodipodi:rx="18.182745"
       sodipodi:ry="18.182745"
       d="m 423.25391,362.25681 a 18.182745,18.182745 0 1 1 -36.36549,0 18.182745,18.182745 0 1 1 36.36549,0 z"
       transform="translate(216.17265,410.29311)" />
    <path
       sodipodi:type="arc"
       style="fill:#ffff00;fill-opacity:1;stroke:#000000;stroke-opacity:1;stroke-width:4.50000025000000026;stroke-miterlimit:4;stroke-dasharray:none"
       id="path3215"
       sodipodi:cx="405.07117"
       sodipodi:cy="362.25681"
       sodipodi:rx="18.182745"
       sodipodi:ry="18.182745"
       d="m 423.25391,362.25681 a 18.182745,18.182745 0 1 1 -36.36549,0 18.182745,18.182745 0 1 1 36.36549,0 z"
       transform="matrix(0.44444442,0,0,0.44444442,20.99384,421.99861)" />
    <path
       transform="matrix(0.44444442,0,0,0.44444442,4.02955,363.07004)"
       d="m 423.25391,362.25681 a 18.182745,18.182745 0 1 1 -36.36549,0 18.182745,18.182745 0 1 1 36.36549,0 z"
       sodipodi:ry="18.182745"
       sodipodi:rx="18.182745"
       sodipodi:cy="362.25681"
       sodipodi:cx="405.07117"
       id="path3209"
       style="fill:#ffff00;fill-opacity:1;stroke:#000000;stroke-opacity:1;stroke-width:4.50000025000000026;stroke-miterlimit:4;stroke-dasharray:none"
       sodipodi:type="arc" />
    <path
       sodipodi:type="arc"
       style="fill:#ffff00;fill-opacity:1;stroke:#000000;stroke-opacity:1;stroke-width:4.50000025000000026;stroke-miterlimit:4;stroke-dasharray:none"
       id="path3211"
       sodipodi:cx="405.07117"
       sodipodi:cy="362.25681"
       sodipodi:rx="18.182745"
       sodipodi:ry="18.182745"
       d="m 423.25391,362.25681 a 18.182745,18.182745 0 1 1 -36.36549,0 18.182745,18.182745 0 1 1 36.36549,0 z"
       transform="matrix(0.44444442,0,0,0.44444442,40.99384,321.99861)" />
    <path
       transform="matrix(0.44444442,0,0,0.44444442,120.99384,357.99861)"
       d="m 423.25391,362.25681 a 18.182745,18.182745 0 1 1 -36.36549,0 18.182745,18.182745 0 1 1 36.36549,0 z"
       sodipodi:ry="18.182745"
       sodipodi:rx="18.182745"
       sodipodi:cy="362.25681"
       sodipodi:cx="405.07117"
       id="path3203"
       style="fill:#ffff00;fill-opacity:1;stroke:#000000;stroke-opacity:1;stroke-width:4.50000025000000026;stroke-miterlimit:4;stroke-dasharray:none"
       sodipodi:type="arc" />
    <path
       sodipodi:type="arc"
       style="fill:#ffff00;fill-opacity:1;stroke:#000000;stroke-opacity:1;stroke-width:4.50000025000000026;stroke-miterlimit:4;stroke-dasharray:none"
       id="path3205"
       sodipodi:cx="405.07117"
       sodipodi:cy="362.25681"
       sodipodi:rx="18.182745"
       sodipodi:ry="18.182745"
       d="m 423.25391,362.25681 a 18.182745,18.182745 0 1 1 -36.36549,0 18.182745,18.182745 0 1 1 36.36549,0 z"
       transform="matrix(0.44444442,0,0,0.44444442,120.99384,401.99861)" />
    <path
       transform="matrix(0.44444442,0,0,0.44444442,80.99384,441.99861)"
       d="m 423.25391,362.25681 a 18.182745,18.182745 0 1 1 -36.36549,0 18.182745,18.182745 0 1 1 36.36549,0 z"
       sodipodi:ry="18.182745"
       sodipodi:rx="18.182745"
       sodipodi:cy="362.25681"
       sodipodi:cx="405.07117"
       id="path3207"
       style="fill:#ffff00;fill-opacity:1;stroke:#000000;stroke-opacity:1;stroke-width:4.50000025000000026;stroke-miterlimit:4;stroke-dasharray:none"
       sodipodi:type="arc" />
    <path
       sodipodi:type="arc"
       style="fill:#ffff00;fill-opacity:1;stroke:#000000;stroke-opacity:1;stroke-width:2;stroke-miterlimit:4;stroke-dasharray:none"
       id="path3227"
       sodipodi:cx="405.07117"
       sodipodi:cy="362.25681"
       sodipodi:rx="18.182745"
       sodipodi:ry="18.182745"
       d="m 423.25391,362.25681 a 18.182745,18.182745 0 1 1 -36.36549,0 18.182745,18.182745 0 1 1 36.36549,0 z"
       transform="translate(-155.56349,172.90726)" />
    <path
       transform="matrix(0.44444442,0,0,0.44444442,1.46919,595.58641)"
       d="m 423.25391,362.25681 a 18.182745,18.182745 0 1 1 -36.36549,0 18.182745,18.182745 0 1 1 36.36549,0 z"
       sodipodi:ry="18.182745"
       sodipodi:rx="18.182745"
       sodipodi:cy="362.25681"
       sodipodi:cx="405.07117"
       id="path3187"
       style="fill:#ffff00;fill-opacity:1;stroke:#000000;stroke-width:4.50000025000000026;stroke-miterlimit:4;stroke-dasharray:none;stroke-opacity:1"
       sodipodi:type="arc" />
    <path
       sodipodi:type="arc"
       style="fill:#ffff00;fill-opacity:1;stroke:#000000;stroke-width:4.50000025000000026;stroke-miterlimit:4;stroke-dasharray:none;stroke-opacity:1"
       id="path3181"
       sodipodi:cx="405.07117"
       sodipodi:cy="362.25681"
       sodipodi:rx="18.182745"
       sodipodi:ry="18.182745"
       d="m 423.25391,362.25681 a 18.182745,18.182745 0 1 1 -36.36549,0 18.182745,18.182745 0 1 1 36.36549,0 z"
       transform="matrix(0.44444442,0,0,0.44444442,-16.00543,543.16255)" />
    <path
       transform="matrix(0.44444442,0,0,0.44444442,43.22952,504.8152)"
       d="m 423.25391,362.25681 a 18.182745,18.182745 0 1 1 -36.36549,0 18.182745,18.182745 0 1 1 36.36549,0 z"
       sodipodi:ry="18.182745"
       sodipodi:rx="18.182745"
       sodipodi:cy="362.25681"
       sodipodi:cx="405.07117"
       id="path3183"
       style="fill:#ffff00;fill-opacity:1;stroke:#000000;stroke-width:4.50000025000000026;stroke-miterlimit:4;stroke-dasharray:none;stroke-opacity:1"
       sodipodi:type="arc" />
    <path
       sodipodi:type="arc"
       style="fill:#ffff00;fill-opacity:1;stroke:#000000;stroke-width:4.50000025000000026;stroke-miterlimit:4;stroke-dasharray:none;stroke-opacity:1"
       id="path3175"
       sodipodi:cx="405.07117"
       sodipodi:cy="362.25681"
       sodipodi:rx="18.182745"
       sodipodi:ry="18.182745"
       d="m 423.25391,362.25681 a 18.182745,18.182745 0 1 1 -36.36549,0 18.182745,18.182745 0 1 1 36.36549,0 z"
       transform="matrix(0.44444442,0,0,0.44444442,98.94381,547.24377)" />
    <path
       transform="matrix(0.44444442,0,0,0.44444442,100.90284,583.85146)"
       d="m 423.25391,362.25681 a 18.182745,18.182745 0 1 1 -36.36549,0 18.182745,18.182745 0 1 1 36.36549,0 z"
       sodipodi:ry="18.182745"
       sodipodi:rx="18.182745"
       sodipodi:cy="362.25681"
       sodipodi:cx="405.07117"
       id="path3177"
       style="fill:#ffff00;fill-opacity:1;stroke:#000000;stroke-width:4.50000025000000026;stroke-miterlimit:4;stroke-dasharray:none;stroke-opacity:1"
       sodipodi:type="arc" />
    <path
       sodipodi:type="arc"
       style="fill:#ffff00;fill-opacity:1;stroke:#000000;stroke-width:4.50000025000000026;stroke-miterlimit:4;stroke-dasharray:none;stroke-opacity:1"
       id="path3179"
       sodipodi:cx="405.07117"
       sodipodi:cy="362.25681"
       sodipodi:rx="18.182745"
       sodipodi:ry="18.182745"
       d="m 423.25391,362.25681 a 18.182745,18.182745 0 1 1 -36.36549,0 18.182745,18.182745 0 1 1 36.36549,0 z"
       transform="matrix(0.44444442,0,0,0.44444442,64.49965,615.08133)" />
    <path
       transform="translate(-177.61352,362.15242)"
       d="m 423.25391,362.25681 a 18.182745,18.182745 0 1 1 -36.36549,0 18.182745,18.182745 0 1 1 36.36549,0 z"
       sodipodi:ry="18.182745"
       sodipodi:rx="18.182745"
       sodipodi:cy="362.25681"
       sodipodi:cx="405.07117"
       id="path3199"
       style="fill:#ffff00;fill-opacity:1;stroke:#000000;stroke-width:2;stroke-miterlimit:4;stroke-dasharray:none;stroke-opacity:1"
       sodipodi:type="arc" />
    <path
       sodipodi:type="arc"
       style="fill:#ffff00;fill-opacity:1;stroke:#000000;stroke-width:4.50000025000000026;stroke-miterlimit:4;stroke-dasharray:none;stroke-opacity:1"
       id="path3125"
       sodipodi:cx="405.07117"
       sodipodi:cy="362.25681"
       sodipodi:rx="18.182745"
       sodipodi:ry="18.182745"
       d="m 423.25391,362.25681 a 18.182745,18.182745 0 1 1 -36.36549,0 18.182745,18.182745 0 1 1 36.36549,0 z"
       transform="matrix(0.44444442,0,0,0.44444442,173.26075,662.93125)" />
    <path
       transform="matrix(0.44444442,0,0,0.44444442,177.54646,716.50268)"
       d="m 423.25391,362.25681 a 18.182745,18.182745 0 1 1 -36.36549,0 18.182745,18.182745 0 1 1 36.36549,0 z"
       sodipodi:ry="18.182745"
       sodipodi:rx="18.182745"
       sodipodi:cy="362.25681"
       sodipodi:cx="405.07117"
       id="path3131"
       style="fill:#ffff00;fill-opacity:1;stroke:#000000;stroke-width:4.50000025000000026;stroke-miterlimit:4;stroke-dasharray:none;stroke-opacity:1"
       sodipodi:type="arc" />
    <path
       transform="matrix(0.44444442,0,0,0.44444442,236.83217,630.7884)"
       d="m 423.25391,362.25681 a 18.182745,18.182745 0 1 1 -36.36549,0 18.182745,18.182745 0 1 1 36.36549,0 z"
       sodipodi:ry="18.182745"
       sodipodi:rx="18.182745"
       sodipodi:cy="362.25681"
       sodipodi:cx="405.07117"
       id="path3127"
       style="fill:#ffff00;fill-opacity:1;stroke:#000000;stroke-width:4.50000025000000026;stroke-miterlimit:4;stroke-dasharray:none;stroke-opacity:1"
       sodipodi:type="arc" />
    <path
       sodipodi:type="arc"
       style="fill:#ffff00;fill-opacity:1;stroke:#000000;stroke-width:4.50000025000000026;stroke-miterlimit:4;stroke-dasharray:none;stroke-opacity:1"
       id="path3119"
       sodipodi:cx="405.07117"
       sodipodi:cy="362.25681"
       sodipodi:rx="18.182745"
       sodipodi:ry="18.182745"
       d="m 423.25391,362.25681 a 18.182745,18.182745 0 1 1 -36.36549,0 18.182745,18.182745 0 1 1 36.36549,0 z"
       transform="matrix(0.44444442,0,0,0.44444442,266.83217,651.7884)" />
    <path
       transform="matrix(0.44444442,0,0,0.44444442,258.97503,730.7884)"
       d="m 423.25391,362.25681 a 18.182745,18.182745 0 1 1 -36.36549,0 18.182745,18.182745 0 1 1 36.36549,0 z"
       sodipodi:ry="18.182745"
       sodipodi:rx="18.182745"
       sodipodi:cy="362.25681"
       sodipodi:cx="405.07117"
       id="path3121"
       style="fill:#ffff00;fill-opacity:1;stroke:#000000;stroke-width:4.50000025000000026;stroke-miterlimit:4;stroke-dasharray:none;stroke-opacity:1"
       sodipodi:type="arc" />
    <path
       sodipodi:type="arc"
       style="fill:#ffff00;fill-opacity:1;stroke:#000000;stroke-width:4.50000025000000026;stroke-miterlimit:4;stroke-dasharray:none;stroke-opacity:1"
       id="path3123"
       sodipodi:cx="405.07117"
       sodipodi:cy="362.25681"
       sodipodi:rx="18.182745"
       sodipodi:ry="18.182745"
       d="m 423.25391,362.25681 a 18.182745,18.182745 0 1 1 -36.36549,0 18.182745,18.182745 0 1 1 36.36549,0 z"
       transform="matrix(0.44444442,0,0,0.44444442,226.11789,732.93125)" />
    <path
       transform="translate(0.98913084,484.55419)"
       d="m 423.25391,362.25681 a 18.182745,18.182745 0 1 1 -36.36549,0 18.182745,18.182745 0 1 1 36.36549,0 z"
       sodipodi:ry="18.182745"
       sodipodi:rx="18.182745"
       sodipodi:cy="362.25681"
       sodipodi:cx="405.07117"
       id="path3143"
       style="fill:#ffff00;fill-opacity:1;stroke:#000000;stroke-width:2;stroke-miterlimit:4;stroke-dasharray:none;stroke-opacity:1"
       sodipodi:type="arc" />
    <path
       sodipodi:type="arc"
       style="fill:#ffff00;fill-opacity:1;stroke:#000000;stroke-opacity:1;stroke-width:4.50000025000000026;stroke-miterlimit:4;stroke-dasharray:none"
       id="path3028"
       sodipodi:cx="405.07117"
       sodipodi:cy="362.25681"
       sodipodi:rx="18.182745"
       sodipodi:ry="18.182745"
       d="m 423.25391,362.25681 a 18.182745,18.182745 0 1 1 -36.36549,0 18.182745,18.182745 0 1 1 36.36549,0 z"
       transform="matrix(0.44444442,0,0,0.44444442,175.12876,537.35905)" />
    <path
       transform="matrix(0.44444442,0,0,0.44444442,162.98591,489.50191)"
       d="m 423.25391,362.25681 a 18.182745,18.182745 0 1 1 -36.36549,0 18.182745,18.182745 0 1 1 36.36549,0 z"
       sodipodi:ry="18.182745"
       sodipodi:rx="18.182745"
       sodipodi:cy="362.25681"
       sodipodi:cx="405.07117"
       id="path3030"
       style="fill:#ffff00;fill-opacity:1;stroke:#000000;stroke-opacity:1;stroke-width:4.50000025000000026;stroke-miterlimit:4;stroke-dasharray:none"
       sodipodi:type="arc" />
    <path
       sodipodi:type="arc"
       style="fill:#ffff00;fill-opacity:1;stroke:#000000;stroke-opacity:1;stroke-width:4.50000025000000026;stroke-miterlimit:4;stroke-dasharray:none"
       id="path3032"
       sodipodi:cx="405.07117"
       sodipodi:cy="362.25681"
       sodipodi:rx="18.182745"
       sodipodi:ry="18.182745"
       d="m 423.25391,362.25681 a 18.182745,18.182745 0 1 1 -36.36549,0 18.182745,18.182745 0 1 1 36.36549,0 z"
       transform="matrix(0.44444442,0,0,0.44444442,217.27162,456.64476)" />
    <path
       transform="matrix(0.44444442,0,0,0.44444442,276.55733,481.21619)"
       d="m 423.25391,362.25681 a 18.182745,18.182745 0 1 1 -36.36549,0 18.182745,18.182745 0 1 1 36.36549,0 z"
       sodipodi:ry="18.182745"
       sodipodi:rx="18.182745"
       sodipodi:cy="362.25681"
       sodipodi:cx="405.07117"
       id="path3022"
       style="fill:#ffff00;fill-opacity:1;stroke:#000000;stroke-opacity:1;stroke-width:4.50000025000000026;stroke-miterlimit:4;stroke-dasharray:none"
       sodipodi:type="arc" />
    <path
       sodipodi:type="arc"
       style="fill:#ffff00;fill-opacity:1;stroke:#000000;stroke-opacity:1;stroke-width:4.50000025000000026;stroke-miterlimit:4;stroke-dasharray:none"
       id="path3024"
       sodipodi:cx="405.07117"
       sodipodi:cy="362.25681"
       sodipodi:rx="18.182745"
       sodipodi:ry="18.182745"
       d="m 423.25391,362.25681 a 18.182745,18.182745 0 1 1 -36.36549,0 18.182745,18.182745 0 1 1 36.36549,0 z"
       transform="matrix(0.44444442,0,0,0.44444442,270.12876,547.35905)" />
    <path
       transform="matrix(0.44444442,0,0,0.44444442,218.70019,571.64476)"
       d="m 423.25391,362.25681 a 18.182745,18.182745 0 1 1 -36.36549,0 18.182745,18.182745 0 1 1 36.36549,0 z"
       sodipodi:ry="18.182745"
       sodipodi:rx="18.182745"
       sodipodi:cy="362.25681"
       sodipodi:cx="405.07117"
       id="path3026"
       style="fill:#ffff00;fill-opacity:1;stroke:#000000;stroke-opacity:1;stroke-width:4.50000025000000026;stroke-miterlimit:4;stroke-dasharray:none"
       sodipodi:type="arc" />
    <path
       sodipodi:type="arc"
       style="fill:#ffff00;fill-opacity:1;stroke:#000000;stroke-opacity:1;stroke-width:2;stroke-miterlimit:4;stroke-dasharray:none"
       id="path3020"
       sodipodi:cx="405.07117"
       sodipodi:cy="362.25681"
       sodipodi:rx="18.182745"
       sodipodi:ry="18.182745"
       d="m 423.25391,362.25681 a 18.182745,18.182745 0 1 1 -36.36549,0 18.182745,18.182745 0 1 1 36.36549,0 z"
       transform="translate(0.71428572,309.69627)" />
    <path
       transform="matrix(0.72501402,0,0,0.72501402,167.10318,512.16895)"
       d="m 423.25391,362.25681 a 18.182745,18.182745 0 1 1 -36.36549,0 18.182745,18.182745 0 1 1 36.36549,0 z"
       sodipodi:ry="18.182745"
       sodipodi:rx="18.182745"
       sodipodi:cy="362.25681"
       sodipodi:cx="405.07117"
       id="path3252"
       style="fill:#ffff00;fill-opacity:1;stroke:#000000;stroke-width:2.75856733999999992;stroke-miterlimit:4;stroke-dasharray:none;stroke-opacity:1"
       sodipodi:type="arc" />
    <path
       sodipodi:type="arc"
       style="fill:#ffff00;fill-opacity:1;stroke:#000000;stroke-opacity:1;stroke-width:2.75856733999999992;stroke-miterlimit:4;stroke-dasharray:none"
       id="path3254"
       sodipodi:cx="405.07117"
       sodipodi:cy="362.25681"
       sodipodi:rx="18.182745"
       sodipodi:ry="18.182745"
       d="m 423.25391,362.25681 a 18.182745,18.182745 0 1 1 -36.36549,0 18.182745,18.182745 0 1 1 36.36549,0 z"
       transform="matrix(0.72501402,0,0,0.72501402,221.38889,438.59752)" />
    <path
       transform="matrix(0.72501402,0,0,0.72501402,-9.3254003,389.31181)"
       d="m 423.25391,362.25681 a 18.182745,18.182745 0 1 1 -36.36549,0 18.182745,18.182745 0 1 1 36.36549,0 z"
       sodipodi:ry="18.182745"
       sodipodi:rx="18.182745"
       sodipodi:cy="362.25681"
       sodipodi:cx="405.07117"
       id="path3256"
       style="fill:#ffff00;fill-opacity:1;stroke:#000000;stroke-width:2.75856733999999992;stroke-miterlimit:4;stroke-dasharray:none;stroke-opacity:1"
       sodipodi:type="arc" />
  </g>
</svg>
