<?xml version="1.0" encoding="UTF-8" standalone="no"?>
<!-- Created with Inkscape (http://www.inkscape.org/) -->

<svg
   xmlns:dc="http://purl.org/dc/elements/1.1/"
   xmlns:cc="http://creativecommons.org/ns#"
   xmlns:rdf="http://www.w3.org/1999/02/22-rdf-syntax-ns#"
   xmlns:svg="http://www.w3.org/2000/svg"
   xmlns="http://www.w3.org/2000/svg"
   xmlns:sodipodi="http://sodipodi.sourceforge.net/DTD/sodipodi-0.dtd"
   xmlns:inkscape="http://www.inkscape.org/namespaces/inkscape"
   width="1052.3622"
   height="744.09448"
   id="svg2"
   version="1.1"
   inkscape:version="0.48.1 r9760"
   sodipodi:docname="www.svg"
   inkscape:export-filename="/home/angelo/Dokumente/Vorträge/LinkedData/www.png"
   inkscape:export-xdpi="100"
   inkscape:export-ydpi="100">
  <defs
     id="defs4" />
  <sodipodi:namedview
     id="base"
     pagecolor="#ffffff"
     bordercolor="#666666"
     borderopacity="1.0"
     inkscape:pageopacity="0.0"
     inkscape:pageshadow="2"
     inkscape:zoom="0.61622934"
     inkscape:cx="688.65354"
     inkscape:cy="480.79568"
     inkscape:document-units="px"
     inkscape:current-layer="g3201"
     showgrid="false"
     inkscape:window-width="1862"
     inkscape:window-height="1056"
     inkscape:window-x="58"
     inkscape:window-y="24"
     inkscape:window-maximized="1" />
  <metadata
     id="metadata7">
    <rdf:RDF>
      <cc:Work
         rdf:about="">
        <dc:format>image/svg+xml</dc:format>
        <dc:type
           rdf:resource="http://purl.org/dc/dcmitype/StillImage" />
        <dc:title></dc:title>
      </cc:Work>
    </rdf:RDF>
  </metadata>
  <g
     inkscape:label="Ebene 1"
     inkscape:groupmode="layer"
     id="layer1"
     transform="translate(0,-308.2677)">
    <g
       transform="matrix(1.348206,0,0,1.348206,-6.1669605,-452.59422)"
       id="g3145"
       inkscape:export-filename="/home/angelo/Dokumente/Vorträge/LinkedData/www.png"
       inkscape:export-xdpi="50"
       inkscape:export-ydpi="50">
      <path
         transform="matrix(0.44444442,0,0,0.44444442,163.70019,575.21619)"
         d="m 423.25391,362.25681 c 0,10.04205 -8.14069,18.18274 -18.18274,18.18274 -10.04206,0 -18.18275,-8.14069 -18.18275,-18.18274 0,-10.04206 8.14069,-18.18275 18.18275,-18.18275 10.04205,0 18.18274,8.14069 18.18274,18.18275 z"
         sodipodi:ry="18.182745"
         sodipodi:rx="18.182745"
         sodipodi:cy="362.25681"
         sodipodi:cx="405.07117"
         id="path3159"
         style="fill:#000080;fill-opacity:1;stroke:none"
         sodipodi:type="arc" />
      <path
         sodipodi:type="arc"
         style="fill:#000080;fill-opacity:1;stroke:none"
         id="path3153"
         sodipodi:cx="405.07117"
         sodipodi:cy="362.25681"
         sodipodi:rx="18.182745"
         sodipodi:ry="18.182745"
         d="m 423.25391,362.25681 c 0,10.04205 -8.14069,18.18274 -18.18274,18.18274 -10.04206,0 -18.18275,-8.14069 -18.18275,-18.18274 0,-10.04206 8.14069,-18.18275 18.18275,-18.18275 10.04205,0 18.18274,8.14069 18.18274,18.18275 z"
         transform="matrix(0.44444442,0,0,0.44444442,147.9859,516.64476)" />
      <path
         transform="matrix(0.44444442,0,0,0.44444442,221.55733,471.64476)"
         d="m 423.25391,362.25681 c 0,10.04205 -8.14069,18.18274 -18.18274,18.18274 -10.04206,0 -18.18275,-8.14069 -18.18275,-18.18274 0,-10.04206 8.14069,-18.18275 18.18275,-18.18275 10.04205,0 18.18274,8.14069 18.18274,18.18275 z"
         sodipodi:ry="18.182745"
         sodipodi:rx="18.182745"
         sodipodi:cy="362.25681"
         sodipodi:cx="405.07117"
         id="path3155"
         style="fill:#000080;fill-opacity:1;stroke:none"
         sodipodi:type="arc" />
      <path
         sodipodi:type="arc"
         style="fill:#000080;fill-opacity:1;stroke:none"
         id="path3147"
         sodipodi:cx="405.07117"
         sodipodi:cy="362.25681"
         sodipodi:rx="18.182745"
         sodipodi:ry="18.182745"
         d="m 423.25391,362.25681 c 0,10.04205 -8.14069,18.18274 -18.18274,18.18274 -10.04206,0 -18.18275,-8.14069 -18.18275,-18.18274 0,-10.04206 8.14069,-18.18275 18.18275,-18.18275 10.04205,0 18.18274,8.14069 18.18274,18.18275 z"
         transform="matrix(0.44444442,0,0,0.44444442,272.9859,474.78762)" />
      <path
         transform="matrix(0.44444442,0,0,0.44444442,304.41447,528.07334)"
         d="m 423.25391,362.25681 c 0,10.04205 -8.14069,18.18274 -18.18274,18.18274 -10.04206,0 -18.18275,-8.14069 -18.18275,-18.18274 0,-10.04206 8.14069,-18.18275 18.18275,-18.18275 10.04205,0 18.18274,8.14069 18.18274,18.18275 z"
         sodipodi:ry="18.182745"
         sodipodi:rx="18.182745"
         sodipodi:cy="362.25681"
         sodipodi:cx="405.07117"
         id="path3149"
         style="fill:#000080;fill-opacity:1;stroke:none"
         sodipodi:type="arc" />
      <path
         sodipodi:type="arc"
         style="fill:#000080;fill-opacity:1;stroke:none"
         id="path3151"
         sodipodi:cx="405.07117"
         sodipodi:cy="362.25681"
         sodipodi:rx="18.182745"
         sodipodi:ry="18.182745"
         d="m 423.25391,362.25681 c 0,10.04205 -8.14069,18.18274 -18.18274,18.18274 -10.04206,0 -18.18275,-8.14069 -18.18275,-18.18274 0,-10.04206 8.14069,-18.18275 18.18275,-18.18275 10.04205,0 18.18274,8.14069 18.18274,18.18275 z"
         transform="matrix(0.44444442,0,0,0.44444442,259.41447,584.50191)" />
      <path
         transform="translate(0,308.2677)"
         d="m 423.25391,362.25681 c 0,10.04205 -8.14069,18.18274 -18.18274,18.18274 -10.04206,0 -18.18275,-8.14069 -18.18275,-18.18274 0,-10.04206 8.14069,-18.18275 18.18275,-18.18275 10.04205,0 18.18274,8.14069 18.18274,18.18275 z"
         sodipodi:ry="18.182745"
         sodipodi:rx="18.182745"
         sodipodi:cy="362.25681"
         sodipodi:cx="405.07117"
         id="path3171"
         style="fill:#000080;fill-opacity:1;stroke:none"
         sodipodi:type="arc" />
    </g>
    <g
       id="g3061"
       transform="matrix(1.348206,0,0,1.348206,211.73603,-350.68587)"
       inkscape:export-filename="/home/angelo/Dokumente/Vorträge/LinkedData/www.png"
       inkscape:export-xdpi="50"
       inkscape:export-ydpi="50">
      <path
         sodipodi:type="arc"
         style="fill:#000080;fill-opacity:1;stroke:none"
         id="path3071"
         sodipodi:cx="405.07117"
         sodipodi:cy="362.25681"
         sodipodi:rx="18.182745"
         sodipodi:ry="18.182745"
         d="m 423.25391,362.25681 c 0,10.04205 -8.14069,18.18274 -18.18274,18.18274 -10.04206,0 -18.18275,-8.14069 -18.18275,-18.18274 0,-10.04206 8.14069,-18.18275 18.18275,-18.18275 10.04205,0 18.18274,8.14069 18.18274,18.18275 z"
         transform="matrix(0.44444442,0,0,0.44444442,203.70019,442.35905)" />
      <path
         sodipodi:type="arc"
         style="fill:#000080;fill-opacity:1;stroke:none"
         id="path3075"
         sodipodi:cx="405.07117"
         sodipodi:cy="362.25681"
         sodipodi:rx="18.182745"
         sodipodi:ry="18.182745"
         d="m 423.25391,362.25681 c 0,10.04205 -8.14069,18.18274 -18.18274,18.18274 -10.04206,0 -18.18275,-8.14069 -18.18275,-18.18274 0,-10.04206 8.14069,-18.18275 18.18275,-18.18275 10.04205,0 18.18274,8.14069 18.18274,18.18275 z"
         transform="matrix(0.44444442,0,0,0.44444442,187.9859,560.21619)" />
      <path
         transform="matrix(0.44444442,0,0,0.44444442,147.27162,509.50191)"
         d="m 423.25391,362.25681 c 0,10.04205 -8.14069,18.18274 -18.18274,18.18274 -10.04206,0 -18.18275,-8.14069 -18.18275,-18.18274 0,-10.04206 8.14069,-18.18275 18.18275,-18.18275 10.04205,0 18.18274,8.14069 18.18274,18.18275 z"
         sodipodi:ry="18.182745"
         sodipodi:rx="18.182745"
         sodipodi:cy="362.25681"
         sodipodi:cx="405.07117"
         id="path3069"
         style="fill:#000080;fill-opacity:1;stroke:none"
         sodipodi:type="arc" />
      <path
         transform="matrix(0.44444442,0,0,0.44444442,261.55733,468.35905)"
         d="m 423.25391,362.25681 c 0,10.04205 -8.14069,18.18274 -18.18274,18.18274 -10.04206,0 -18.18275,-8.14069 -18.18275,-18.18274 0,-10.04206 8.14069,-18.18275 18.18275,-18.18275 10.04205,0 18.18274,8.14069 18.18274,18.18275 z"
         sodipodi:ry="18.182745"
         sodipodi:rx="18.182745"
         sodipodi:cy="362.25681"
         sodipodi:cx="405.07117"
         id="path3063"
         style="fill:#000080;fill-opacity:1;stroke:none"
         sodipodi:type="arc" />
      <path
         sodipodi:type="arc"
         style="fill:#000080;fill-opacity:1;stroke:none"
         id="path3065"
         sodipodi:cx="405.07117"
         sodipodi:cy="362.25681"
         sodipodi:rx="18.182745"
         sodipodi:ry="18.182745"
         d="m 423.25391,362.25681 c 0,10.04205 -8.14069,18.18274 -18.18274,18.18274 -10.04206,0 -18.18275,-8.14069 -18.18275,-18.18274 0,-10.04206 8.14069,-18.18275 18.18275,-18.18275 10.04205,0 18.18274,8.14069 18.18274,18.18275 z"
         transform="matrix(0.44444442,0,0,0.44444442,262.9859,535.93048)" />
      <path
         transform="matrix(0.44444442,0,0,0.44444442,248.70019,566.64476)"
         d="m 423.25391,362.25681 c 0,10.04205 -8.14069,18.18274 -18.18274,18.18274 -10.04206,0 -18.18275,-8.14069 -18.18275,-18.18274 0,-10.04206 8.14069,-18.18275 18.18275,-18.18275 10.04205,0 18.18274,8.14069 18.18274,18.18275 z"
         sodipodi:ry="18.182745"
         sodipodi:rx="18.182745"
         sodipodi:cy="362.25681"
         sodipodi:cx="405.07117"
         id="path3067"
         style="fill:#000080;fill-opacity:1;stroke:none"
         sodipodi:type="arc" />
      <path
         sodipodi:type="arc"
         style="fill:#000080;fill-opacity:1;stroke:none"
         id="path3087"
         sodipodi:cx="405.07117"
         sodipodi:cy="362.25681"
         sodipodi:rx="18.182745"
         sodipodi:ry="18.182745"
         d="m 423.25391,362.25681 c 0,10.04205 -8.14069,18.18274 -18.18274,18.18274 -10.04206,0 -18.18275,-8.14069 -18.18275,-18.18274 0,-10.04206 8.14069,-18.18275 18.18275,-18.18275 10.04205,0 18.18274,8.14069 18.18274,18.18275 z"
         transform="translate(0,308.2677)" />
    </g>
    <g
       transform="matrix(1.348206,0,0,1.348206,243.05959,-98.501861)"
       id="g3089"
       inkscape:export-filename="/home/angelo/Dokumente/Vorträge/LinkedData/www.png"
       inkscape:export-xdpi="50"
       inkscape:export-ydpi="50">
      <path
         sodipodi:type="arc"
         style="fill:#000080;fill-opacity:1;stroke:none"
         id="path3097"
         sodipodi:cx="405.07117"
         sodipodi:cy="362.25681"
         sodipodi:rx="18.182745"
         sodipodi:ry="18.182745"
         d="m 423.25391,362.25681 c 0,10.04205 -8.14069,18.18274 -18.18274,18.18274 -10.04206,0 -18.18275,-8.14069 -18.18275,-18.18274 0,-10.04206 8.14069,-18.18275 18.18275,-18.18275 10.04205,0 18.18274,8.14069 18.18274,18.18275 z"
         transform="matrix(0.44444442,0,0,0.44444442,156.55733,497.35905)" />
      <path
         transform="matrix(0.44444442,0,0,0.44444442,196.55733,457.35905)"
         d="m 423.25391,362.25681 c 0,10.04205 -8.14069,18.18274 -18.18274,18.18274 -10.04206,0 -18.18275,-8.14069 -18.18275,-18.18274 0,-10.04206 8.14069,-18.18275 18.18275,-18.18275 10.04205,0 18.18274,8.14069 18.18274,18.18275 z"
         sodipodi:ry="18.182745"
         sodipodi:rx="18.182745"
         sodipodi:cy="362.25681"
         sodipodi:cx="405.07117"
         id="path3099"
         style="fill:#000080;fill-opacity:1;stroke:none"
         sodipodi:type="arc" />
      <path
         transform="matrix(0.44444442,0,0,0.44444442,198.70019,548.78762)"
         d="m 423.25391,362.25681 c 0,10.04205 -8.14069,18.18274 -18.18274,18.18274 -10.04206,0 -18.18275,-8.14069 -18.18275,-18.18274 0,-10.04206 8.14069,-18.18275 18.18275,-18.18275 10.04205,0 18.18274,8.14069 18.18274,18.18275 z"
         sodipodi:ry="18.182745"
         sodipodi:rx="18.182745"
         sodipodi:cy="362.25681"
         sodipodi:cx="405.07117"
         id="path3103"
         style="fill:#000080;fill-opacity:1;stroke:none"
         sodipodi:type="arc" />
      <path
         sodipodi:type="arc"
         style="fill:#000080;fill-opacity:1;stroke:none"
         id="path3091"
         sodipodi:cx="405.07117"
         sodipodi:cy="362.25681"
         sodipodi:rx="18.182745"
         sodipodi:ry="18.182745"
         d="m 423.25391,362.25681 c 0,10.04205 -8.14069,18.18274 -18.18274,18.18274 -10.04206,0 -18.18275,-8.14069 -18.18275,-18.18274 0,-10.04206 8.14069,-18.18275 18.18275,-18.18275 10.04205,0 18.18274,8.14069 18.18274,18.18275 z"
         transform="matrix(0.44444442,0,0,0.44444442,276.55733,493.35905)" />
      <path
         transform="matrix(0.44444442,0,0,0.44444442,276.55733,537.35905)"
         d="m 423.25391,362.25681 c 0,10.04205 -8.14069,18.18274 -18.18274,18.18274 -10.04206,0 -18.18275,-8.14069 -18.18275,-18.18274 0,-10.04206 8.14069,-18.18275 18.18275,-18.18275 10.04205,0 18.18274,8.14069 18.18274,18.18275 z"
         sodipodi:ry="18.182745"
         sodipodi:rx="18.182745"
         sodipodi:cy="362.25681"
         sodipodi:cx="405.07117"
         id="path3093"
         style="fill:#000080;fill-opacity:1;stroke:none"
         sodipodi:type="arc" />
      <path
         sodipodi:type="arc"
         style="fill:#000080;fill-opacity:1;stroke:none"
         id="path3095"
         sodipodi:cx="405.07117"
         sodipodi:cy="362.25681"
         sodipodi:rx="18.182745"
         sodipodi:ry="18.182745"
         d="m 423.25391,362.25681 c 0,10.04205 -8.14069,18.18274 -18.18274,18.18274 -10.04206,0 -18.18275,-8.14069 -18.18275,-18.18274 0,-10.04206 8.14069,-18.18275 18.18275,-18.18275 10.04205,0 18.18274,8.14069 18.18274,18.18275 z"
         transform="matrix(0.44444442,0,0,0.44444442,236.55733,577.35905)" />
      <path
         transform="translate(0,308.2677)"
         d="m 423.25391,362.25681 c 0,10.04205 -8.14069,18.18274 -18.18274,18.18274 -10.04206,0 -18.18275,-8.14069 -18.18275,-18.18274 0,-10.04206 8.14069,-18.18275 18.18275,-18.18275 10.04205,0 18.18274,8.14069 18.18274,18.18275 z"
         sodipodi:ry="18.182745"
         sodipodi:rx="18.182745"
         sodipodi:cy="362.25681"
         sodipodi:cx="405.07117"
         id="path3115"
         style="fill:#000080;fill-opacity:1;stroke:none"
         sodipodi:type="arc" />
    </g>
    <g
       transform="matrix(1.348206,0,0,1.348206,-258.1173,-418.54689)"
       id="g3201"
       inkscape:export-filename="/home/angelo/Dokumente/Vorträge/LinkedData/www.png"
       inkscape:export-xdpi="50"
       inkscape:export-ydpi="50">
      <path
         transform="matrix(0.44444442,0,0,0.44444442,176.55733,557.35905)"
         d="m 423.25391,362.25681 c 0,10.04205 -8.14069,18.18274 -18.18274,18.18274 -10.04206,0 -18.18275,-8.14069 -18.18275,-18.18274 0,-10.04206 8.14069,-18.18275 18.18275,-18.18275 10.04205,0 18.18274,8.14069 18.18274,18.18275 z"
         sodipodi:ry="18.182745"
         sodipodi:rx="18.182745"
         sodipodi:cy="362.25681"
         sodipodi:cx="405.07117"
         id="path3215"
         style="fill:#000080;fill-opacity:1;stroke:none"
         sodipodi:type="arc" />
      <path
         sodipodi:type="arc"
         style="fill:#000080;fill-opacity:1;stroke:none"
         id="path3209"
         sodipodi:cx="405.07117"
         sodipodi:cy="362.25681"
         sodipodi:rx="18.182745"
         sodipodi:ry="18.182745"
         d="m 423.25391,362.25681 c 0,10.04205 -8.14069,18.18274 -18.18274,18.18274 -10.04206,0 -18.18275,-8.14069 -18.18275,-18.18274 0,-10.04206 8.14069,-18.18275 18.18275,-18.18275 10.04205,0 18.18274,8.14069 18.18274,18.18275 z"
         transform="matrix(0.44444442,0,0,0.44444442,159.59304,498.43048)" />
      <path
         transform="matrix(0.44444442,0,0,0.44444442,196.55733,457.35905)"
         d="m 423.25391,362.25681 c 0,10.04205 -8.14069,18.18274 -18.18274,18.18274 -10.04206,0 -18.18275,-8.14069 -18.18275,-18.18274 0,-10.04206 8.14069,-18.18275 18.18275,-18.18275 10.04205,0 18.18274,8.14069 18.18274,18.18275 z"
         sodipodi:ry="18.182745"
         sodipodi:rx="18.182745"
         sodipodi:cy="362.25681"
         sodipodi:cx="405.07117"
         id="path3211"
         style="fill:#000080;fill-opacity:1;stroke:none"
         sodipodi:type="arc" />
      <path
         sodipodi:type="arc"
         style="fill:#000080;fill-opacity:1;stroke:none"
         id="path3203"
         sodipodi:cx="405.07117"
         sodipodi:cy="362.25681"
         sodipodi:rx="18.182745"
         sodipodi:ry="18.182745"
         d="m 423.25391,362.25681 c 0,10.04205 -8.14069,18.18274 -18.18274,18.18274 -10.04206,0 -18.18275,-8.14069 -18.18275,-18.18274 0,-10.04206 8.14069,-18.18275 18.18275,-18.18275 10.04205,0 18.18274,8.14069 18.18274,18.18275 z"
         transform="matrix(0.44444442,0,0,0.44444442,276.55733,493.35905)" />
      <path
         transform="matrix(0.44444442,0,0,0.44444442,276.55733,537.35905)"
         d="m 423.25391,362.25681 c 0,10.04205 -8.14069,18.18274 -18.18274,18.18274 -10.04206,0 -18.18275,-8.14069 -18.18275,-18.18274 0,-10.04206 8.14069,-18.18275 18.18275,-18.18275 10.04205,0 18.18274,8.14069 18.18274,18.18275 z"
         sodipodi:ry="18.182745"
         sodipodi:rx="18.182745"
         sodipodi:cy="362.25681"
         sodipodi:cx="405.07117"
         id="path3205"
         style="fill:#000080;fill-opacity:1;stroke:none"
         sodipodi:type="arc" />
      <path
         sodipodi:type="arc"
         style="fill:#000080;fill-opacity:1;stroke:none"
         id="path3207"
         sodipodi:cx="405.07117"
         sodipodi:cy="362.25681"
         sodipodi:rx="18.182745"
         sodipodi:ry="18.182745"
         d="m 423.25391,362.25681 c 0,10.04205 -8.14069,18.18274 -18.18274,18.18274 -10.04206,0 -18.18275,-8.14069 -18.18275,-18.18274 0,-10.04206 8.14069,-18.18275 18.18275,-18.18275 10.04205,0 18.18274,8.14069 18.18274,18.18275 z"
         transform="matrix(0.44444442,0,0,0.44444442,236.55733,577.35905)" />
      <path
         transform="translate(0,308.2677)"
         d="m 423.25391,362.25681 c 0,10.04205 -8.14069,18.18274 -18.18274,18.18274 -10.04206,0 -18.18275,-8.14069 -18.18275,-18.18274 0,-10.04206 8.14069,-18.18275 18.18275,-18.18275 10.04205,0 18.18274,8.14069 18.18274,18.18275 z"
         sodipodi:ry="18.182745"
         sodipodi:rx="18.182745"
         sodipodi:cy="362.25681"
         sodipodi:cx="405.07117"
         id="path3227"
         style="fill:#000080;fill-opacity:1;stroke:none"
         sodipodi:type="arc" />
    </g>
    <g
       id="g3173"
       transform="matrix(1.348206,0,0,1.348206,-287.84528,-163.40543)"
       inkscape:export-filename="/home/angelo/Dokumente/Vorträge/LinkedData/www.png"
       inkscape:export-xdpi="50"
       inkscape:export-ydpi="50">
      <path
         sodipodi:type="arc"
         style="fill:#000080;fill-opacity:1;stroke:none"
         id="path3187"
         sodipodi:cx="405.07117"
         sodipodi:cy="362.25681"
         sodipodi:rx="18.182745"
         sodipodi:ry="18.182745"
         d="m 423.25391,362.25681 c 0,10.04205 -8.14069,18.18274 -18.18274,18.18274 -10.04206,0 -18.18275,-8.14069 -18.18275,-18.18274 0,-10.04206 8.14069,-18.18275 18.18275,-18.18275 10.04205,0 18.18274,8.14069 18.18274,18.18275 z"
         transform="matrix(0.44444442,0,0,0.44444442,179.08271,541.70169)" />
      <path
         transform="matrix(0.44444442,0,0,0.44444442,161.60809,489.27783)"
         d="m 423.25391,362.25681 c 0,10.04205 -8.14069,18.18274 -18.18274,18.18274 -10.04206,0 -18.18275,-8.14069 -18.18275,-18.18274 0,-10.04206 8.14069,-18.18275 18.18275,-18.18275 10.04205,0 18.18274,8.14069 18.18274,18.18275 z"
         sodipodi:ry="18.182745"
         sodipodi:rx="18.182745"
         sodipodi:cy="362.25681"
         sodipodi:cx="405.07117"
         id="path3181"
         style="fill:#000080;fill-opacity:1;stroke:none"
         sodipodi:type="arc" />
      <path
         sodipodi:type="arc"
         style="fill:#000080;fill-opacity:1;stroke:none"
         id="path3183"
         sodipodi:cx="405.07117"
         sodipodi:cy="362.25681"
         sodipodi:rx="18.182745"
         sodipodi:ry="18.182745"
         d="m 423.25391,362.25681 c 0,10.04205 -8.14069,18.18274 -18.18274,18.18274 -10.04206,0 -18.18275,-8.14069 -18.18275,-18.18274 0,-10.04206 8.14069,-18.18275 18.18275,-18.18275 10.04205,0 18.18274,8.14069 18.18274,18.18275 z"
         transform="matrix(0.44444442,0,0,0.44444442,220.84304,450.93048)" />
      <path
         transform="matrix(0.44444442,0,0,0.44444442,276.55733,493.35905)"
         d="m 423.25391,362.25681 c 0,10.04205 -8.14069,18.18274 -18.18274,18.18274 -10.04206,0 -18.18275,-8.14069 -18.18275,-18.18274 0,-10.04206 8.14069,-18.18275 18.18275,-18.18275 10.04205,0 18.18274,8.14069 18.18274,18.18275 z"
         sodipodi:ry="18.182745"
         sodipodi:rx="18.182745"
         sodipodi:cy="362.25681"
         sodipodi:cx="405.07117"
         id="path3175"
         style="fill:#000080;fill-opacity:1;stroke:none"
         sodipodi:type="arc" />
      <path
         sodipodi:type="arc"
         style="fill:#000080;fill-opacity:1;stroke:none"
         id="path3177"
         sodipodi:cx="405.07117"
         sodipodi:cy="362.25681"
         sodipodi:rx="18.182745"
         sodipodi:ry="18.182745"
         d="m 423.25391,362.25681 c 0,10.04205 -8.14069,18.18274 -18.18274,18.18274 -10.04206,0 -18.18275,-8.14069 -18.18275,-18.18274 0,-10.04206 8.14069,-18.18275 18.18275,-18.18275 10.04205,0 18.18274,8.14069 18.18274,18.18275 z"
         transform="matrix(0.44444442,0,0,0.44444442,278.51636,529.96674)" />
      <path
         transform="matrix(0.44444442,0,0,0.44444442,242.11317,561.19661)"
         d="m 423.25391,362.25681 c 0,10.04205 -8.14069,18.18274 -18.18274,18.18274 -10.04206,0 -18.18275,-8.14069 -18.18275,-18.18274 0,-10.04206 8.14069,-18.18275 18.18275,-18.18275 10.04205,0 18.18274,8.14069 18.18274,18.18275 z"
         sodipodi:ry="18.182745"
         sodipodi:rx="18.182745"
         sodipodi:cy="362.25681"
         sodipodi:cx="405.07117"
         id="path3179"
         style="fill:#000080;fill-opacity:1;stroke:none"
         sodipodi:type="arc" />
      <path
         sodipodi:type="arc"
         style="fill:#000080;fill-opacity:1;stroke:none"
         id="path3199"
         sodipodi:cx="405.07117"
         sodipodi:cy="362.25681"
         sodipodi:rx="18.182745"
         sodipodi:ry="18.182745"
         d="m 423.25391,362.25681 c 0,10.04205 -8.14069,18.18274 -18.18274,18.18274 -10.04206,0 -18.18275,-8.14069 -18.18275,-18.18274 0,-10.04206 8.14069,-18.18275 18.18275,-18.18275 10.04205,0 18.18274,8.14069 18.18274,18.18275 z"
         transform="translate(0,308.2677)" />
    </g>
    <g
       id="g3117"
       transform="matrix(1.348206,0,0,1.348206,-47.052119,1.6173704)"
       inkscape:export-filename="/home/angelo/Dokumente/Vorträge/LinkedData/www.png"
       inkscape:export-xdpi="50"
       inkscape:export-ydpi="50">
      <path
         transform="matrix(0.44444442,0,0,0.44444442,172.27162,486.64476)"
         d="m 423.25391,362.25681 c 0,10.04205 -8.14069,18.18274 -18.18274,18.18274 -10.04206,0 -18.18275,-8.14069 -18.18275,-18.18274 0,-10.04206 8.14069,-18.18275 18.18275,-18.18275 10.04205,0 18.18274,8.14069 18.18274,18.18275 z"
         sodipodi:ry="18.182745"
         sodipodi:rx="18.182745"
         sodipodi:cy="362.25681"
         sodipodi:cx="405.07117"
         id="path3125"
         style="fill:#000080;fill-opacity:1;stroke:none"
         sodipodi:type="arc" />
      <path
         sodipodi:type="arc"
         style="fill:#000080;fill-opacity:1;stroke:none"
         id="path3131"
         sodipodi:cx="405.07117"
         sodipodi:cy="362.25681"
         sodipodi:rx="18.182745"
         sodipodi:ry="18.182745"
         d="m 423.25391,362.25681 c 0,10.04205 -8.14069,18.18274 -18.18274,18.18274 -10.04206,0 -18.18275,-8.14069 -18.18275,-18.18274 0,-10.04206 8.14069,-18.18275 18.18275,-18.18275 10.04205,0 18.18274,8.14069 18.18274,18.18275 z"
         transform="matrix(0.44444442,0,0,0.44444442,176.55733,540.21619)" />
      <path
         sodipodi:type="arc"
         style="fill:#000080;fill-opacity:1;stroke:none"
         id="path3127"
         sodipodi:cx="405.07117"
         sodipodi:cy="362.25681"
         sodipodi:rx="18.182745"
         sodipodi:ry="18.182745"
         d="m 423.25391,362.25681 c 0,10.04205 -8.14069,18.18274 -18.18274,18.18274 -10.04206,0 -18.18275,-8.14069 -18.18275,-18.18274 0,-10.04206 8.14069,-18.18275 18.18275,-18.18275 10.04205,0 18.18274,8.14069 18.18274,18.18275 z"
         transform="matrix(0.44444442,0,0,0.44444442,235.84304,454.50191)" />
      <path
         transform="matrix(0.44444442,0,0,0.44444442,265.84304,475.50191)"
         d="m 423.25391,362.25681 c 0,10.04205 -8.14069,18.18274 -18.18274,18.18274 -10.04206,0 -18.18275,-8.14069 -18.18275,-18.18274 0,-10.04206 8.14069,-18.18275 18.18275,-18.18275 10.04205,0 18.18274,8.14069 18.18274,18.18275 z"
         sodipodi:ry="18.182745"
         sodipodi:rx="18.182745"
         sodipodi:cy="362.25681"
         sodipodi:cx="405.07117"
         id="path3119"
         style="fill:#000080;fill-opacity:1;stroke:none"
         sodipodi:type="arc" />
      <path
         sodipodi:type="arc"
         style="fill:#000080;fill-opacity:1;stroke:none"
         id="path3121"
         sodipodi:cx="405.07117"
         sodipodi:cy="362.25681"
         sodipodi:rx="18.182745"
         sodipodi:ry="18.182745"
         d="m 423.25391,362.25681 c 0,10.04205 -8.14069,18.18274 -18.18274,18.18274 -10.04206,0 -18.18275,-8.14069 -18.18275,-18.18274 0,-10.04206 8.14069,-18.18275 18.18275,-18.18275 10.04205,0 18.18274,8.14069 18.18274,18.18275 z"
         transform="matrix(0.44444442,0,0,0.44444442,257.9859,554.50191)" />
      <path
         transform="matrix(0.44444442,0,0,0.44444442,225.12876,556.64476)"
         d="m 423.25391,362.25681 c 0,10.04205 -8.14069,18.18274 -18.18274,18.18274 -10.04206,0 -18.18275,-8.14069 -18.18275,-18.18274 0,-10.04206 8.14069,-18.18275 18.18275,-18.18275 10.04205,0 18.18274,8.14069 18.18274,18.18275 z"
         sodipodi:ry="18.182745"
         sodipodi:rx="18.182745"
         sodipodi:cy="362.25681"
         sodipodi:cx="405.07117"
         id="path3123"
         style="fill:#000080;fill-opacity:1;stroke:none"
         sodipodi:type="arc" />
      <path
         sodipodi:type="arc"
         style="fill:#000080;fill-opacity:1;stroke:none"
         id="path3143"
         sodipodi:cx="405.07117"
         sodipodi:cy="362.25681"
         sodipodi:rx="18.182745"
         sodipodi:ry="18.182745"
         d="m 423.25391,362.25681 c 0,10.04205 -8.14069,18.18274 -18.18274,18.18274 -10.04206,0 -18.18275,-8.14069 -18.18275,-18.18274 0,-10.04206 8.14069,-18.18275 18.18275,-18.18275 10.04205,0 18.18274,8.14069 18.18274,18.18275 z"
         transform="translate(0,308.2677)" />
    </g>
    <g
       id="g3046"
       transform="matrix(1.348206,0,0,1.348206,-47.422669,-234.12712)"
       inkscape:export-filename="/home/angelo/Dokumente/Vorträge/LinkedData/www.png"
       inkscape:export-xdpi="50"
       inkscape:export-ydpi="50">
      <path
         transform="matrix(0.44444442,0,0,0.44444442,174.41447,535.93048)"
         d="m 423.25391,362.25681 c 0,10.04205 -8.14069,18.18274 -18.18274,18.18274 -10.04206,0 -18.18275,-8.14069 -18.18275,-18.18274 0,-10.04206 8.14069,-18.18275 18.18275,-18.18275 10.04205,0 18.18274,8.14069 18.18274,18.18275 z"
         sodipodi:ry="18.182745"
         sodipodi:rx="18.182745"
         sodipodi:cy="362.25681"
         sodipodi:cx="405.07117"
         id="path3028"
         style="fill:#000080;fill-opacity:1;stroke:none"
         sodipodi:type="arc" />
      <path
         sodipodi:type="arc"
         style="fill:#000080;fill-opacity:1;stroke:none"
         id="path3030"
         sodipodi:cx="405.07117"
         sodipodi:cy="362.25681"
         sodipodi:rx="18.182745"
         sodipodi:ry="18.182745"
         d="m 423.25391,362.25681 c 0,10.04205 -8.14069,18.18274 -18.18274,18.18274 -10.04206,0 -18.18275,-8.14069 -18.18275,-18.18274 0,-10.04206 8.14069,-18.18275 18.18275,-18.18275 10.04205,0 18.18274,8.14069 18.18274,18.18275 z"
         transform="matrix(0.44444442,0,0,0.44444442,162.27162,488.07334)" />
      <path
         transform="matrix(0.44444442,0,0,0.44444442,216.55733,455.21619)"
         d="m 423.25391,362.25681 c 0,10.04205 -8.14069,18.18274 -18.18274,18.18274 -10.04206,0 -18.18275,-8.14069 -18.18275,-18.18274 0,-10.04206 8.14069,-18.18275 18.18275,-18.18275 10.04205,0 18.18274,8.14069 18.18274,18.18275 z"
         sodipodi:ry="18.182745"
         sodipodi:rx="18.182745"
         sodipodi:cy="362.25681"
         sodipodi:cx="405.07117"
         id="path3032"
         style="fill:#000080;fill-opacity:1;stroke:none"
         sodipodi:type="arc" />
      <path
         sodipodi:type="arc"
         style="fill:#000080;fill-opacity:1;stroke:none"
         id="path3022"
         sodipodi:cx="405.07117"
         sodipodi:cy="362.25681"
         sodipodi:rx="18.182745"
         sodipodi:ry="18.182745"
         d="m 423.25391,362.25681 c 0,10.04205 -8.14069,18.18274 -18.18274,18.18274 -10.04206,0 -18.18275,-8.14069 -18.18275,-18.18274 0,-10.04206 8.14069,-18.18275 18.18275,-18.18275 10.04205,0 18.18274,8.14069 18.18274,18.18275 z"
         transform="matrix(0.44444442,0,0,0.44444442,275.84304,479.78762)" />
      <path
         transform="matrix(0.44444442,0,0,0.44444442,269.41447,545.93048)"
         d="m 423.25391,362.25681 c 0,10.04205 -8.14069,18.18274 -18.18274,18.18274 -10.04206,0 -18.18275,-8.14069 -18.18275,-18.18274 0,-10.04206 8.14069,-18.18275 18.18275,-18.18275 10.04205,0 18.18274,8.14069 18.18274,18.18275 z"
         sodipodi:ry="18.182745"
         sodipodi:rx="18.182745"
         sodipodi:cy="362.25681"
         sodipodi:cx="405.07117"
         id="path3024"
         style="fill:#000080;fill-opacity:1;stroke:none"
         sodipodi:type="arc" />
      <path
         sodipodi:type="arc"
         style="fill:#000080;fill-opacity:1;stroke:none"
         id="path3026"
         sodipodi:cx="405.07117"
         sodipodi:cy="362.25681"
         sodipodi:rx="18.182745"
         sodipodi:ry="18.182745"
         d="m 423.25391,362.25681 c 0,10.04205 -8.14069,18.18274 -18.18274,18.18274 -10.04206,0 -18.18275,-8.14069 -18.18275,-18.18274 0,-10.04206 8.14069,-18.18275 18.18275,-18.18275 10.04205,0 18.18274,8.14069 18.18274,18.18275 z"
         transform="matrix(0.44444442,0,0,0.44444442,217.9859,570.21619)" />
      <path
         transform="translate(0,308.2677)"
         d="m 423.25391,362.25681 c 0,10.04205 -8.14069,18.18274 -18.18274,18.18274 -10.04206,0 -18.18275,-8.14069 -18.18275,-18.18274 0,-10.04206 8.14069,-18.18275 18.18275,-18.18275 10.04205,0 18.18274,8.14069 18.18274,18.18275 z"
         sodipodi:ry="18.182745"
         sodipodi:rx="18.182745"
         sodipodi:cy="362.25681"
         sodipodi:cx="405.07117"
         id="path3020"
         style="fill:#000080;fill-opacity:1;stroke:none"
         sodipodi:type="arc" />
      <path
         sodipodi:type="arc"
         style="fill:#000080;fill-opacity:1;stroke:none"
         id="path3252"
         sodipodi:cx="405.07117"
         sodipodi:cy="362.25681"
         sodipodi:rx="18.182745"
         sodipodi:ry="18.182745"
         d="m 423.25391,362.25681 c 0,10.04205 -8.14069,18.18274 -18.18274,18.18274 -10.04206,0 -18.18275,-8.14069 -18.18275,-18.18274 0,-10.04206 8.14069,-18.18275 18.18275,-18.18275 10.04205,0 18.18274,8.14069 18.18274,18.18275 z"
         transform="matrix(0.72501402,0,0,0.72501402,166.38889,510.74038)" />
      <path
         transform="matrix(0.72501402,0,0,0.72501402,220.6746,437.16895)"
         d="m 423.25391,362.25681 c 0,10.04205 -8.14069,18.18274 -18.18274,18.18274 -10.04206,0 -18.18275,-8.14069 -18.18275,-18.18274 0,-10.04206 8.14069,-18.18275 18.18275,-18.18275 10.04205,0 18.18274,8.14069 18.18274,18.18275 z"
         sodipodi:ry="18.182745"
         sodipodi:rx="18.182745"
         sodipodi:cy="362.25681"
         sodipodi:cx="405.07117"
         id="path3254"
         style="fill:#000080;fill-opacity:1;stroke:none"
         sodipodi:type="arc" />
      <path
         sodipodi:type="arc"
         style="fill:#000080;fill-opacity:1;stroke:none"
         id="path3256"
         sodipodi:cx="405.07117"
         sodipodi:cy="362.25681"
         sodipodi:rx="18.182745"
         sodipodi:ry="18.182745"
         d="m 423.25391,362.25681 c 0,10.04205 -8.14069,18.18274 -18.18274,18.18274 -10.04206,0 -18.18275,-8.14069 -18.18275,-18.18274 0,-10.04206 8.14069,-18.18275 18.18275,-18.18275 10.04205,0 18.18274,8.14069 18.18274,18.18275 z"
         transform="matrix(0.72501402,0,0,0.72501402,-10.039686,387.88324)" />
    </g>
  </g>
</svg>
