<?xml version="1.0" encoding="UTF-8" standalone="no"?>
<!-- Created with Inkscape (http://www.inkscape.org/) -->

<svg
   xmlns:dc="http://purl.org/dc/elements/1.1/"
   xmlns:cc="http://creativecommons.org/ns#"
   xmlns:rdf="http://www.w3.org/1999/02/22-rdf-syntax-ns#"
   xmlns:svg="http://www.w3.org/2000/svg"
   xmlns="http://www.w3.org/2000/svg"
   xmlns:sodipodi="http://sodipodi.sourceforge.net/DTD/sodipodi-0.dtd"
   xmlns:inkscape="http://www.inkscape.org/namespaces/inkscape"
   width="1052.3622"
   height="744.09448"
   id="svg2"
   version="1.1"
   inkscape:version="0.48.2 r9819"
   sodipodi:docname="webwithsilos.svg"

   inkscape:export-xdpi="100.00935"
   inkscape:export-ydpi="100.00935">
  <defs
     id="defs4" />
  <sodipodi:namedview
     id="base"
     pagecolor="#ffffff"
     bordercolor="#666666"
     borderopacity="1.0"
     inkscape:pageopacity="0.0"
     inkscape:pageshadow="2"
     inkscape:zoom="0.87147989"
     inkscape:cx="284.58792"
     inkscape:cy="442.36483"
     inkscape:document-units="px"
     inkscape:current-layer="layer1"
     showgrid="false"
     inkscape:window-width="1862"
     inkscape:window-height="1056"
     inkscape:window-x="58"
     inkscape:window-y="24"
     inkscape:window-maximized="1" />
  <metadata
     id="metadata7">
    <rdf:RDF>
      <cc:Work
         rdf:about="">
        <dc:format>image/svg+xml</dc:format>
        <dc:type
           rdf:resource="http://purl.org/dc/dcmitype/StillImage" />
        <dc:title></dc:title>
      </cc:Work>
    </rdf:RDF>
  </metadata>
  <g
     inkscape:label="Ebene 1"
     inkscape:groupmode="layer"
     id="layer1"
     transform="translate(0,-308.2677)">
    <g
       id="g4484"
       transform="matrix(1.2896613,0,0,1.0965665,-308.89127,-275.40672)"
       style="stroke:#000000;stroke-opacity:1;stroke-width:1.68180126;stroke-miterlimit:4;stroke-dasharray:none">
      <path
         id="path4486"
         transform="matrix(0.74172641,0,0,0.74172641,191.45242,539.09758)"
         d="m 783.71875,172.65625 0,219.90625 0,0.40625 c -0.006,0.1735 -0.0312,0.35716 -0.0312,0.53125 0,19.64569 38.95179,35.5625 87,35.5625 48.04821,0 87,-15.91681 87,-35.5625 0,-0.17409 -0.0252,-0.35775 -0.0312,-0.53125 l 0.46875,0 0,-220.3125 -174.40625,0 z"
         style="fill:#ffffff;stroke:#000000;stroke-width:2.26741456;stroke-miterlimit:4;stroke-opacity:1;stroke-dashoffset:0;stroke-dasharray:none"
         inkscape:connector-curvature="0" />
      <path
         transform="matrix(0.95315453,0,0,0.74172641,76.02976,549.93046)"
         d="m 866.34241,158.88304 c 0,19.64569 -30.31074,35.57168 -67.70093,35.57168 -37.39019,0 -67.70093,-15.92599 -67.70093,-35.57168 0,-19.64569 30.31074,-35.57167 67.70093,-35.57167 37.39019,0 67.70093,15.92598 67.70093,35.57167 z"
         sodipodi:ry="35.571674"
         sodipodi:rx="67.700928"
         sodipodi:cy="158.88304"
         sodipodi:cx="798.64148"
         id="path4488"
         style="fill:#ffffff;stroke:#000000;stroke-width:2.00018951;stroke-miterlimit:4;stroke-opacity:1;stroke-dasharray:none;stroke-dashoffset:0"
         sodipodi:type="arc" />
    </g>
    <g
       id="g3061"
       transform="matrix(1.1430796,0,0,1.1430796,308.67095,-213.06594)"

       inkscape:export-xdpi="100"
       inkscape:export-ydpi="100"
       style="stroke:#000000;stroke-opacity:1;stroke-width:2.62448914;stroke-miterlimit:4;stroke-dasharray:none;fill:#ffff00;fill-opacity:1">
      <path
         sodipodi:type="arc"
         style="fill:#ffff00;fill-opacity:1;stroke:#000000;stroke-opacity:1;stroke-width:5.9051009;stroke-miterlimit:4;stroke-dasharray:none"
         id="path3071"
         sodipodi:cx="405.07117"
         sodipodi:cy="362.25681"
         sodipodi:rx="18.182745"
         sodipodi:ry="18.182745"
         d="m 423.25391,362.25681 c 0,10.04205 -8.14069,18.18274 -18.18274,18.18274 -10.04206,0 -18.18275,-8.14069 -18.18275,-18.18274 0,-10.04206 8.14069,-18.18275 18.18275,-18.18275 10.04205,0 18.18274,8.14069 18.18274,18.18275 z"
         transform="matrix(0.44444442,0,0,0.44444442,207.71557,466.4513)" />
      <path
         sodipodi:type="arc"
         style="fill:#ffff00;fill-opacity:1;stroke:#000000;stroke-opacity:1;stroke-width:5.9051009;stroke-miterlimit:4;stroke-dasharray:none"
         id="path3075"
         sodipodi:cx="405.07117"
         sodipodi:cy="362.25681"
         sodipodi:rx="18.182745"
         sodipodi:ry="18.182745"
         d="m 423.25391,362.25681 c 0,10.04205 -8.14069,18.18274 -18.18274,18.18274 -10.04206,0 -18.18275,-8.14069 -18.18275,-18.18274 0,-10.04206 8.14069,-18.18275 18.18275,-18.18275 10.04205,0 18.18274,8.14069 18.18274,18.18275 z"
         transform="matrix(0.44444442,0,0,0.44444442,187.9859,560.21619)" />
      <path
         transform="matrix(0.44444442,0,0,0.44444442,184.41384,494.44425)"
         d="m 423.25391,362.25681 c 0,10.04205 -8.14069,18.18274 -18.18274,18.18274 -10.04206,0 -18.18275,-8.14069 -18.18275,-18.18274 0,-10.04206 8.14069,-18.18275 18.18275,-18.18275 10.04205,0 18.18274,8.14069 18.18274,18.18275 z"
         sodipodi:ry="18.182745"
         sodipodi:rx="18.182745"
         sodipodi:cy="362.25681"
         sodipodi:cx="405.07117"
         id="path3069"
         style="fill:#ffff00;fill-opacity:1;stroke:#000000;stroke-opacity:1;stroke-width:5.9051009;stroke-miterlimit:4;stroke-dasharray:none"
         sodipodi:type="arc" />
      <path
         transform="matrix(0.44444442,0,0,0.44444442,261.55733,468.35905)"
         d="m 423.25391,362.25681 c 0,10.04205 -8.14069,18.18274 -18.18274,18.18274 -10.04206,0 -18.18275,-8.14069 -18.18275,-18.18274 0,-10.04206 8.14069,-18.18275 18.18275,-18.18275 10.04205,0 18.18274,8.14069 18.18274,18.18275 z"
         sodipodi:ry="18.182745"
         sodipodi:rx="18.182745"
         sodipodi:cy="362.25681"
         sodipodi:cx="405.07117"
         id="path3063"
         style="fill:#ffff00;fill-opacity:1;stroke:#000000;stroke-opacity:1;stroke-width:5.9051009;stroke-miterlimit:4;stroke-dasharray:none"
         sodipodi:type="arc" />
      <path
         sodipodi:type="arc"
         style="fill:#ffff00;fill-opacity:1;stroke:#000000;stroke-opacity:1;stroke-width:5.9051009;stroke-miterlimit:4;stroke-dasharray:none"
         id="path3065"
         sodipodi:cx="405.07117"
         sodipodi:cy="362.25681"
         sodipodi:rx="18.182745"
         sodipodi:ry="18.182745"
         d="m 423.25391,362.25681 c 0,10.04205 -8.14069,18.18274 -18.18274,18.18274 -10.04206,0 -18.18275,-8.14069 -18.18275,-18.18274 0,-10.04206 8.14069,-18.18275 18.18275,-18.18275 10.04205,0 18.18274,8.14069 18.18274,18.18275 z"
         transform="matrix(0.44444442,0,0,0.44444442,262.9859,535.93048)" />
      <path
         transform="matrix(0.44444442,0,0,0.44444442,248.70019,566.64476)"
         d="m 423.25391,362.25681 c 0,10.04205 -8.14069,18.18274 -18.18274,18.18274 -10.04206,0 -18.18275,-8.14069 -18.18275,-18.18274 0,-10.04206 8.14069,-18.18275 18.18275,-18.18275 10.04205,0 18.18274,8.14069 18.18274,18.18275 z"
         sodipodi:ry="18.182745"
         sodipodi:rx="18.182745"
         sodipodi:cy="362.25681"
         sodipodi:cx="405.07117"
         id="path3067"
         style="fill:#ffff00;fill-opacity:1;stroke:#000000;stroke-opacity:1;stroke-width:5.9051009;stroke-miterlimit:4;stroke-dasharray:none"
         sodipodi:type="arc" />
      <path
         sodipodi:type="arc"
         style="fill:#ffff00;fill-opacity:1;stroke:#000000;stroke-opacity:1;stroke-width:2.62448914;stroke-miterlimit:4;stroke-dasharray:none"
         id="path3087"
         sodipodi:cx="405.07117"
         sodipodi:cy="362.25681"
         sodipodi:rx="18.182745"
         sodipodi:ry="18.182745"
         d="m 423.25391,362.25681 c 0,10.04205 -8.14069,18.18274 -18.18274,18.18274 -10.04206,0 -18.18275,-8.14069 -18.18275,-18.18274 0,-10.04206 8.14069,-18.18275 18.18275,-18.18275 10.04205,0 18.18274,8.14069 18.18274,18.18275 z"
         transform="translate(-4.0153754,318.30614)" />
    </g>
    <g
       transform="matrix(1.2896613,0,0,1.0965665,-824.85302,-275.4067)"
       id="g4450"
       style="stroke:#000000;stroke-opacity:1;stroke-width:1.68180126;stroke-miterlimit:4;stroke-dasharray:none">
      <path
         inkscape:connector-curvature="0"
         style="fill:#ffffff;stroke:#000000;stroke-width:2.26741456;stroke-miterlimit:4;stroke-opacity:1;stroke-dashoffset:0;stroke-dasharray:none"
         d="m 783.71875,172.65625 0,219.90625 0,0.40625 c -0.006,0.1735 -0.0312,0.35716 -0.0312,0.53125 0,19.64569 38.95179,35.5625 87,35.5625 48.04821,0 87,-15.91681 87,-35.5625 0,-0.17409 -0.0252,-0.35775 -0.0312,-0.53125 l 0.46875,0 0,-220.3125 -174.40625,0 z"
         transform="matrix(0.74172641,0,0,0.74172641,191.45242,539.09758)"
         id="path4445" />
      <path
         sodipodi:type="arc"
         style="fill:#ffffff;stroke:#000000;stroke-width:2.00018951;stroke-miterlimit:4;stroke-opacity:1;stroke-dasharray:none;stroke-dashoffset:0"
         id="path3667"
         sodipodi:cx="798.64148"
         sodipodi:cy="158.88304"
         sodipodi:rx="67.700928"
         sodipodi:ry="35.571674"
         d="m 866.34241,158.88304 c 0,19.64569 -30.31074,35.57168 -67.70093,35.57168 -37.39019,0 -67.70093,-15.92599 -67.70093,-35.57168 0,-19.64569 30.31074,-35.57167 67.70093,-35.57167 37.39019,0 67.70093,15.92598 67.70093,35.57167 z"
         transform="matrix(0.95315453,0,0,0.74172641,76.02976,549.93046)" />
    </g>
    <path
       inkscape:export-ydpi="100"
       inkscape:export-xdpi="100"

       sodipodi:type="arc"
       style="fill:#ffff00;fill-opacity:1;stroke:#000000;stroke-opacity:1;stroke-width:5.90510101;stroke-miterlimit:4;stroke-dasharray:none"
       id="path3215"
       sodipodi:cx="405.07117"
       sodipodi:cy="362.25681"
       sodipodi:rx="18.182745"
       sodipodi:ry="18.182745"
       d="m 423.25391,362.25681 a 18.182745,18.182745 0 1 1 -36.36549,0 18.182745,18.182745 0 1 1 36.36549,0 z"
       transform="matrix(0.50803534,0,0,0.50803534,0.90039389,430.22601)" />
    <path
       inkscape:export-ydpi="100"
       inkscape:export-xdpi="100"

       transform="matrix(0.50803534,0,0,0.50803534,-4.6975731,379.90508)"
       d="m 423.25391,362.25681 a 18.182745,18.182745 0 1 1 -36.36549,0 18.182745,18.182745 0 1 1 36.36549,0 z"
       sodipodi:ry="18.182745"
       sodipodi:rx="18.182745"
       sodipodi:cy="362.25681"
       sodipodi:cx="405.07117"
       id="path3209"
       style="fill:#ffff00;fill-opacity:1;stroke:#000000;stroke-opacity:1;stroke-width:5.90510101;stroke-miterlimit:4;stroke-dasharray:none"
       sodipodi:type="arc" />
    <path
       inkscape:export-ydpi="100"
       inkscape:export-xdpi="100"

       sodipodi:type="arc"
       style="fill:#ffff00;fill-opacity:1;stroke:#000000;stroke-opacity:1;stroke-width:5.90510101;stroke-miterlimit:4;stroke-dasharray:none"
       id="path3211"
       sodipodi:cx="405.07117"
       sodipodi:cy="362.25681"
       sodipodi:rx="18.182745"
       sodipodi:ry="18.182745"
       d="m 423.25391,362.25681 a 18.182745,18.182745 0 1 1 -36.36549,0 18.182745,18.182745 0 1 1 36.36549,0 z"
       transform="matrix(0.50803534,0,0,0.50803534,14.836732,332.14577)" />
    <path
       inkscape:export-ydpi="100"
       inkscape:export-xdpi="100"

       transform="matrix(0.50803534,0,0,0.50803534,96.546455,340.0298)"
       d="m 423.25391,362.25681 a 18.182745,18.182745 0 1 1 -36.36549,0 18.182745,18.182745 0 1 1 36.36549,0 z"
       sodipodi:ry="18.182745"
       sodipodi:rx="18.182745"
       sodipodi:cy="362.25681"
       sodipodi:cx="405.07117"
       id="path3203"
       style="fill:#ffff00;fill-opacity:1;stroke:#000000;stroke-opacity:1;stroke-width:5.90510101;stroke-miterlimit:4;stroke-dasharray:none"
       sodipodi:type="arc" />
    <path
       inkscape:export-ydpi="100"
       inkscape:export-xdpi="100"

       sodipodi:type="arc"
       style="fill:#ffff00;fill-opacity:1;stroke:#000000;stroke-opacity:1;stroke-width:5.90510101;stroke-miterlimit:4;stroke-dasharray:none"
       id="path3205"
       sodipodi:cx="405.07117"
       sodipodi:cy="362.25681"
       sodipodi:rx="18.182745"
       sodipodi:ry="18.182745"
       d="m 423.25391,362.25681 a 18.182745,18.182745 0 1 1 -36.36549,0 18.182745,18.182745 0 1 1 36.36549,0 z"
       transform="matrix(0.50803534,0,0,0.50803534,106.28309,414.66689)" />
    <path
       inkscape:export-ydpi="100"
       inkscape:export-xdpi="100"

       transform="matrix(0.50803534,0,0,0.50803534,52.446057,439.29404)"
       d="m 423.25391,362.25681 a 18.182745,18.182745 0 1 1 -36.36549,0 18.182745,18.182745 0 1 1 36.36549,0 z"
       sodipodi:ry="18.182745"
       sodipodi:rx="18.182745"
       sodipodi:cy="362.25681"
       sodipodi:cx="405.07117"
       id="path3207"
       style="fill:#ffff00;fill-opacity:1;stroke:#000000;stroke-opacity:1;stroke-width:5.90510101;stroke-miterlimit:4;stroke-dasharray:none"
       sodipodi:type="arc" />
    <path
       inkscape:export-ydpi="100"
       inkscape:export-xdpi="100"

       sodipodi:type="arc"
       style="fill:#ffff00;fill-opacity:1;stroke:#000000;stroke-opacity:1;stroke-width:2.62448914;stroke-miterlimit:4;stroke-dasharray:none"
       id="path3227"
       sodipodi:cx="405.07117"
       sodipodi:cy="362.25681"
       sodipodi:rx="18.182745"
       sodipodi:ry="18.182745"
       d="m 423.25391,362.25681 a 18.182745,18.182745 0 1 1 -36.36549,0 18.182745,18.182745 0 1 1 36.36549,0 z"
       transform="matrix(1.1430796,0,0,1.1430796,-205.787,143.872)" />
    <g
       transform="matrix(1.2896613,0,0,1.0965665,-566.87217,-275.40672)"
       id="g4454"
       style="stroke:#000000;stroke-opacity:1;stroke-width:1.68180126;stroke-miterlimit:4;stroke-dasharray:none">
      <path
         inkscape:connector-curvature="0"
         style="fill:#ffffff;stroke:#000000;stroke-width:2.26741456;stroke-miterlimit:4;stroke-opacity:1;stroke-dashoffset:0;stroke-dasharray:none"
         d="m 783.71875,172.65625 0,219.90625 0,0.40625 c -0.006,0.1735 -0.0312,0.35716 -0.0312,0.53125 0,19.64569 38.95179,35.5625 87,35.5625 48.04821,0 87,-15.91681 87,-35.5625 0,-0.17409 -0.0252,-0.35775 -0.0312,-0.53125 l 0.46875,0 0,-220.3125 -174.40625,0 z"
         transform="matrix(0.74172641,0,0,0.74172641,191.45242,539.09758)"
         id="path4456" />
      <path
         sodipodi:type="arc"
         style="fill:#ffffff;stroke:#000000;stroke-width:2.00018951;stroke-miterlimit:4;stroke-opacity:1;stroke-dasharray:none;stroke-dashoffset:0"
         id="path4458"
         sodipodi:cx="798.64148"
         sodipodi:cy="158.88304"
         sodipodi:rx="67.700928"
         sodipodi:ry="35.571674"
         d="m 866.34241,158.88304 c 0,19.64569 -30.31074,35.57168 -67.70093,35.57168 -37.39019,0 -67.70093,-15.92599 -67.70093,-35.57168 0,-19.64569 30.31074,-35.57167 67.70093,-35.57167 37.39019,0 67.70093,15.92598 67.70093,35.57167 z"
         transform="matrix(0.95315453,0,0,0.74172641,76.02976,549.93046)" />
    </g>
    <g
       transform="matrix(1.1430796,0,0,1.1430796,48.388768,-228.8834)"
       id="g3145"

       inkscape:export-xdpi="100"
       inkscape:export-ydpi="100"
       style="stroke:#000000;stroke-opacity:1;stroke-width:2.62448914;stroke-miterlimit:4;stroke-dasharray:none;fill:#ffff00;fill-opacity:1">
      <path
         transform="matrix(0.44444442,0,0,0.44444442,185.78475,568.18928)"
         d="m 423.25391,362.25681 c 0,10.04205 -8.14069,18.18274 -18.18274,18.18274 -10.04206,0 -18.18275,-8.14069 -18.18275,-18.18274 0,-10.04206 8.14069,-18.18275 18.18275,-18.18275 10.04205,0 18.18274,8.14069 18.18274,18.18275 z"
         sodipodi:ry="18.182745"
         sodipodi:rx="18.182745"
         sodipodi:cy="362.25681"
         sodipodi:cx="405.07117"
         id="path3159"
         style="fill:#ffff00;fill-opacity:1;stroke:#000000;stroke-opacity:1;stroke-width:5.9051009;stroke-miterlimit:4;stroke-dasharray:none"
         sodipodi:type="arc" />
      <path
         sodipodi:type="arc"
         style="fill:#ffff00;fill-opacity:1;stroke:#000000;stroke-opacity:1;stroke-width:5.9051009;stroke-miterlimit:4;stroke-dasharray:none"
         id="path3153"
         sodipodi:cx="405.07117"
         sodipodi:cy="362.25681"
         sodipodi:rx="18.182745"
         sodipodi:ry="18.182745"
         d="m 423.25391,362.25681 c 0,10.04205 -8.14069,18.18274 -18.18274,18.18274 -10.04206,0 -18.18275,-8.14069 -18.18275,-18.18274 0,-10.04206 8.14069,-18.18275 18.18275,-18.18275 10.04205,0 18.18274,8.14069 18.18274,18.18275 z"
         transform="matrix(0.44444442,0,0,0.44444442,191.15119,509.61785)" />
      <path
         transform="matrix(0.44444442,0,0,0.44444442,220.55349,477.66782)"
         d="m 423.25391,362.25681 c 0,10.04205 -8.14069,18.18274 -18.18274,18.18274 -10.04206,0 -18.18275,-8.14069 -18.18275,-18.18274 0,-10.04206 8.14069,-18.18275 18.18275,-18.18275 10.04205,0 18.18274,8.14069 18.18274,18.18275 z"
         sodipodi:ry="18.182745"
         sodipodi:rx="18.182745"
         sodipodi:cy="362.25681"
         sodipodi:cx="405.07117"
         id="path3155"
         style="fill:#ffff00;fill-opacity:1;stroke:#000000;stroke-opacity:1;stroke-width:5.9051009;stroke-miterlimit:4;stroke-dasharray:none"
         sodipodi:type="arc" />
      <path
         sodipodi:type="arc"
         style="fill:#ffff00;fill-opacity:1;stroke:#000000;stroke-opacity:1;stroke-width:5.9051009;stroke-miterlimit:4;stroke-dasharray:none"
         id="path3147"
         sodipodi:cx="405.07117"
         sodipodi:cy="362.25681"
         sodipodi:rx="18.182745"
         sodipodi:ry="18.182745"
         d="m 423.25391,362.25681 c 0,10.04205 -8.14069,18.18274 -18.18274,18.18274 -10.04206,0 -18.18275,-8.14069 -18.18275,-18.18274 0,-10.04206 8.14069,-18.18275 18.18275,-18.18275 10.04205,0 18.18274,8.14069 18.18274,18.18275 z"
         transform="matrix(0.44444442,0,0,0.44444442,260.93978,481.81453)" />
      <path
         transform="matrix(0.44444442,0,0,0.44444442,277.31069,525.06181)"
         d="m 423.25391,362.25681 c 0,10.04205 -8.14069,18.18274 -18.18274,18.18274 -10.04206,0 -18.18275,-8.14069 -18.18275,-18.18274 0,-10.04206 8.14069,-18.18275 18.18275,-18.18275 10.04205,0 18.18274,8.14069 18.18274,18.18275 z"
         sodipodi:ry="18.182745"
         sodipodi:rx="18.182745"
         sodipodi:cy="362.25681"
         sodipodi:cx="405.07117"
         id="path3149"
         style="fill:#ffff00;fill-opacity:1;stroke:#000000;stroke-opacity:1;stroke-width:5.9051009;stroke-miterlimit:4;stroke-dasharray:none"
         sodipodi:type="arc" />
      <path
         sodipodi:type="arc"
         style="fill:#ffff00;fill-opacity:1;stroke:#000000;stroke-opacity:1;stroke-width:5.9051009;stroke-miterlimit:4;stroke-dasharray:none"
         id="path3151"
         sodipodi:cx="405.07117"
         sodipodi:cy="362.25681"
         sodipodi:rx="18.182745"
         sodipodi:ry="18.182745"
         d="m 423.25391,362.25681 c 0,10.04205 -8.14069,18.18274 -18.18274,18.18274 -10.04206,0 -18.18275,-8.14069 -18.18275,-18.18274 0,-10.04206 8.14069,-18.18275 18.18275,-18.18275 10.04205,0 18.18274,8.14069 18.18274,18.18275 z"
         transform="matrix(0.44444442,0,0,0.44444442,259.41447,584.50191)" />
      <path
         transform="translate(-3.9052289e-8,342.39839)"
         d="m 423.25391,362.25681 c 0,10.04205 -8.14069,18.18274 -18.18274,18.18274 -10.04206,0 -18.18275,-8.14069 -18.18275,-18.18274 0,-10.04206 8.14069,-18.18275 18.18275,-18.18275 10.04205,0 18.18274,8.14069 18.18274,18.18275 z"
         sodipodi:ry="18.182745"
         sodipodi:rx="18.182745"
         sodipodi:cy="362.25681"
         sodipodi:cx="405.07117"
         id="path3171"
         style="fill:#ffff00;fill-opacity:1;stroke:#000000;stroke-opacity:1;stroke-width:2.62448914;stroke-miterlimit:4;stroke-dasharray:none"
         sodipodi:type="arc" />
    </g>
    <g
       transform="matrix(1.2896613,0,0,1.0965665,-905.57749,-23.520155)"
       id="g4526"
       style="stroke:#000000;stroke-opacity:1;stroke-width:1.68180126;stroke-miterlimit:4;stroke-dasharray:none">
      <path
         inkscape:connector-curvature="0"
         style="fill:#ffffff;stroke:#000000;stroke-width:2.26741456;stroke-miterlimit:4;stroke-opacity:1;stroke-dashoffset:0;stroke-dasharray:none"
         d="m 783.71875,172.65625 0,219.90625 0,0.40625 c -0.006,0.1735 -0.0312,0.35716 -0.0312,0.53125 0,19.64569 38.95179,35.5625 87,35.5625 48.04821,0 87,-15.91681 87,-35.5625 0,-0.17409 -0.0252,-0.35775 -0.0312,-0.53125 l 0.46875,0 0,-220.3125 -174.40625,0 z"
         transform="matrix(0.74172641,0,0,0.74172641,191.45242,539.09758)"
         id="path4528" />
      <path
         sodipodi:type="arc"
         style="fill:#ffffff;stroke:#000000;stroke-width:2.00018951;stroke-miterlimit:4;stroke-opacity:1;stroke-dasharray:none;stroke-dashoffset:0"
         id="path4530"
         sodipodi:cx="798.64148"
         sodipodi:cy="158.88304"
         sodipodi:rx="67.700928"
         sodipodi:ry="35.571674"
         d="m 866.34241,158.88304 c 0,19.64569 -30.31074,35.57168 -67.70093,35.57168 -37.39019,0 -67.70093,-15.92599 -67.70093,-35.57168 0,-19.64569 30.31074,-35.57167 67.70093,-35.57167 37.39019,0 67.70093,15.92598 67.70093,35.57167 z"
         transform="matrix(0.95315453,0,0,0.74172641,76.02976,549.93046)" />
    </g>
    <g
       id="g3173"
       transform="matrix(1.1430796,0,0,1.1430796,-284.72633,59.909966)"

       inkscape:export-xdpi="100"
       inkscape:export-ydpi="100"
       style="stroke-width:2.62448914000000011;stroke-miterlimit:4;stroke-dasharray:none;stroke:#000000;stroke-opacity:1;fill:#ffff00;fill-opacity:1">
      <path
         sodipodi:type="arc"
         style="fill:#ffff00;fill-opacity:1;stroke:#000000;stroke-width:5.90510089999999987;stroke-miterlimit:4;stroke-dasharray:none;stroke-opacity:1"
         id="path3187"
         sodipodi:cx="405.07117"
         sodipodi:cy="362.25681"
         sodipodi:rx="18.182745"
         sodipodi:ry="18.182745"
         d="m 423.25391,362.25681 c 0,10.04205 -8.14069,18.18274 -18.18274,18.18274 -10.04206,0 -18.18275,-8.14069 -18.18275,-18.18274 0,-10.04206 8.14069,-18.18275 18.18275,-18.18275 10.04205,0 18.18274,8.14069 18.18274,18.18275 z"
         transform="matrix(0.44444442,0,0,0.44444442,179.08271,541.70169)" />
      <path
         transform="matrix(0.44444442,0,0,0.44444442,173.65422,485.26245)"
         d="m 423.25391,362.25681 c 0,10.04205 -8.14069,18.18274 -18.18274,18.18274 -10.04206,0 -18.18275,-8.14069 -18.18275,-18.18274 0,-10.04206 8.14069,-18.18275 18.18275,-18.18275 10.04205,0 18.18274,8.14069 18.18274,18.18275 z"
         sodipodi:ry="18.182745"
         sodipodi:rx="18.182745"
         sodipodi:cy="362.25681"
         sodipodi:cx="405.07117"
         id="path3181"
         style="fill:#ffff00;fill-opacity:1;stroke:#000000;stroke-width:5.90510089999999987;stroke-miterlimit:4;stroke-dasharray:none;stroke-opacity:1"
         sodipodi:type="arc" />
      <path
         sodipodi:type="arc"
         style="fill:#ffff00;fill-opacity:1;stroke:#000000;stroke-width:5.90510089999999987;stroke-miterlimit:4;stroke-dasharray:none;stroke-opacity:1"
         id="path3183"
         sodipodi:cx="405.07117"
         sodipodi:cy="362.25681"
         sodipodi:rx="18.182745"
         sodipodi:ry="18.182745"
         d="m 423.25391,362.25681 c 0,10.04205 -8.14069,18.18274 -18.18274,18.18274 -10.04206,0 -18.18275,-8.14069 -18.18275,-18.18274 0,-10.04206 8.14069,-18.18275 18.18275,-18.18275 10.04205,0 18.18274,8.14069 18.18274,18.18275 z"
         transform="matrix(0.44444442,0,0,0.44444442,220.84304,450.93048)" />
      <path
         transform="matrix(0.44444442,0,0,0.44444442,265.51505,481.31292)"
         d="m 423.25391,362.25681 c 0,10.04205 -8.14069,18.18274 -18.18274,18.18274 -10.04206,0 -18.18275,-8.14069 -18.18275,-18.18274 0,-10.04206 8.14069,-18.18275 18.18275,-18.18275 10.04205,0 18.18274,8.14069 18.18274,18.18275 z"
         sodipodi:ry="18.182745"
         sodipodi:rx="18.182745"
         sodipodi:cy="362.25681"
         sodipodi:cx="405.07117"
         id="path3175"
         style="fill:#ffff00;fill-opacity:1;stroke:#000000;stroke-width:5.90510089999999987;stroke-miterlimit:4;stroke-dasharray:none;stroke-opacity:1"
         sodipodi:type="arc" />
      <path
         sodipodi:type="arc"
         style="fill:#ffff00;fill-opacity:1;stroke:#000000;stroke-width:5.90510089999999987;stroke-miterlimit:4;stroke-dasharray:none;stroke-opacity:1"
         id="path3177"
         sodipodi:cx="405.07117"
         sodipodi:cy="362.25681"
         sodipodi:rx="18.182745"
         sodipodi:ry="18.182745"
         d="m 423.25391,362.25681 c 0,10.04205 -8.14069,18.18274 -18.18274,18.18274 -10.04206,0 -18.18275,-8.14069 -18.18275,-18.18274 0,-10.04206 8.14069,-18.18275 18.18275,-18.18275 10.04205,0 18.18274,8.14069 18.18274,18.18275 z"
         transform="matrix(0.44444442,0,0,0.44444442,278.51636,529.96674)" />
      <path
         transform="matrix(0.44444442,0,0,0.44444442,242.11317,561.19661)"
         d="m 423.25391,362.25681 c 0,10.04205 -8.14069,18.18274 -18.18274,18.18274 -10.04206,0 -18.18275,-8.14069 -18.18275,-18.18274 0,-10.04206 8.14069,-18.18275 18.18275,-18.18275 10.04205,0 18.18274,8.14069 18.18274,18.18275 z"
         sodipodi:ry="18.182745"
         sodipodi:rx="18.182745"
         sodipodi:cy="362.25681"
         sodipodi:cx="405.07117"
         id="path3179"
         style="fill:#ffff00;fill-opacity:1;stroke:#000000;stroke-width:5.90510089999999987;stroke-miterlimit:4;stroke-dasharray:none;stroke-opacity:1"
         sodipodi:type="arc" />
      <path
         sodipodi:type="arc"
         style="fill:#ffff00;fill-opacity:1;stroke:#000000;stroke-width:2.62448914000000011;stroke-miterlimit:4;stroke-dasharray:none;stroke-opacity:1"
         id="path3199"
         sodipodi:cx="405.07117"
         sodipodi:cy="362.25681"
         sodipodi:rx="18.182745"
         sodipodi:ry="18.182745"
         d="m 423.25391,362.25681 c 0,10.04205 -8.14069,18.18274 -18.18274,18.18274 -10.04206,0 -18.18275,-8.14069 -18.18275,-18.18274 0,-10.04206 8.14069,-18.18275 18.18275,-18.18275 10.04205,0 18.18274,8.14069 18.18274,18.18275 z"
         transform="translate(0,308.2677)" />
    </g>
    <g
       transform="matrix(1.2896613,0,0,1.0965665,-468.77266,-23.520155)"
       id="g4490"
       style="stroke:#000000;stroke-opacity:1;stroke-width:1.68180126;stroke-miterlimit:4;stroke-dasharray:none">
      <path
         inkscape:connector-curvature="0"
         style="fill:#ffffff;stroke:#000000;stroke-width:2.26741456;stroke-miterlimit:4;stroke-opacity:1;stroke-dashoffset:0;stroke-dasharray:none"
         d="m 783.71875,172.65625 0,219.90625 0,0.40625 c -0.006,0.1735 -0.0312,0.35716 -0.0312,0.53125 0,19.64569 38.95179,35.5625 87,35.5625 48.04821,0 87,-15.91681 87,-35.5625 0,-0.17409 -0.0252,-0.35775 -0.0312,-0.53125 l 0.46875,0 0,-220.3125 -174.40625,0 z"
         transform="matrix(0.74172641,0,0,0.74172641,191.45242,539.09758)"
         id="path4492" />
      <path
         sodipodi:type="arc"
         style="fill:#ffffff;stroke:#000000;stroke-width:2.00018951;stroke-miterlimit:4;stroke-opacity:1;stroke-dasharray:none;stroke-dashoffset:0"
         id="path4494"
         sodipodi:cx="798.64148"
         sodipodi:cy="158.88304"
         sodipodi:rx="67.700928"
         sodipodi:ry="35.571674"
         d="m 866.34241,158.88304 c 0,19.64569 -30.31074,35.57168 -67.70093,35.57168 -37.39019,0 -67.70093,-15.92599 -67.70093,-35.57168 0,-19.64569 30.31074,-35.57167 67.70093,-35.57167 37.39019,0 67.70093,15.92598 67.70093,35.57167 z"
         transform="matrix(0.95315453,0,0,0.74172641,76.02976,549.93046)" />
    </g>
    <g
       id="g3046"
       transform="matrix(1.1430796,0,0,1.1430796,155.11352,53.879668)"

       inkscape:export-xdpi="100"
       inkscape:export-ydpi="100"
       style="stroke-width:2.62448914000000011;stroke-miterlimit:4;stroke-dasharray:none;stroke:#000000;stroke-opacity:1;fill:#ffff00;fill-opacity:1">
      <path
         transform="matrix(0.44444442,0,0,0.44444442,174.41447,535.93048)"
         d="m 423.25391,362.25681 c 0,10.04205 -8.14069,18.18274 -18.18274,18.18274 -10.04206,0 -18.18275,-8.14069 -18.18275,-18.18274 0,-10.04206 8.14069,-18.18275 18.18275,-18.18275 10.04205,0 18.18274,8.14069 18.18274,18.18275 z"
         sodipodi:ry="18.182745"
         sodipodi:rx="18.182745"
         sodipodi:cy="362.25681"
         sodipodi:cx="405.07117"
         id="path3028"
         style="fill:#ffff00;fill-opacity:1;stroke:#000000;stroke-width:5.90510089999999987;stroke-miterlimit:4;stroke-dasharray:none;stroke-opacity:1"
         sodipodi:type="arc" />
      <path
         sodipodi:type="arc"
         style="fill:#ffff00;fill-opacity:1;stroke:#000000;stroke-width:5.90510089999999987;stroke-miterlimit:4;stroke-dasharray:none;stroke-opacity:1"
         id="path3030"
         sodipodi:cx="405.07117"
         sodipodi:cy="362.25681"
         sodipodi:rx="18.182745"
         sodipodi:ry="18.182745"
         d="m 423.25391,362.25681 c 0,10.04205 -8.14069,18.18274 -18.18274,18.18274 -10.04206,0 -18.18275,-8.14069 -18.18275,-18.18274 0,-10.04206 8.14069,-18.18275 18.18275,-18.18275 10.04205,0 18.18274,8.14069 18.18274,18.18275 z"
         transform="matrix(0.44444442,0,0,0.44444442,162.27162,488.07334)" />
      <path
         transform="matrix(0.44444442,0,0,0.44444442,216.55733,455.21619)"
         d="m 423.25391,362.25681 c 0,10.04205 -8.14069,18.18274 -18.18274,18.18274 -10.04206,0 -18.18275,-8.14069 -18.18275,-18.18274 0,-10.04206 8.14069,-18.18275 18.18275,-18.18275 10.04205,0 18.18274,8.14069 18.18274,18.18275 z"
         sodipodi:ry="18.182745"
         sodipodi:rx="18.182745"
         sodipodi:cy="362.25681"
         sodipodi:cx="405.07117"
         id="path3032"
         style="fill:#ffff00;fill-opacity:1;stroke:#000000;stroke-width:5.90510089999999987;stroke-miterlimit:4;stroke-dasharray:none;stroke-opacity:1"
         sodipodi:type="arc" />
      <path
         sodipodi:type="arc"
         style="fill:#ffff00;fill-opacity:1;stroke:#000000;stroke-width:5.90510089999999987;stroke-miterlimit:4;stroke-dasharray:none;stroke-opacity:1"
         id="path3022"
         sodipodi:cx="405.07117"
         sodipodi:cy="362.25681"
         sodipodi:rx="18.182745"
         sodipodi:ry="18.182745"
         d="m 423.25391,362.25681 c 0,10.04205 -8.14069,18.18274 -18.18274,18.18274 -10.04206,0 -18.18275,-8.14069 -18.18275,-18.18274 0,-10.04206 8.14069,-18.18275 18.18275,-18.18275 10.04205,0 18.18274,8.14069 18.18274,18.18275 z"
         transform="matrix(0.44444442,0,0,0.44444442,257.77385,472.76071)" />
      <path
         transform="matrix(0.44444442,0,0,0.44444442,269.41447,545.93048)"
         d="m 423.25391,362.25681 c 0,10.04205 -8.14069,18.18274 -18.18274,18.18274 -10.04206,0 -18.18275,-8.14069 -18.18275,-18.18274 0,-10.04206 8.14069,-18.18275 18.18275,-18.18275 10.04205,0 18.18274,8.14069 18.18274,18.18275 z"
         sodipodi:ry="18.182745"
         sodipodi:rx="18.182745"
         sodipodi:cy="362.25681"
         sodipodi:cx="405.07117"
         id="path3024"
         style="fill:#ffff00;fill-opacity:1;stroke:#000000;stroke-width:5.90510089999999987;stroke-miterlimit:4;stroke-dasharray:none;stroke-opacity:1"
         sodipodi:type="arc" />
      <path
         sodipodi:type="arc"
         style="fill:#ffff00;fill-opacity:1;stroke:#000000;stroke-width:5.90510089999999987;stroke-miterlimit:4;stroke-dasharray:none;stroke-opacity:1"
         id="path3026"
         sodipodi:cx="405.07117"
         sodipodi:cy="362.25681"
         sodipodi:rx="18.182745"
         sodipodi:ry="18.182745"
         d="m 423.25391,362.25681 c 0,10.04205 -8.14069,18.18274 -18.18274,18.18274 -10.04206,0 -18.18275,-8.14069 -18.18275,-18.18274 0,-10.04206 8.14069,-18.18275 18.18275,-18.18275 10.04205,0 18.18274,8.14069 18.18274,18.18275 z"
         transform="matrix(0.44444442,0,0,0.44444442,215.97821,557.16622)" />
      <path
         transform="translate(0,308.2677)"
         d="m 423.25391,362.25681 c 0,10.04205 -8.14069,18.18274 -18.18274,18.18274 -10.04206,0 -18.18275,-8.14069 -18.18275,-18.18274 0,-10.04206 8.14069,-18.18275 18.18275,-18.18275 10.04205,0 18.18274,8.14069 18.18274,18.18275 z"
         sodipodi:ry="18.182745"
         sodipodi:rx="18.182745"
         sodipodi:cy="362.25681"
         sodipodi:cx="405.07117"
         id="path3020"
         style="fill:#ffff00;fill-opacity:1;stroke:#000000;stroke-width:2.62448914000000011;stroke-miterlimit:4;stroke-dasharray:none;stroke-opacity:1"
         sodipodi:type="arc" />
      <path
         sodipodi:type="arc"
         style="fill:#ffff00;fill-opacity:1;stroke:#000000;stroke-width:3.61991502000000009;stroke-miterlimit:4;stroke-dasharray:none;stroke-opacity:1"
         id="path3252"
         sodipodi:cx="405.07117"
         sodipodi:cy="362.25681"
         sodipodi:rx="18.182745"
         sodipodi:ry="18.182745"
         d="m 423.25391,362.25681 c 0,10.04205 -8.14069,18.18274 -18.18274,18.18274 -10.04206,0 -18.18275,-8.14069 -18.18275,-18.18274 0,-10.04206 8.14069,-18.18275 18.18275,-18.18275 10.04205,0 18.18274,8.14069 18.18274,18.18275 z"
         transform="matrix(0.72501402,0,0,0.72501402,133.26204,467.57509)" />
      <path
         sodipodi:type="arc"
         style="fill:#ffff00;fill-opacity:1;stroke:#000000;stroke-width:3.61991502000000009;stroke-miterlimit:4;stroke-dasharray:none;stroke-opacity:1"
         id="path3256"
         sodipodi:cx="405.07117"
         sodipodi:cy="362.25681"
         sodipodi:rx="18.182745"
         sodipodi:ry="18.182745"
         d="m 423.25391,362.25681 c 0,10.04205 -8.14069,18.18274 -18.18274,18.18274 -10.04206,0 -18.18275,-8.14069 -18.18275,-18.18274 0,-10.04206 8.14069,-18.18275 18.18275,-18.18275 10.04205,0 18.18274,8.14069 18.18274,18.18275 z"
         transform="matrix(0.72501402,0,0,0.72501402,71.271665,364.79483)" />
    </g>
    <g
       id="g4496"
       transform="matrix(1.2896613,0,0,1.0965665,-250.37021,-23.520155)"
       style="stroke:#000000;stroke-opacity:1;stroke-width:1.68180126;stroke-miterlimit:4;stroke-dasharray:none">
      <path
         id="path4498"
         transform="matrix(0.74172641,0,0,0.74172641,191.45242,539.09758)"
         d="m 783.71875,172.65625 0,219.90625 0,0.40625 c -0.006,0.1735 -0.0312,0.35716 -0.0312,0.53125 0,19.64569 38.95179,35.5625 87,35.5625 48.04821,0 87,-15.91681 87,-35.5625 0,-0.17409 -0.0252,-0.35775 -0.0312,-0.53125 l 0.46875,0 0,-220.3125 -174.40625,0 z"
         style="fill:#ffffff;stroke:#000000;stroke-width:2.26741456;stroke-miterlimit:4;stroke-opacity:1;stroke-dashoffset:0;stroke-dasharray:none"
         inkscape:connector-curvature="0" />
      <path
         transform="matrix(0.95315453,0,0,0.74172641,76.02976,549.93046)"
         d="m 866.34241,158.88304 c 0,19.64569 -30.31074,35.57168 -67.70093,35.57168 -37.39019,0 -67.70093,-15.92599 -67.70093,-35.57168 0,-19.64569 30.31074,-35.57167 67.70093,-35.57167 37.39019,0 67.70093,15.92598 67.70093,35.57167 z"
         sodipodi:ry="35.571674"
         sodipodi:rx="67.700928"
         sodipodi:cy="158.88304"
         sodipodi:cx="798.64148"
         id="path4500"
         style="fill:#ffffff;stroke:#000000;stroke-width:2.00018951;stroke-miterlimit:4;stroke-opacity:1;stroke-dasharray:none;stroke-dashoffset:0"
         sodipodi:type="arc" />
    </g>
    <g
       transform="matrix(1.1430796,0,0,1.1430796,360.47304,49.532625)"
       id="g3089"

       inkscape:export-xdpi="100"
       inkscape:export-ydpi="100"
       style="stroke-width:2.62448914000000011;stroke-miterlimit:4;stroke-dasharray:none;stroke:#000000;stroke-opacity:1;fill:#ffff00;fill-opacity:1">
      <path
         sodipodi:type="arc"
         style="fill:#ffff00;fill-opacity:1;stroke:#000000;stroke-width:5.90510089999999987;stroke-miterlimit:4;stroke-dasharray:none;stroke-opacity:1"
         id="path3097"
         sodipodi:cx="405.07117"
         sodipodi:cy="362.25681"
         sodipodi:rx="18.182745"
         sodipodi:ry="18.182745"
         d="m 423.25391,362.25681 c 0,10.04205 -8.14069,18.18274 -18.18274,18.18274 -10.04206,0 -18.18275,-8.14069 -18.18275,-18.18274 0,-10.04206 8.14069,-18.18275 18.18275,-18.18275 10.04205,0 18.18274,8.14069 18.18274,18.18275 z"
         transform="matrix(0.44444442,0,0,0.44444442,186.67265,497.35905)" />
      <path
         transform="matrix(0.44444442,0,0,0.44444442,196.55733,457.35905)"
         d="m 423.25391,362.25681 c 0,10.04205 -8.14069,18.18274 -18.18274,18.18274 -10.04206,0 -18.18275,-8.14069 -18.18275,-18.18274 0,-10.04206 8.14069,-18.18275 18.18275,-18.18275 10.04205,0 18.18274,8.14069 18.18274,18.18275 z"
         sodipodi:ry="18.182745"
         sodipodi:rx="18.182745"
         sodipodi:cy="362.25681"
         sodipodi:cx="405.07117"
         id="path3099"
         style="fill:#ffff00;fill-opacity:1;stroke:#000000;stroke-width:5.90510089999999987;stroke-miterlimit:4;stroke-dasharray:none;stroke-opacity:1"
         sodipodi:type="arc" />
      <path
         transform="matrix(0.44444442,0,0,0.44444442,198.70019,548.78762)"
         d="m 423.25391,362.25681 c 0,10.04205 -8.14069,18.18274 -18.18274,18.18274 -10.04206,0 -18.18275,-8.14069 -18.18275,-18.18274 0,-10.04206 8.14069,-18.18275 18.18275,-18.18275 10.04205,0 18.18274,8.14069 18.18274,18.18275 z"
         sodipodi:ry="18.182745"
         sodipodi:rx="18.182745"
         sodipodi:cy="362.25681"
         sodipodi:cx="405.07117"
         id="path3103"
         style="fill:#ffff00;fill-opacity:1;stroke:#000000;stroke-width:5.90510089999999987;stroke-miterlimit:4;stroke-dasharray:none;stroke-opacity:1"
         sodipodi:type="arc" />
      <path
         sodipodi:type="arc"
         style="fill:#ffff00;fill-opacity:1;stroke:#000000;stroke-width:5.90510089999999987;stroke-miterlimit:4;stroke-dasharray:none;stroke-opacity:1"
         id="path3091"
         sodipodi:cx="405.07117"
         sodipodi:cy="362.25681"
         sodipodi:rx="18.182745"
         sodipodi:ry="18.182745"
         d="m 423.25391,362.25681 c 0,10.04205 -8.14069,18.18274 -18.18274,18.18274 -10.04206,0 -18.18275,-8.14069 -18.18275,-18.18274 0,-10.04206 8.14069,-18.18275 18.18275,-18.18275 10.04205,0 18.18274,8.14069 18.18274,18.18275 z"
         transform="matrix(0.44444442,0,0,0.44444442,276.55733,493.35905)" />
      <path
         transform="matrix(0.44444442,0,0,0.44444442,276.55733,537.35905)"
         d="m 423.25391,362.25681 c 0,10.04205 -8.14069,18.18274 -18.18274,18.18274 -10.04206,0 -18.18275,-8.14069 -18.18275,-18.18274 0,-10.04206 8.14069,-18.18275 18.18275,-18.18275 10.04205,0 18.18274,8.14069 18.18274,18.18275 z"
         sodipodi:ry="18.182745"
         sodipodi:rx="18.182745"
         sodipodi:cy="362.25681"
         sodipodi:cx="405.07117"
         id="path3093"
         style="fill:#ffff00;fill-opacity:1;stroke:#000000;stroke-width:5.90510089999999987;stroke-miterlimit:4;stroke-dasharray:none;stroke-opacity:1"
         sodipodi:type="arc" />
      <path
         sodipodi:type="arc"
         style="fill:#ffff00;fill-opacity:1;stroke:#000000;stroke-width:5.90510089999999987;stroke-miterlimit:4;stroke-dasharray:none;stroke-opacity:1"
         id="path3095"
         sodipodi:cx="405.07117"
         sodipodi:cy="362.25681"
         sodipodi:rx="18.182745"
         sodipodi:ry="18.182745"
         d="m 423.25391,362.25681 c 0,10.04205 -8.14069,18.18274 -18.18274,18.18274 -10.04206,0 -18.18275,-8.14069 -18.18275,-18.18274 0,-10.04206 8.14069,-18.18275 18.18275,-18.18275 10.04205,0 18.18274,8.14069 18.18274,18.18275 z"
         transform="matrix(0.44444442,0,0,0.44444442,236.55733,577.35905)" />
      <path
         transform="translate(0,308.2677)"
         d="m 423.25391,362.25681 c 0,10.04205 -8.14069,18.18274 -18.18274,18.18274 -10.04206,0 -18.18275,-8.14069 -18.18275,-18.18274 0,-10.04206 8.14069,-18.18275 18.18275,-18.18275 10.04205,0 18.18274,8.14069 18.18274,18.18275 z"
         sodipodi:ry="18.182745"
         sodipodi:rx="18.182745"
         sodipodi:cy="362.25681"
         sodipodi:cx="405.07117"
         id="path3115"
         style="fill:#ffff00;fill-opacity:1;stroke:#000000;stroke-width:2.62448914000000011;stroke-miterlimit:4;stroke-dasharray:none;stroke-opacity:1"
         sodipodi:type="arc" />
    </g>
    <path
       transform="matrix(0.82874874,0,0,0.82874874,504.24828,471.01132)"
       d="m 423.25391,362.25681 a 18.182745,18.182745 0 1 1 -36.36549,0 18.182745,18.182745 0 1 1 36.36549,0 z"
       sodipodi:ry="18.182745"
       sodipodi:rx="18.182745"
       sodipodi:cy="362.25681"
       sodipodi:cx="405.07117"
       id="path3254"
       style="fill:#ffff00;fill-opacity:1;stroke:#000000;stroke-width:3.61991501000000016;stroke-miterlimit:4;stroke-dasharray:none;stroke-opacity:1"
       sodipodi:type="arc" />
    <g
       id="g4520"
       transform="matrix(1.2896613,0,0,1.0965665,-687.17507,-23.520155)"
       style="stroke:#000000;stroke-opacity:1;stroke-width:1.68180126;stroke-miterlimit:4;stroke-dasharray:none">
      <path
         id="path4522"
         transform="matrix(0.74172641,0,0,0.74172641,191.45242,539.09758)"
         d="m 783.71875,172.65625 0,219.90625 0,0.40625 c -0.006,0.1735 -0.0312,0.35716 -0.0312,0.53125 0,19.64569 38.95179,35.5625 87,35.5625 48.04821,0 87,-15.91681 87,-35.5625 0,-0.17409 -0.0252,-0.35775 -0.0312,-0.53125 l 0.46875,0 0,-220.3125 -174.40625,0 z"
         style="fill:#ffffff;stroke:#000000;stroke-width:2.26741456;stroke-miterlimit:4;stroke-opacity:1;stroke-dashoffset:0;stroke-dasharray:none"
         inkscape:connector-curvature="0" />
      <path
         transform="matrix(0.95315453,0,0,0.74172641,76.02976,549.93046)"
         d="m 866.34241,158.88304 c 0,19.64569 -30.31074,35.57168 -67.70093,35.57168 -37.39019,0 -67.70093,-15.92599 -67.70093,-35.57168 0,-19.64569 30.31074,-35.57167 67.70093,-35.57167 37.39019,0 67.70093,15.92598 67.70093,35.57167 z"
         sodipodi:ry="35.571674"
         sodipodi:rx="67.700928"
         sodipodi:cy="158.88304"
         sodipodi:cx="798.64148"
         id="path4524"
         style="fill:#ffffff;stroke:#000000;stroke-width:2.00018951;stroke-miterlimit:4;stroke-opacity:1;stroke-dasharray:none;stroke-dashoffset:0"
         sodipodi:type="arc" />
    </g>
    <g
       id="g3117"
       transform="matrix(1.1430796,0,0,1.1430796,-72.154513,63.275591)"

       inkscape:export-xdpi="100"
       inkscape:export-ydpi="100"
       style="stroke-width:2.62448914000000011;stroke-miterlimit:4;stroke-dasharray:none;stroke:#000000;stroke-opacity:1;fill:#ffff00;fill-opacity:1">
      <path
         transform="matrix(0.44444442,0,0,0.44444442,172.27162,486.64476)"
         d="m 423.25391,362.25681 c 0,10.04205 -8.14069,18.18274 -18.18274,18.18274 -10.04206,0 -18.18275,-8.14069 -18.18275,-18.18274 0,-10.04206 8.14069,-18.18275 18.18275,-18.18275 10.04205,0 18.18274,8.14069 18.18274,18.18275 z"
         sodipodi:ry="18.182745"
         sodipodi:rx="18.182745"
         sodipodi:cy="362.25681"
         sodipodi:cx="405.07117"
         id="path3125"
         style="fill:#ffff00;fill-opacity:1;stroke:#000000;stroke-width:5.90510089999999987;stroke-miterlimit:4;stroke-dasharray:none;stroke-opacity:1"
         sodipodi:type="arc" />
      <path
         sodipodi:type="arc"
         style="fill:#ffff00;fill-opacity:1;stroke:#000000;stroke-width:5.90510089999999987;stroke-miterlimit:4;stroke-dasharray:none;stroke-opacity:1"
         id="path3131"
         sodipodi:cx="405.07117"
         sodipodi:cy="362.25681"
         sodipodi:rx="18.182745"
         sodipodi:ry="18.182745"
         d="m 423.25391,362.25681 c 0,10.04205 -8.14069,18.18274 -18.18274,18.18274 -10.04206,0 -18.18275,-8.14069 -18.18275,-18.18274 0,-10.04206 8.14069,-18.18275 18.18275,-18.18275 10.04205,0 18.18274,8.14069 18.18274,18.18275 z"
         transform="matrix(0.44444442,0,0,0.44444442,176.55733,540.21619)" />
      <path
         sodipodi:type="arc"
         style="fill:#ffff00;fill-opacity:1;stroke:#000000;stroke-width:5.90510089999999987;stroke-miterlimit:4;stroke-dasharray:none;stroke-opacity:1"
         id="path3127"
         sodipodi:cx="405.07117"
         sodipodi:cy="362.25681"
         sodipodi:rx="18.182745"
         sodipodi:ry="18.182745"
         d="m 423.25391,362.25681 c 0,10.04205 -8.14069,18.18274 -18.18274,18.18274 -10.04206,0 -18.18275,-8.14069 -18.18275,-18.18274 0,-10.04206 8.14069,-18.18275 18.18275,-18.18275 10.04205,0 18.18274,8.14069 18.18274,18.18275 z"
         transform="matrix(0.44444442,0,0,0.44444442,235.84304,454.50191)" />
      <path
         transform="matrix(0.44444442,0,0,0.44444442,265.84304,475.50191)"
         d="m 423.25391,362.25681 c 0,10.04205 -8.14069,18.18274 -18.18274,18.18274 -10.04206,0 -18.18275,-8.14069 -18.18275,-18.18274 0,-10.04206 8.14069,-18.18275 18.18275,-18.18275 10.04205,0 18.18274,8.14069 18.18274,18.18275 z"
         sodipodi:ry="18.182745"
         sodipodi:rx="18.182745"
         sodipodi:cy="362.25681"
         sodipodi:cx="405.07117"
         id="path3119"
         style="fill:#ffff00;fill-opacity:1;stroke:#000000;stroke-width:5.90510089999999987;stroke-miterlimit:4;stroke-dasharray:none;stroke-opacity:1"
         sodipodi:type="arc" />
      <path
         sodipodi:type="arc"
         style="fill:#ffff00;fill-opacity:1;stroke:#000000;stroke-width:5.90510089999999987;stroke-miterlimit:4;stroke-dasharray:none;stroke-opacity:1"
         id="path3121"
         sodipodi:cx="405.07117"
         sodipodi:cy="362.25681"
         sodipodi:rx="18.182745"
         sodipodi:ry="18.182745"
         d="m 423.25391,362.25681 c 0,10.04205 -8.14069,18.18274 -18.18274,18.18274 -10.04206,0 -18.18275,-8.14069 -18.18275,-18.18274 0,-10.04206 8.14069,-18.18275 18.18275,-18.18275 10.04205,0 18.18274,8.14069 18.18274,18.18275 z"
         transform="matrix(0.44444442,0,0,0.44444442,257.9859,554.50191)" />
      <path
         transform="matrix(0.44444442,0,0,0.44444442,225.12876,556.64476)"
         d="m 423.25391,362.25681 c 0,10.04205 -8.14069,18.18274 -18.18274,18.18274 -10.04206,0 -18.18275,-8.14069 -18.18275,-18.18274 0,-10.04206 8.14069,-18.18275 18.18275,-18.18275 10.04205,0 18.18274,8.14069 18.18274,18.18275 z"
         sodipodi:ry="18.182745"
         sodipodi:rx="18.182745"
         sodipodi:cy="362.25681"
         sodipodi:cx="405.07117"
         id="path3123"
         style="fill:#ffff00;fill-opacity:1;stroke:#000000;stroke-width:5.90510089999999987;stroke-miterlimit:4;stroke-dasharray:none;stroke-opacity:1"
         sodipodi:type="arc" />
      <path
         sodipodi:type="arc"
         style="fill:#ffff00;fill-opacity:1;stroke:#000000;stroke-width:2.62448914000000011;stroke-miterlimit:4;stroke-dasharray:none;stroke-opacity:1"
         id="path3143"
         sodipodi:cx="405.07117"
         sodipodi:cy="362.25681"
         sodipodi:rx="18.182745"
         sodipodi:ry="18.182745"
         d="m 423.25391,362.25681 c 0,10.04205 -8.14069,18.18274 -18.18274,18.18274 -10.04206,0 -18.18275,-8.14069 -18.18275,-18.18274 0,-10.04206 8.14069,-18.18275 18.18275,-18.18275 10.04205,0 18.18274,8.14069 18.18274,18.18275 z"
         transform="translate(0,308.2677)" />
    </g>
  </g>
</svg>
